<?xml version="1.0" encoding="utf-8"?>
<!-- Generator: Adobe Illustrator 22.0.0, SVG Export Plug-In . SVG Version: 6.00 Build 0)  -->
<svg version="1.1"
	 id="Слой_1" xmlns:cc="http://creativecommons.org/ns#" xmlns:dc="http://purl.org/dc/elements/1.1/" xmlns:inkscape="http://www.inkscape.org/namespaces/inkscape" xmlns:rdf="http://www.w3.org/1999/02/22-rdf-syntax-ns#" xmlns:sodipodi="http://sodipodi.sourceforge.net/DTD/sodipodi-0.dtd" xmlns:svg="http://www.w3.org/2000/svg"
	 xmlns="http://www.w3.org/2000/svg" xmlns:xlink="http://www.w3.org/1999/xlink" x="0px" y="0px" viewBox="0 0 100 125"
	 style="enable-background:new 0 0 100 125;" xml:space="preserve">
<style type="text/css">
	.st0{stroke:#01385f;stroke-miterlimit:10;}
</style>
<g transform="translate(0,-952.36218)">
	<path class="st0" d="M39.4,1015c3.5,0,6.4,2.9,6.4,6.4c0,1.1-0.3,2.1-0.8,3.1l9.1,7.7c1.2-1.1,2.7-1.8,4.5-1.8
		c3.6,0,6.5,2.9,6.5,6.4c0,0.6-0.1,1.1-0.2,1.7l13.7,7.6c1.2-1.7,3.1-2.8,5.3-2.8c3.6,0,6.5,2.9,6.5,6.4c0,3.5-2.9,6.4-6.5,6.4
		c-3.5,0-6.5-2.9-6.5-6.4c0-0.6,0.1-1.2,0.3-1.8l-13.6-7.5c-1.2,1.8-3.2,2.9-5.4,2.9c-3.6,0-6.5-2.9-6.5-6.4c0-1.1,0.3-2.1,0.7-3
		l-9.1-7.7c-1.1,1-2.7,1.7-4.3,1.7c-1.3,0-2.6-0.4-3.6-1.1L22,1041.4c0.6,1,1,2.2,1,3.4c0,3.5-2.9,6.4-6.5,6.4
		c-3.5,0-6.5-2.9-6.5-6.4c0-3.5,2.9-6.4,6.5-6.4c1.6,0,3,0.6,4.2,1.5l13.7-14.6c-0.8-1.1-1.4-2.4-1.4-3.9
		C33,1017.9,35.9,1015,39.4,1015L39.4,1015z M39.4,1017c-2.5,0-4.4,2-4.4,4.4c0,2.4,2,4.3,4.4,4.3c2.4,0,4.4-2,4.4-4.3
		C43.8,1019,41.8,1017,39.4,1017z M58.5,1032.3c-2.5,0-4.5,2-4.5,4.4c0,2.4,2,4.4,4.5,4.4c2.5,0,4.5-2,4.5-4.4
		C63,1034.3,61,1032.3,58.5,1032.3z M16.5,1040.4c-2.5,0-4.5,2-4.5,4.4c0,2.5,2,4.4,4.5,4.4c2.5,0,4.5-2,4.5-4.4
		C21,1042.2,19,1040.5,16.5,1040.4z M83.8,1045.2c-2.5,0-4.5,1.9-4.5,4.4c0,2.4,2,4.4,4.5,4.4c2.5,0,4.5-2,4.5-4.4
		C88.2,1047.1,86.3,1045.2,83.8,1045.2z"/>
	<path class="st0" d="M39.4,975.4c3.5,0,6.4,2.9,6.4,6.4c0,1.5-0.5,2.8-1.4,3.9l10.3,11.8c1.1-0.8,2.4-1.2,3.8-1.2
		c2,0,3.8,0.9,5,2.3l14.6-9.5c-0.5-0.9-0.7-1.9-0.7-3c0-3.6,2.9-6.4,6.5-6.4c3.6,0,6.5,2.9,6.5,6.4c0,3.5-2.9,6.4-6.5,6.4
		c-1.7,0-3.3-0.7-4.5-1.8l-14.8,9.6c0.3,0.7,0.5,1.6,0.5,2.4c0,3.5-2.9,6.4-6.5,6.4c-3.6,0-6.5-2.9-6.5-6.4c0-1.4,0.5-2.7,1.3-3.8
		L43,987c-1,0.7-2.2,1.1-3.5,1.1c-1.3,0-2.5-0.4-3.6-1.1L22,1001.7c0.6,1,1,2.2,1,3.4c0,3.5-2.9,6.4-6.5,6.4c-3.5,0-6.5-2.8-6.5-6.4
		c0-3.5,2.9-6.4,6.5-6.4c1.6,0,3,0.5,4.1,1.5l13.7-14.6c-0.9-1.1-1.4-2.4-1.4-3.9C33,978.2,35.9,975.4,39.4,975.4L39.4,975.4z
		 M39.4,977.4c-2.5,0-4.4,2-4.4,4.4c0,2.4,2,4.3,4.4,4.3c2.4,0,4.4-2,4.4-4.3C43.8,979.3,41.8,977.4,39.4,977.4z M83.8,981.5
		c-2.5,0-4.5,1.9-4.5,4.4c0,2.5,2,4.4,4.5,4.4c2.5,0,4.5-1.9,4.5-4.4C88.2,983.5,86.3,981.5,83.8,981.5z M58.5,998.2
		c-2.4,0.1-4.4,1.9-4.5,4.4c0,2.5,2,4.4,4.5,4.4c2.5,0,4.5-1.9,4.5-4.4C63,1000.2,61,998.2,58.5,998.2z M16.5,1000.8
		c-2.5,0-4.5,2-4.5,4.4c0,2.5,2,4.4,4.5,4.4c2.5,0,4.5-1.9,4.5-4.4C21,1002.6,19,1000.8,16.5,1000.8z"/>
</g>
</svg>
