<?xml version="1.0" encoding="iso-8859-1"?>
<!-- Generator: Adobe Illustrator 22.0.0, SVG Export Plug-In . SVG Version: 6.00 Build 0)  -->
<svg version="1.1" id="&#x421;&#x43B;&#x43E;&#x439;_1"
	 xmlns="http://www.w3.org/2000/svg" xmlns:xlink="http://www.w3.org/1999/xlink" x="0px" y="0px" viewBox="0 0 100 125"
	 style="enable-background:new 0 0 100 125;" xml:space="preserve">
<title>Artboard 23</title>
<path fill="#3498db" d="M33.18,52.55c0,2.408-1.952,4.36-4.36,4.36s-4.36-1.952-4.36-4.36c0-2.408,1.952-4.36,4.36-4.36S33.18,50.142,33.18,52.55
	L33.18,52.55z M58.7,55.09c-1.297-0.681-2.633-1.285-4-1.81l-0.52-0.22c-0.781-0.31-1.515-0.727-2.18-1.24
	c-0.418-0.288-0.653-0.774-0.62-1.28c0.11-0.522,0.492-0.946,1-1.11c0.385-0.154,0.795-0.235,1.21-0.24
	c1.777-0.114,3.554,0.23,5.16,1c0.491,0.294,1.085,0.363,1.63,0.19c0.478-0.272,0.814-0.74,0.92-1.28c0.23-0.7,0.43-1.4,0.63-2.11
	l0.24-0.83c0.336-0.93-0.146-1.956-1.076-2.291c-0.008-0.003-0.016-0.006-0.024-0.009c-1.177-0.526-2.417-0.895-3.69-1.1
	c-0.92-0.14-0.92-0.14-0.93-1.07c0-2.5-0.25-3-2.78-3h-1.31c-1.47,0-2,0.56-2,2c0,0.32,0,0.63,0,0.94v0.5c0,0.84,0,0.84-0.84,1.14
	c-3.77,1.37-5.79,3.95-6,7.67c-0.19,3.19,1.25,5.66,4.42,7.55c1.147,0.65,2.344,1.209,3.58,1.67c0.52,0.21,1,0.42,1.56,0.64
	c0.597,0.255,1.156,0.591,1.66,1c0.799,0.524,1.021,1.597,0.497,2.396c-0.215,0.327-0.535,0.572-0.907,0.694
	c-0.894,0.371-1.871,0.495-2.83,0.36c-1.628-0.176-3.211-0.647-4.67-1.39c-0.345-0.211-0.736-0.335-1.14-0.36c-1,0-1.31,1-1.46,1.46
	c-0.26,0.83-0.49,1.67-0.75,2.6c-0.42,1.54-0.12,2.19,1.32,2.89l0,0c1.483,0.673,3.056,1.124,4.67,1.34l0.57,0.1
	c0,0.17,0,0.5,0,0.62v1.7c-0.073,0.986,0.668,1.844,1.654,1.917c0.069,0.005,0.138,0.006,0.206,0.003H53h1.36
	c0.955,0.041,1.762-0.699,1.803-1.653c0.003-0.069,0.002-0.138-0.003-0.207c0-0.22,0-0.44,0-0.66v-0.15c0-0.51,0-1,0-1.54
	c0-0.54,0-0.47,0.48-0.6c1.872-0.493,3.541-1.564,4.77-3.06c1.615-1.947,2.276-4.515,1.8-7C62.698,58.635,61.045,56.375,58.7,55.09z
	 M99,58.62c-0.006,2.489-2.021,4.505-4.51,4.51h-1.2c-1.178,6.436-4.172,12.401-8.63,17.19l-5.21,17.13
	c-0.928,3.09-3.774,5.204-7,5.2h-5.38c-3.242-0.034-6.082-2.18-7-5.29l-1.16-4c-4.132,0.542-8.318,0.542-12.45,0l-1.16,4
	c-0.918,3.11-3.758,5.256-7,5.29h-5.46c-3.226,0.004-6.072-2.11-7-5.2L22,85c-6.28-2.83-12.107-6.574-17.29-11.11
	C2.349,71.739,1.002,68.694,1,65.5V54.95c0.006-5.007,4.063-9.064,9.07-9.07H12c1.725-1.723,3.245-3.639,4.53-5.71l0.09-0.15
	c-0.509-1.513-1.369-2.884-2.51-4c-1.833-1.878-2.403-4.651-1.46-7.1c0.935-2.518,3.251-4.26,5.93-4.46
	c4.307-0.441,8.652,0.324,12.55,2.21c6.615-3.529,14.003-5.36,21.5-5.33c21.07,0,39,14.35,41,32.76h0.9
	C97.007,54.127,99,56.143,99,58.62z M85.25,57.62c0-15.27-14.63-27.69-32.61-27.69c-6.795-0.051-13.468,1.806-19.26,5.36l-1.74,1.09
	c-0.376,0.25-0.864,0.25-1.24,0l-1.69-1.16c-1.814-1.249-3.917-2.013-6.11-2.22c1.536,2.242,2.494,4.829,2.79,7.53l0.11,1.16
	c0.027,0.274-0.048,0.548-0.21,0.77l-0.67,0.95c-0.29,0.41-0.57,0.84-0.84,1.27c-1.987,3.206-4.418,6.115-7.22,8.64l-0.9,0.81
	c-0.209,0.187-0.48,0.29-0.76,0.29h-4.83c-0.298,0-0.54,0.242-0.54,0.54l0,0V65.5c0,0.792,0.334,1.547,0.92,2.08
	c4.744,4.111,10.08,7.482,15.83,10c1.79,0.81,3.145,2.351,3.72,4.23l3.76,12.34h3.61L39,88.43c0.784-2.753,3.555-4.439,6.36-3.87
	c4.832,0.934,9.798,0.934,14.63,0c0.356-0.068,0.718-0.101,1.08-0.1c2.46-0.008,4.622,1.629,5.28,4l1.65,5.7h3.61l5-16.68
	c0.31-1,0.844-1.916,1.56-2.68c4.499-4.612,7.036-10.787,7.08-17.23V57.62z"/>
</svg>
