<?xml version="1.0" encoding="utf-8"?>
<!-- Generator: Adobe Illustrator 22.0.0, SVG Export Plug-In . SVG Version: 6.00 Build 0)  -->
<svg version="1.1"
	 id="Слой_1" xmlns:cc="http://creativecommons.org/ns#" xmlns:dc="http://purl.org/dc/elements/1.1/" xmlns:inkscape="http://www.inkscape.org/namespaces/inkscape" xmlns:rdf="http://www.w3.org/1999/02/22-rdf-syntax-ns#" xmlns:sodipodi="http://sodipodi.sourceforge.net/DTD/sodipodi-0.dtd" xmlns:svg="http://www.w3.org/2000/svg"
	 xmlns="http://www.w3.org/2000/svg" xmlns:xlink="http://www.w3.org/1999/xlink" x="0px" y="0px" viewBox="0 0 100 123.6"
	 style="enable-background:new 0 0 100 123.6;" xml:space="preserve">
<style type="text/css">
	.st0{fill:none;stroke:#000000;stroke-width:1.5;stroke-miterlimit:10;}
</style>
<g transform="translate(0,-952.36218)">
	<g transform="matrix(2.6701716,0,0,-2.3074434,-916.0595,1264.4022)">
		<path class="st0" d="M343.1,104.5h25.6v4h-25.6V104.5z"/>
		<path class="st0" d="M372.4,122.5c1.6,0,2.9,1.6,2.9,3.6c0,2-1.3,3.6-2.9,3.6c-1.6,0-2.9-1.6-2.9-3.6
			C369.5,124.1,370.8,122.5,372.4,122.5"/>
		<path class="st0" d="M368.7,117V88.8c0-2.8,3.2-2.8,3.2,0l0.2,15.9h0.6l0.2-15.9c0-2.8,3.2-2.8,3.2,0v27.4h0.6l0.2-10
			c0-2.1,2.4-2.1,2.4,0v10.9c0,3.7-0.9,4.6-3.7,4.6l-3.2,0l-3.2,0c-1.4,0-1.7-0.5-2.1-1l-5.7-8.3c-1.2-1.7,0.9-3.8,2.1-2.1
			L368.7,117"/>
		<path class="st0" d="M351.2,121.8c1.6,0,2.9,1.6,2.9,3.6c0,2-1.3,3.6-2.9,3.6c-1.6,0-2.9-1.6-2.9-3.6
			C348.3,123.4,349.6,121.8,351.2,121.8z M360.6,118.7l-1.9-2.7c0,0-0.6,1.1-0.8,1.5c-1,1.9-1.4,3.6-3.5,3.6l-3.2,0l-3.2,0
			c-2.8,0-3.7-0.9-3.7-4.6v-7.2h2.4l0.1,6.3h0.6v-6.3h7.5v7.1c0,0,1.6-2.6,2-3.5c0.7-1.3,1.5-1.7,2.2-0.5l3.2,4.6
			C363.4,118.5,361.6,120.1,360.6,118.7"/>
		<g transform="matrix(0.05482962,0,0,-0.06923656,353.20769,121.79898)">
			<path class="st0" d="M57.6,486.1l-33-0.2c-12.3-0.1-24.2-8.2-24.1-22.1c0,0,0.6-99.9,0.6-100.2c0.1-12.4,11.8-21.8,24.4-21.7
				l33,0.2L57.6,486.1"/>
			<path class="st0" d="M155.7,342.9l0.1-17c0-7.5-7.4-12.3-16.4-12.4c0,0-34.8-0.2-34.7-0.2c-9,0-16.6,4.7-16.7,12.2l-0.1,17
				l-20.1-0.1l-0.8,144l108.2,0.6l0.8-144L155.7,342.9z M143.3,342.8l-43.5-0.2l0.1-17.6l43.5,0.3L143.3,342.8"/>
			<path class="st0" d="M184.3,486.8l33,0.2c12.3,0.1,24.3-7.9,24.4-21.8c0,0,0.6-99.9,0.6-100.2c0.1-12.4-11.5-21.9-24.1-22
				l-33-0.2L184.3,486.8"/>
		</g>
	</g>
</g>
</svg>
