<?xml version="1.0" encoding="utf-8"?>
<!-- Generator: Adobe Illustrator 22.0.0, SVG Export Plug-In . SVG Version: 6.00 Build 0)  -->
<svg version="1.1" id="Слой_1" xmlns="http://www.w3.org/2000/svg" xmlns:xlink="http://www.w3.org/1999/xlink" x="0px" y="0px"
	 viewBox="0 0 100 125" style="enable-background:new 0 0 100 125;" xml:space="preserve">
<g fill="#3498db">
	<path d="M35.2,98.3c2.4,2.4,5.6,3.6,8.8,3.6c3.4,0,6.8-1.3,9.4-3.9l31.1-31.1c2.1-2.1,3.3-4.9,3.4-7.9V35.5c0-2.5-1-4.9-2.8-6.7
		C83.4,27,81,26,78.5,26l0,0H54.9c-2.9,0.1-5.7,1.3-7.8,3.4L16,60.5c-5.1,5.1-5.3,13.3-0.3,18.3L35.2,98.3z M20.9,65.5L52,34.4
		c0.8-0.8,1.9-1.3,2.9-1.3h23.5l0,0c0.7,0,1.3,0.3,1.8,0.7c0.5,0.5,0.7,1.1,0.7,1.8V59c0,1.1-0.5,2.2-1.3,3L48.5,93.1
		c-2.4,2.4-6.2,2.5-8.4,0.3L20.6,73.9C18.4,71.6,18.5,67.9,20.9,65.5z"/>
	<path d="M65.5,60c2.9,0,5.9-1.1,8.1-3.4l0,0c4.5-4.5,4.5-11.8,0-16.3s-11.8-4.5-16.3,0s-4.5,11.8,0,16.3C59.6,58.9,62.6,60,65.5,60
		z M62.3,45.3c0.9-0.9,2-1.3,3.2-1.3s2.3,0.4,3.2,1.3c1.8,1.8,1.8,4.6,0,6.4c-1.8,1.8-4.6,1.8-6.4,0C60.6,49.9,60.6,47.1,62.3,45.3z
		"/>
</g>
</svg>
