<?xml version="1.0" encoding="iso-8859-1"?>
<!-- Generator: Adobe Illustrator 22.0.0, SVG Export Plug-In . SVG Version: 6.00 Build 0)  -->
<svg version="1.1" id="&#x421;&#x43B;&#x43E;&#x439;_1"
	 xmlns="http://www.w3.org/2000/svg" xmlns:xlink="http://www.w3.org/1999/xlink" x="0px" y="0px" viewBox="0 0 100 125"
	 style="enable-background:new 0 0 100 125;" xml:space="preserve">
<path fill="#3498db" style="stroke:#3498db;stroke-width:1.5;stroke-miterlimit:10;" d="M85.226,69.548h-3.271l-1.761-26.545
	c-0.377-6.416-3.648-12.077-8.806-15.852v-0.377c0-2.139-1.635-3.774-3.774-3.774H32.387c-2.139,0-3.774,1.635-3.774,3.774v0.252
	c-5.158,3.774-8.429,9.561-8.806,15.852l-1.761,26.671h-3.271c-2.139,0-3.774,1.635-3.774,3.774V94.71c0,3.523,2.768,6.29,6.29,6.29
	H82.71c3.523,0,6.29-2.768,6.29-6.29V73.323C89,71.184,87.365,69.548,85.226,69.548z M85.226,72.065
	c0.755,0,1.258,0.503,1.258,1.258h-4.277l-0.126-1.258H85.226z M31.129,26.774c0-0.755,0.503-1.258,1.258-1.258h35.226
	c0.755,0,1.258,0.503,1.258,1.258v17.613c0,2.139-1.635,3.774-3.774,3.774H56.29v-3.774c0-0.755-0.503-1.258-1.258-1.258v-6.29
	c0-0.755-0.503-1.258-1.258-1.258h-7.548c-0.755,0-1.258,0.503-1.258,1.258v6.29c-0.755,0-1.258,0.503-1.258,1.258v3.774h-8.806
	c-2.139,0-3.774-1.635-3.774-3.774V26.774z M66.355,98.484h-32.71v-2.516h32.71V98.484z M66.355,93.452h-32.71
	c-2.139,0-3.774-1.635-3.774-3.774v-3.774c1.006,0.755,2.39,1.258,3.774,1.258h32.71c1.384,0,2.768-0.503,3.774-1.258v3.774
	C70.129,91.816,68.494,93.452,66.355,93.452z M70.129,80.871c0,2.139-1.635,3.774-3.774,3.774h-32.71
	c-2.139,0-3.774-1.635-3.774-3.774v-3.774c0-4.906,3.9-8.806,8.806-8.806h22.645c4.906,0,8.806,3.9,8.806,8.806V80.871z
	 M61.323,65.774H38.677c-1.761,0-3.523,0.377-5.032,1.132V50.552c0.377,0.126,0.881,0.126,1.258,0.126h8.806v3.774
	c0,0.755,0.503,1.258,1.258,1.258V62c0,0.755,0.503,1.258,1.258,1.258h7.548c0.755,0,1.258-0.503,1.258-1.258v-6.29
	c0.755,0,1.258-0.503,1.258-1.258v-3.774h8.806c0.377,0,0.881,0,1.258-0.126v16.481C64.845,66.152,63.084,65.774,61.323,65.774z
	 M47.484,55.71h5.032v5.032h-5.032V55.71z M46.226,53.194v-7.548h7.548v7.548H46.226z M52.516,43.129h-5.032v-5.032h5.032V43.129z
	 M14.774,72.065h3.145l-0.126,1.258h-4.277C13.516,72.568,14.019,72.065,14.774,72.065z M17.29,98.484
	c-2.139,0-3.774-1.635-3.774-3.774V74.581h4.152l-1.006,14.342c-0.252,3.145,0.881,6.163,3.019,8.428
	c0.377,0.379,0.755,0.756,1.132,1.132H17.29V98.484z M28.11,98.484c-2.516,0-4.781-1.006-6.416-2.768
	c-1.635-1.76-2.516-4.152-2.39-6.542l3.019-46.045c0.377-5.032,2.642-9.561,6.29-12.832v14.09c0,2.516,1.51,4.781,3.774,5.787
	v17.487l0,0c-3.019,2.013-5.032,5.535-5.032,9.435v12.581c0,3.019,2.139,5.535,5.032,6.165v2.642H28.11z M67.613,98.484v-2.642
	c2.894-0.629,5.032-3.145,5.032-6.165V77.097c0-3.9-2.013-7.423-5.032-9.435l0,0V50.174c2.265-1.006,3.774-3.145,3.774-5.787v-14.09
	c3.648,3.271,5.913,7.8,6.29,12.832l3.019,45.919c0.126,2.516-0.629,4.781-2.39,6.542c-1.761,1.761-3.9,2.894-6.416,2.894H67.613z
	 M82.71,98.484h-3.648c0.379-0.377,0.756-0.629,1.132-1.132c2.139-2.265,3.271-5.283,3.019-8.428l-0.881-14.343h4.152V94.71
	C86.484,96.848,84.848,98.484,82.71,98.484z M50,74.581c-2.139,0-3.774,1.635-3.774,3.774s1.635,3.774,3.774,3.774
	s3.774-1.635,3.774-3.774C53.774,76.216,52.139,74.581,50,74.581z M50,79.613c-0.755,0-1.258-0.503-1.258-1.258
	s0.503-1.258,1.258-1.258s1.258,0.503,1.258,1.258S50.755,79.613,50,79.613z"/>
</svg>
