<?xml version="1.0" encoding="iso-8859-1"?>
<!-- Generator: Adobe Illustrator 22.0.0, SVG Export Plug-In . SVG Version: 6.00 Build 0)  -->
<svg version="1.1" id="Capa_1" xmlns="http://www.w3.org/2000/svg" xmlns:xlink="http://www.w3.org/1999/xlink" x="0px" y="0px"
	 viewBox="-49 141 512 512" style="enable-background:new -49 141 512 512;" xml:space="preserve">
<path fill="#3498db" d="M296.4,281h-30v-97.2c0-22.5-18.3-40.8-40.8-40.8h-37.3c-22.5,0-40.8,18.3-40.8,40.8V281h-30c-29.8,0-54.1,24.3-54.1,54.1
	v240.5c0,25.3,17.5,46.5,41,52.4v8.9c0,7.8,6.3,14.1,14.1,14.1s14.1-6.3,14.1-14.1v-7.3h148.7v7.3c0,7.8,6.3,14.1,14.1,14.1
	s14.1-6.3,14.1-14.1V628c23.5-5.9,41-27.1,41-52.4V335.1C350.5,305.2,326.3,281,296.4,281z M175.8,183.8c0-6.9,5.6-12.5,12.5-12.5
	h37.3c6.9,0,12.5,5.6,12.5,12.5V281h-62.4v-97.2H175.8z M322.3,575.5c0,14.3-11.6,25.9-25.9,25.9H117.6c-14.3,0-25.9-11.6-25.9-25.9
	V392c30,14.1,64.8,22.4,101.2,24.1v9.1c0,7.8,6.3,14.1,14.1,14.1s14.1-6.3,14.1-14.1v-9.1c36.4-1.7,71.2-10.1,101.2-24.1V575.5z
	 M322.3,360.4c-32.3,18-72.9,28-115.3,28s-83-10-115.3-28v-25.3c0-14.3,11.6-25.9,25.9-25.9h178.9c14.3,0,25.9,11.6,25.9,25.9v25.3
	H322.3z"/>
</svg>
