<?xml version="1.0" encoding="utf-8"?>
<!-- Generator: Adobe Illustrator 22.0.0, SVG Export Plug-In . SVG Version: 6.00 Build 0)  -->
<svg version="1.1"
	 id="Слой_1" xmlns:cc="http://creativecommons.org/ns#" xmlns:dc="http://purl.org/dc/elements/1.1/" xmlns:inkscape="http://www.inkscape.org/namespaces/inkscape" xmlns:rdf="http://www.w3.org/1999/02/22-rdf-syntax-ns#" xmlns:sodipodi="http://sodipodi.sourceforge.net/DTD/sodipodi-0.dtd" xmlns:svg="http://www.w3.org/2000/svg"
	 xmlns="http://www.w3.org/2000/svg" xmlns:xlink="http://www.w3.org/1999/xlink" x="0px" y="0px" viewBox="0 0 100 125"
	 style="enable-background:new 0 0 100 125;" xml:space="preserve">
<g fill="#3498db" transform="translate(0,-952.36218)">
	<path d="M8,976.4c-1.1,0-2,0.9-2,2s0.9,2,2,2h10.4l10.5,49.8c0.3,1.2,1.1,2.3,2.1,2.3h50c1.1,0,2-0.9,2-2s-1-2-2-2H32.6l-1.7-8H85
		c0.9,0,1.7-0.7,1.9-1.6l7-30c0.3-1.2-0.7-2.4-1.9-2.4H23.8l-1.8-8.4c-0.2-0.9-1.1-1.6-2-1.6L8,976.4z M24.6,990.4h17.7l1.8,11H26.9
		L24.6,990.4z M46.4,990.4h21.3l-1.8,11H48.2L46.4,990.4z M71.7,990.4h17.8l-2.6,11H69.9L71.7,990.4z M27.8,1005.4h17l1.8,11H30.1
		L27.8,1005.4z M48.9,1005.4h16.3l-1.8,11H50.7L48.9,1005.4z M69.2,1005.4H86l-2.6,11H67.4L69.2,1005.4z M41,1038.4
		c-4.9,0-9,4.1-9,9s4.1,9,9,9c4.9,0,9-4.1,9-9C50,1042.4,46,1038.4,41,1038.4z M71,1038.4c-4.9,0-9,4.1-9,9s4.1,9,9,9
		c4.9,0,9-4.1,9-9C80,1042.4,76,1038.4,71,1038.4z M41,1042.4c2.8,0,5,2.2,5,5s-2.2,5-5,5c-2.8,0-5-2.2-5-5
		C36,1044.6,38.2,1042.4,41,1042.4z M71,1042.4c2.8,0,5,2.2,5,5s-2.2,5-5,5c-2.8,0-5-2.2-5-5C66,1044.6,68.2,1042.4,71,1042.4z"/>
</g>
</svg>
