<?xml version="1.0" encoding="iso-8859-1"?>
<!-- Generator: Adobe Illustrator 22.0.0, SVG Export Plug-In . SVG Version: 6.00 Build 0)  -->
<svg version="1.1" id="&#x421;&#x43B;&#x43E;&#x439;_1"
	 xmlns="http://www.w3.org/2000/svg" xmlns:xlink="http://www.w3.org/1999/xlink" x="0px" y="0px" viewBox="0 0 100 125"
	 style="enable-background:new 0 0 100 125;" xml:space="preserve">
<g fill="#3498db">
	<g>
		<rect x="21.331" y="37.356" width="47.841" height="5.229"/>
		<rect x="21.331" y="26.477" width="47.841" height="5.228"/>
		<rect x="21.331" y="48.239" width="47.841" height="5.228"/>
		<rect x="21.331" y="59.119" width="22.765" height="5.229"/>
		<path d="M45.251,92.438H19.795c-2.322,0-4.205-1.883-4.205-4.205V24.408c0-2.323,1.883-4.207,4.205-4.207h50.821
			c2.319,0,4.202,1.884,4.202,4.207v38.584l4.768-2.736V22.151c0-3.485-2.824-6.306-6.307-6.306H17.134
			c-3.484,0-6.309,2.821-6.309,6.306v68.338c0,3.48,2.824,6.306,6.309,6.306h25.912L45.251,92.438z"/>
	</g>
	<path d="M83.129,89.067l8.803-4.19l-8.742-4.312l5.529-8.027l-9.73,0.637l0.779-9.719l-8.109,5.412l-4.188-8.803l-4.312,8.74
		l-8.029-5.524l0.635,9.726l-9.715-0.773l5.415,8.105l-8.805,4.188l8.743,4.312l-5.529,8.028l9.727-0.634l-0.775,9.715l8.109-5.415
		l4.188,8.806l4.312-8.742l8.027,5.527l-0.633-9.725l9.715,0.777L83.129,89.067z M81.064,80.589L67.217,96.974
		c-0.697,0.834-1.732,1.317-2.82,1.324c-0.006,0-0.016,0-0.025,0c-1.08,0-2.105-0.47-2.814-1.279l-6.186-7.1
		c-1.354-1.556-1.193-3.911,0.359-5.265c1.555-1.354,3.912-1.193,5.268,0.362l3.326,3.819l11.041-13.061
		c1.326-1.574,3.684-1.775,5.256-0.441C82.193,76.664,82.393,79.017,81.064,80.589z"/>
</g>
</svg>
