<?xml version="1.0" encoding="utf-8"?>
<!-- Generator: Adobe Illustrator 22.0.0, SVG Export Plug-In . SVG Version: 6.00 Build 0)  -->
<svg version="1.1" id="Слой_1" xmlns="http://www.w3.org/2000/svg" xmlns:xlink="http://www.w3.org/1999/xlink" x="0px" y="0px"
	 viewBox="0 0 32 40" style="enable-background:new 0 0 32 40;" xml:space="preserve">
<g>
	<path fill="#389adc" d="M16,21.7c3.3,0,6-2.7,6-6s-2.7-6-6-6s-6,2.7-6,6S12.7,21.7,16,21.7z M16,10.7c2.8,0,5,2.2,5,5s-2.2,5-5,5s-5-2.2-5-5
		S13.2,10.7,16,10.7z"/>
	<path fill="#389adc" d="M16,4C9.4,4,4,9.3,4,16c0,7,6,14.2,10.4,19.2c0,0,0.7,0.8,1.6,0.8c0,0,0.1,0,0.1,0c0.9,0,1.6-0.8,1.6-0.8
		C22,30.2,28,23,28,16C28,9.3,22.6,4,16,4z M16.1,33.9c0,0-0.1,0.1-0.1,0.1c0,0-0.1-0.1-0.1-0.1C12.2,29.6,6,22.5,6,16
		c0-5.5,4.5-10,10-10c5.5,0,10,4.5,10,10C26,22.5,19.8,29.6,16.1,33.9z"/>
</g>
</svg>
