<?xml version="1.0" encoding="iso-8859-1"?>
<!-- Generator: Adobe Illustrator 22.0.0, SVG Export Plug-In . SVG Version: 6.00 Build 0)  -->
<svg version="1.1"
	 id="&#x421;&#x43B;&#x43E;&#x439;_1" xmlns:cc="http://creativecommons.org/ns#" xmlns:dc="http://purl.org/dc/elements/1.1/" xmlns:inkscape="http://www.inkscape.org/namespaces/inkscape" xmlns:rdf="http://www.w3.org/1999/02/22-rdf-syntax-ns#" xmlns:sodipodi="http://sodipodi.sourceforge.net/DTD/sodipodi-0.dtd" xmlns:svg="http://www.w3.org/2000/svg"
	 xmlns="http://www.w3.org/2000/svg" xmlns:xlink="http://www.w3.org/1999/xlink" x="0px" y="0px" viewBox="0 0 100 125"
	 style="enable-background:new 0 0 100 125;" xml:space="preserve">
<g transform="translate(0,-952.36218)">
	<path fill="#3498db" d="M84.592,971.364c-0.362,0.051-0.711,0.167-1.031,0.344l-76.999,41.999c-1.46,0.784-2.008,2.603-1.224,4.063
		c0.431,0.802,1.203,1.366,2.099,1.531l29.562,5.531v33.531c0.013,1.657,1.367,2.989,3.024,2.976
		c0.804-0.006,1.573-0.336,2.132-0.914l24.75-25.75l24,9.469c1.547,0.595,3.282-0.177,3.877-1.724
		c0.168-0.436,0.231-0.905,0.185-1.37l-7-66.999c-0.159-1.649-1.625-2.858-3.274-2.699C84.66,971.356,84.626,971.359,84.592,971.364
		L84.592,971.364z M82.905,982.895l5.625,53.843l-30.937-12.187L82.905,982.895z M69.905,986.02l-30.968,33.062l-22.093-4.125
		L69.905,986.02z M66.405,998.52L50.437,1024.8c-0.085,0.14-0.158,0.286-0.219,0.438l-7.219,18.062v-19.781L66.405,998.52
		L66.405,998.52z M54.812,1029.894l6.094,2.406l-12.094,12.562C48.812,1044.863,54.812,1029.894,54.812,1029.894z"/>
</g>
</svg>
