<?xml version="1.0" encoding="utf-8"?>
<!-- Generator: Adobe Illustrator 22.0.0, SVG Export Plug-In . SVG Version: 6.00 Build 0)  -->
<svg version="1.1" id="Слой_1" xmlns="http://www.w3.org/2000/svg" xmlns:xlink="http://www.w3.org/1999/xlink" x="0px" y="0px"
	 viewBox="0 0 100 125" style="enable-background:new 0 0 100 125;" xml:space="preserve">
<g fill="#3498db">
	<path d="M10.4,46.2h70.4l-13,13c-1.4,1.4-1.4,3.7,0,5.1c0.7,0.7,1.6,1.1,2.6,1.1s1.9-0.4,2.6-1.1l19.2-19.2c1.4-1.4,1.4-3.7,0-5.1
		L72.9,20.8c-1.4-1.4-3.7-1.4-5.1,0c-1.4,1.4-1.4,3.7,0,5.1l13,13H10.4c-2,0-3.6,1.6-3.6,3.6S8.4,46.2,10.4,46.2z"/>
	<path d="M89.5,82.3H19.1l13-13c1.4-1.4,1.4-3.7,0-5.1c-1.4-1.4-3.7-1.4-5.1,0L7.8,83.4c-0.2,0.2-0.3,0.4-0.5,0.6
		c0,0.1-0.1,0.1-0.1,0.2C7.1,84.3,7,84.5,7,84.6s-0.1,0.2-0.1,0.3c0,0.1-0.1,0.2-0.1,0.3c0,0.2-0.1,0.5-0.1,0.7l0,0l0,0
		c0,0.2,0,0.5,0.1,0.7c0,0.1,0.1,0.2,0.1,0.3C7,87.1,7,87.2,7,87.3c0.1,0.1,0.1,0.3,0.2,0.4c0,0.1,0.1,0.1,0.1,0.2
		c0.1,0.2,0.3,0.4,0.5,0.6L27,107.7c0.7,0.7,1.6,1.1,2.6,1.1s1.9-0.4,2.6-1.1c1.4-1.4,1.4-3.7,0-5.1l-13-13h70.4
		c2,0,3.6-1.6,3.6-3.6C93.1,84,91.5,82.3,89.5,82.3z"/>
</g>
</svg>
