<?xml version="1.0" encoding="iso-8859-1"?>
<!-- Generator: Adobe Illustrator 22.0.0, SVG Export Plug-In . SVG Version: 6.00 Build 0)  -->
<svg version="1.1" id="&#x421;&#x43B;&#x43E;&#x439;_1"
	 xmlns="http://www.w3.org/2000/svg" xmlns:xlink="http://www.w3.org/1999/xlink" x="0px" y="0px" viewBox="0 0 612 792"
	 style="enable-background:new 0 0 612 792;" xml:space="preserve">
<g fill="#3498db">
	<g>
		<defs>
			<rect id="SVGID_1_" x="15.84" y="121.476" width="580.16" height="550.889"/>
		</defs>
		<clipPath id="SVGID_2_">
			<use xlink:href="#SVGID_1_"  style="overflow:visible;"/>
		</clipPath>
		<path style="clip-path:url(#SVGID_2_);" d="M591.978,558.111l-34.101-119.335c-6.803-23.839-23.327-43.087-44.461-53.959
			l-63.678-168.94c-20.934-55.533-78.848-92.844-144.108-92.844c-65.261,0-123.174,37.311-144.108,92.844l-63.68,168.94
			c-21.144,10.872-37.655,30.12-44.468,53.95L19.279,558.111c-7.642,26.737-2.42,54.798,14.321,76.989
			c16.743,22.193,42.287,34.923,70.093,34.923h403.863c27.803,0,53.35-12.731,70.09-34.923
			C594.39,612.909,599.61,584.848,591.978,558.111L591.978,558.111z M198.033,229.646c15.246-40.431,58.477-67.585,107.597-67.585
			c49.11,0,92.349,27.154,107.585,67.585l54.828,145.452h-36.075l-8.891-41.202c-7.859-36.445-40.629-62.907-77.923-62.907h-79.048
			c-37.294,0-70.073,26.461-77.935,62.907l-8.879,41.202h-36.084L198.033,229.646z M415.312,414.127l30.977,216.867H164.961
			l30.986-216.867H415.312z M219.216,375.098l7.108-32.969c4.013-18.609,20.744-32.111,39.782-32.111h79.048
			c19.039,0,35.77,13.501,39.773,32.111l7.118,32.969H219.216z M64.76,611.594c-9.301-12.331-12.196-27.92-7.957-42.766
			l34.094-119.332c5.954-20.832,25.23-35.37,46.888-35.37h18.734l-30.977,216.867h-21.849
			C88.248,630.994,74.058,623.922,64.76,611.594L64.76,611.594z M546.49,611.594c-9.301,12.328-23.488,19.4-38.933,19.4h-21.849
			l-30.977-216.867h18.731c21.658,0,40.936,14.538,46.89,35.37l34.104,119.332C558.696,583.674,555.788,599.264,546.49,611.594
			L546.49,611.594z M546.49,611.594"/>
	</g>
	<path d="M241.235,525.97h4.879v12.692c0,5.928,4.803,10.73,10.73,10.73c5.925,0,10.738-4.803,10.738-10.73V525.97h102.44
		c10.777,0,19.514-8.738,19.514-19.505c0-10.777-8.738-19.514-19.514-19.514H241.235c-10.777,0-19.514,8.738-19.514,19.514
		C221.721,517.233,230.458,525.97,241.235,525.97L241.235,525.97z M241.235,525.97"/>
</g>
</svg>
