<?xml version="1.0" encoding="utf-8"?>
<!-- Generator: Adobe Illustrator 22.0.0, SVG Export Plug-In . SVG Version: 6.00 Build 0)  -->
<svg version="1.1"
	 id="Слой_1" xmlns:cc="http://creativecommons.org/ns#" xmlns:dc="http://purl.org/dc/elements/1.1/" xmlns:inkscape="http://www.inkscape.org/namespaces/inkscape" xmlns:rdf="http://www.w3.org/1999/02/22-rdf-syntax-ns#" xmlns:sodipodi="http://sodipodi.sourceforge.net/DTD/sodipodi-0.dtd" xmlns:svg="http://www.w3.org/2000/svg"
	 xmlns="http://www.w3.org/2000/svg" xmlns:xlink="http://www.w3.org/1999/xlink" x="0px" y="0px" viewBox="0 0 100 125"
	 style="enable-background:new 0 0 100 125;" xml:space="preserve">
<g transform="translate(0,-952.36218)">
	<path fill="#01385f" d="M49.9,983.4c-0.4,0-0.8,0.1-1.2,0.4l-38,30c-0.9,0.7-1,2-0.3,2.8c0.6,0.8,2,1,2.8,0.3l36.8-29l36.7,29
		c0.8,0.7,2.2,0.5,2.8-0.3c0.6-0.8,0.6-2.2-0.3-2.8L73,1000.9v-17.6h-8v11.3l-13.8-10.8C50.8,983.5,50.4,983.4,49.9,983.4
		L49.9,983.4z M50,991.4l-27,21v33h17v-10c0-5.5,4.5-10,10-10s10,4.5,10,10v10h17v-33L50,991.4z"/>
</g>
</svg>
