<?xml version="1.0" encoding="utf-8"?>
<!-- Generator: Adobe Illustrator 22.0.0, SVG Export Plug-In . SVG Version: 6.00 Build 0)  -->
<svg version="1.1" id="Слой_1" xmlns="http://www.w3.org/2000/svg" xmlns:xlink="http://www.w3.org/1999/xlink" x="0px" y="0px"
	 viewBox="0 0 100 125" style="enable-background:new 0 0 100 125;" xml:space="preserve">
<title>64 all</title>
<path fill="#01385f" d="M81.4,38.1L81.4,38.1c-8.4-8.3-21.9-8.3-30.4,0c-0.4,0.4-0.7,0.7-1,1.1c-0.3-0.4-0.7-0.8-1-1.1c-8.4-8.3-21.9-8.3-30.4,0
	c-8.3,8.2-8.4,21.6-0.2,30c0.1,0.1,0.1,0.1,0.2,0.2L50,98.1l31.4-29.9c8.3-8.2,8.4-21.6,0.2-30C81.5,38.2,81.5,38.2,81.4,38.1
	L81.4,38.1z"/>
</svg>
