<?xml version="1.0" encoding="iso-8859-1"?>
<!-- Generator: Adobe Illustrator 22.0.0, SVG Export Plug-In . SVG Version: 6.00 Build 0)  -->
<svg version="1.1" id="&#x421;&#x43B;&#x43E;&#x439;_1"
	 xmlns="http://www.w3.org/2000/svg" xmlns:xlink="http://www.w3.org/1999/xlink" x="0px" y="0px" viewBox="0 0 91 113.75"
	 style="enable-background:new 0 0 91 113.75;" xml:space="preserve">
<g fill="#3498db">
	<path fill="#3498db" style="stroke:#3498db;stroke-width:1.5;stroke-miterlimit:10;" d="M24.144,59.783c-1.127,0.477-2.091,1.324-2.718,2.391
		c-0.522,0.887-0.799,1.896-0.799,2.92c0,2.492,1.591,4.693,3.958,5.48c0.001,0,0.002,0,0.003,0
		c0.591,0.195,1.203,0.295,1.818,0.295c3.184,0,5.773-2.592,5.773-5.775c0-1.023-0.276-2.033-0.797-2.92h-0.001
		c-1.035-1.76-2.941-2.854-4.976-2.854c-0.785,0-1.546,0.154-2.26,0.459C24.146,59.781,24.145,59.781,24.144,59.783z M25.008,61.805
		c0.001-0.002,0.001,0,0.002-0.002c0.439-0.188,0.909-0.283,1.396-0.283c1.257,0,2.437,0.678,3.079,1.768l0,0
		c0.323,0.551,0.494,1.176,0.494,1.807c0,1.971-1.604,3.576-3.573,3.576c-0.38,0-0.76-0.063-1.127-0.184c-0.001,0-0.001,0-0.001,0
		c-1.466-0.488-2.451-1.852-2.451-3.393c0-0.631,0.171-1.254,0.495-1.805C23.712,62.627,24.31,62.1,25.008,61.805
		C25.007,61.805,25.007,61.805,25.008,61.805z"/>
	<path fill="#3498db" style="stroke:#3498db;stroke-width:1.5;stroke-miterlimit:10;" d="M64.797,20.605c-5.673,0-10.732,2.647-14.03,6.762
		c-2.023-0.348-4.068-0.533-6.093-0.533h-0.006c-5.473,0.002-10.755,1.246-15.522,3.535c1.511-1.883,2.823-4.053,2.823-5.928
		c0-4.381-3.564-7.945-7.945-7.945c-4.382,0-7.946,3.563-7.946,7.945c0,3.596,4.82,8.289,6.624,9.918
		c-3.109,2.414-5.854,5.346-8.08,8.748C10.8,48.951,8.779,55.738,8.778,62.73v0.002c0,19.793,16.103,35.896,35.896,35.896
		S80.571,82.525,80.571,62.73c0-4.51-0.84-8.906-2.479-13.084c2.659-3.723,4.682-7.668,4.682-11.064
		C82.774,28.67,74.71,20.605,64.797,20.605z M18.277,24.441c0-3.168,2.577-5.746,5.746-5.746c3.168,0,5.745,2.577,5.745,5.746
		c0,2.164-3.273,5.889-5.745,8.15C21.552,30.33,18.277,26.605,18.277,24.441z M35.55,30.287c-0.085,0.068-0.165,0.15-0.25,0.219
		c-0.278,0.23-0.553,0.475-0.825,0.727c-0.174,0.16-0.348,0.316-0.519,0.484c-0.282,0.279-0.558,0.574-0.832,0.873
		c-0.151,0.166-0.305,0.322-0.453,0.494c-0.321,0.369-0.633,0.762-0.941,1.162c-0.093,0.119-0.189,0.23-0.281,0.354
		c-0.396,0.533-0.782,1.09-1.156,1.67c-0.092,0.143-0.178,0.297-0.268,0.443c-0.277,0.443-0.551,0.895-0.813,1.367
		c-0.128,0.23-0.25,0.473-0.375,0.709c-0.215,0.408-0.428,0.816-0.633,1.242c-0.13,0.27-0.254,0.549-0.38,0.826
		c-0.188,0.414-0.372,0.834-0.55,1.264c-0.122,0.295-0.24,0.596-0.357,0.898c-0.169,0.438-0.332,0.881-0.49,1.332
		c-0.063,0.178-0.133,0.344-0.193,0.523c-0.544-0.086-1.088-0.172-1.621-0.266c-0.192-0.033-0.39-0.063-0.581-0.098
		c-0.893-0.16-1.767-0.33-2.625-0.508c-0.226-0.047-0.443-0.098-0.666-0.146c-0.631-0.137-1.253-0.275-1.864-0.422
		c-0.288-0.07-0.574-0.141-0.858-0.211c-0.231-0.059-0.454-0.121-0.683-0.18C21.853,36.773,28.284,32.324,35.55,30.287z
		 M16.032,44.988c0.465,0.125,0.946,0.242,1.424,0.363c0.209,0.051,0.411,0.107,0.622,0.158c0.861,0.209,1.74,0.408,2.64,0.598
		c0.145,0.031,0.295,0.059,0.44,0.088c0.753,0.154,1.517,0.305,2.294,0.445c0.308,0.055,0.62,0.107,0.932,0.16
		c0.395,0.068,0.783,0.141,1.185,0.205c-0.068,0.24-0.128,0.488-0.193,0.73s-0.131,0.484-0.193,0.729
		c-0.144,0.564-0.277,1.137-0.403,1.713c-0.039,0.178-0.083,0.354-0.12,0.533c-0.157,0.754-0.3,1.518-0.427,2.289
		c-0.029,0.176-0.053,0.355-0.08,0.535c-0.069,0.445-0.142,0.891-0.2,1.342c-0.132,0.031-0.256,0.082-0.386,0.117
		c-0.189,0.055-0.376,0.109-0.561,0.174c-0.279,0.094-0.551,0.205-0.819,0.322c-0.17,0.074-0.341,0.145-0.506,0.229
		c-0.285,0.143-0.557,0.305-0.826,0.473c-0.132,0.082-0.269,0.156-0.396,0.242c-0.388,0.268-0.76,0.555-1.108,0.869
		c-0.016,0.014-0.028,0.031-0.044,0.045c-0.332,0.305-0.642,0.631-0.933,0.977c-0.098,0.115-0.183,0.242-0.276,0.363
		c-0.196,0.254-0.387,0.514-0.56,0.785c-0.095,0.15-0.18,0.307-0.267,0.461c-0.149,0.264-0.289,0.531-0.415,0.811
		c-0.077,0.168-0.148,0.34-0.216,0.512c-0.05,0.127-0.113,0.246-0.158,0.375h-5.485C11.187,55.723,12.916,50.006,16.032,44.988z
		 M26.406,56.775c3.784,0,7.091,2.561,8.041,6.227c0.001,0,0.001,0.002,0.001,0.004c0.184,0.709,0.276,1.412,0.276,2.088
		c0,3.342-5.011,8.762-8.322,11.766c-2.85-2.574-8.316-8.24-8.316-11.766c0-0.678,0.093-1.379,0.274-2.086c0,0,0,0,0-0.002
		c0.831-3.205,3.482-5.607,6.755-6.119c0,0,0,0,0.001,0C25.606,56.811,26.016,56.775,26.406,56.775z M10.995,63.83h4.971
		c-0.053,0.426-0.08,0.848-0.08,1.264c0,0.328,0.036,0.664,0.094,1.006c0.02,0.111,0.053,0.229,0.078,0.342
		c0.051,0.23,0.104,0.463,0.178,0.697c0.043,0.137,0.095,0.273,0.145,0.41c0.078,0.217,0.16,0.436,0.255,0.654
		c0.063,0.143,0.129,0.287,0.198,0.432c0.103,0.217,0.211,0.432,0.327,0.648c0.077,0.145,0.154,0.287,0.236,0.43
		c0.127,0.223,0.261,0.443,0.398,0.662c0.085,0.137,0.168,0.271,0.256,0.406c0.157,0.24,0.322,0.477,0.489,0.713
		c0.079,0.111,0.155,0.225,0.236,0.336c0.246,0.338,0.499,0.67,0.758,0.996c0.006,0.008,0.012,0.016,0.018,0.023
		c0.269,0.338,0.543,0.668,0.819,0.992c0.086,0.102,0.172,0.197,0.259,0.295c0.19,0.221,0.381,0.438,0.571,0.648
		c0.104,0.113,0.204,0.221,0.306,0.332c0.175,0.189,0.348,0.375,0.519,0.555c0.104,0.107,0.204,0.213,0.306,0.316
		c0.169,0.174,0.333,0.342,0.495,0.504c0.094,0.096,0.187,0.188,0.278,0.277c0.169,0.168,0.331,0.326,0.49,0.48
		c0.072,0.068,0.146,0.141,0.215,0.207c0.186,0.176,0.357,0.338,0.523,0.492c0.034,0.031,0.07,0.066,0.104,0.098
		c0.202,0.186,0.39,0.357,0.553,0.504c-3.179,0.529-6.181,1.174-8.953,1.924C13.012,75.609,11.191,69.922,10.995,63.83z
		 M17.332,82.406c2.757-0.717,5.739-1.33,8.896-1.828c0.062,0.184,0.133,0.354,0.196,0.535c0.158,0.449,0.32,0.891,0.488,1.324
		c0.118,0.307,0.237,0.609,0.361,0.906c0.176,0.426,0.357,0.842,0.544,1.252c0.127,0.281,0.254,0.564,0.386,0.84
		c0.201,0.416,0.41,0.818,0.62,1.217c0.13,0.246,0.255,0.496,0.389,0.734c0.252,0.453,0.516,0.887,0.781,1.314
		c0.101,0.164,0.196,0.336,0.3,0.496c0.371,0.576,0.754,1.129,1.147,1.658c0.103,0.139,0.212,0.262,0.316,0.398
		c0.297,0.383,0.596,0.76,0.903,1.115c0.158,0.184,0.321,0.35,0.481,0.525c0.265,0.287,0.528,0.572,0.8,0.84
		c0.181,0.178,0.365,0.344,0.549,0.514c0.261,0.238,0.523,0.473,0.789,0.693c0.089,0.074,0.174,0.16,0.263,0.23
		C28.123,93.08,21.733,88.508,17.332,82.406z M43.574,96.363c-0.03-0.004-0.061-0.002-0.091-0.006
		c-0.164-0.018-0.327-0.051-0.491-0.078c-0.241-0.037-0.482-0.076-0.723-0.131c-0.174-0.039-0.347-0.092-0.52-0.141
		c-0.227-0.063-0.453-0.127-0.678-0.205c-0.177-0.061-0.352-0.131-0.526-0.199c-0.219-0.088-0.437-0.18-0.652-0.279
		c-0.175-0.082-0.349-0.168-0.521-0.258c-0.214-0.111-0.426-0.229-0.638-0.354c-0.17-0.1-0.339-0.201-0.507-0.311
		c-0.212-0.137-0.421-0.281-0.63-0.432c-0.162-0.115-0.325-0.23-0.485-0.355c-0.213-0.164-0.422-0.342-0.631-0.52
		c-0.15-0.129-0.303-0.252-0.452-0.389c-0.222-0.201-0.438-0.42-0.656-0.637c-0.13-0.129-0.263-0.254-0.392-0.389
		c-0.271-0.285-0.535-0.59-0.797-0.898c-0.07-0.082-0.144-0.158-0.213-0.242c-0.329-0.398-0.65-0.814-0.965-1.25
		c-0.099-0.135-0.192-0.283-0.289-0.422c-0.215-0.309-0.428-0.617-0.635-0.941c-0.119-0.188-0.232-0.383-0.349-0.574
		c-0.179-0.295-0.356-0.59-0.528-0.896c-0.121-0.215-0.238-0.438-0.355-0.658c-0.16-0.301-0.318-0.602-0.473-0.912
		c-0.117-0.236-0.231-0.48-0.345-0.725c-0.146-0.311-0.289-0.625-0.429-0.945c-0.111-0.258-0.222-0.518-0.329-0.781
		c-0.132-0.32-0.261-0.648-0.387-0.979c-0.104-0.277-0.209-0.555-0.311-0.838c-0.041-0.115-0.079-0.236-0.119-0.352
		c0.637-0.088,1.274-0.172,1.916-0.248c0.464-0.057,0.925-0.117,1.392-0.168c1.13-0.121,2.269-0.223,3.412-0.311
		c0.228-0.018,0.452-0.043,0.68-0.061c1.365-0.098,2.741-0.17,4.122-0.223c0.429-0.018,0.86-0.02,1.29-0.031
		c0.766-0.021,1.534-0.035,2.304-0.043L43.574,96.363L43.574,96.363z M43.574,76.969c-0.872,0.008-1.74,0.037-2.608,0.063
		c-0.335,0.01-0.672,0.012-1.007,0.025c-1.415,0.053-2.823,0.127-4.224,0.229c-0.271,0.02-0.539,0.049-0.811,0.07
		c-1.117,0.088-2.229,0.186-3.333,0.303c-0.474,0.051-0.941,0.111-1.413,0.168c-0.602,0.072-1.208,0.135-1.806,0.215
		c0.088-0.082,0.185-0.174,0.277-0.262c0.113-0.105,0.225-0.211,0.345-0.326c0.092-0.086,0.188-0.18,0.282-0.271
		c0.132-0.129,0.265-0.258,0.402-0.395c0.1-0.098,0.199-0.199,0.301-0.301c0.141-0.143,0.282-0.285,0.428-0.436
		c0.104-0.105,0.206-0.213,0.312-0.322c0.15-0.158,0.301-0.318,0.453-0.482c0.104-0.109,0.206-0.221,0.31-0.334
		c0.159-0.174,0.317-0.352,0.477-0.531c0.098-0.111,0.195-0.221,0.293-0.334c0.178-0.205,0.354-0.416,0.529-0.627
		c0.077-0.092,0.154-0.184,0.231-0.277c0.249-0.307,0.494-0.617,0.732-0.932c0.037-0.051,0.072-0.1,0.109-0.15
		c0.198-0.266,0.393-0.533,0.58-0.805c0.076-0.109,0.146-0.221,0.221-0.33c0.143-0.213,0.282-0.426,0.416-0.641
		c0.078-0.127,0.151-0.254,0.227-0.381c0.118-0.201,0.232-0.4,0.34-0.6c0.072-0.135,0.14-0.268,0.207-0.4
		c0.099-0.195,0.19-0.391,0.277-0.586c0.06-0.133,0.117-0.266,0.171-0.398c0.08-0.199,0.148-0.395,0.215-0.592
		c0.042-0.125,0.087-0.252,0.123-0.375c0.062-0.213,0.107-0.424,0.149-0.633c0.021-0.104,0.05-0.209,0.066-0.313
		c0.049-0.311,0.078-0.615,0.078-0.914c0-0.416-0.027-0.838-0.081-1.264h6.73v13.139H43.574z M43.574,61.631h-7.245
		c-0.001-0.002-0.002-0.006-0.004-0.008c-0.034-0.1-0.076-0.193-0.113-0.291c-0.066-0.174-0.132-0.35-0.207-0.518
		c-0.034-0.078-0.074-0.152-0.111-0.229c-0.088-0.188-0.178-0.373-0.276-0.555c-0.025-0.047-0.054-0.092-0.08-0.137
		c-0.119-0.211-0.243-0.418-0.376-0.619c-0.008-0.012-0.016-0.021-0.023-0.033c-1.879-2.826-5.048-4.645-8.583-4.66
		c-0.05,0-0.099-0.006-0.148-0.006c-0.025,0-0.053,0.002-0.079,0.004c-0.033,0-0.066-0.004-0.101-0.002
		c0.035-0.246,0.064-0.494,0.103-0.738c0.034-0.217,0.068-0.436,0.104-0.652c0.105-0.627,0.221-1.248,0.347-1.863
		c0.022-0.109,0.042-0.221,0.064-0.328c0.153-0.723,0.322-1.434,0.503-2.137c0.044-0.17,0.093-0.338,0.138-0.506
		c0.093-0.342,0.193-0.678,0.292-1.014c0.789,0.111,1.59,0.199,2.388,0.293c0.409,0.049,0.813,0.107,1.226,0.152
		c1.398,0.152,2.808,0.283,4.227,0.385c0.062,0.006,0.124,0.008,0.186,0.012c1.354,0.096,2.715,0.17,4.081,0.221
		c0.441,0.018,0.886,0.021,1.328,0.033c0.787,0.021,1.572,0.051,2.362,0.059v13.137H43.574z M43.574,46.279
		c-0.771-0.008-1.539-0.021-2.306-0.041c-0.429-0.014-0.858-0.016-1.286-0.033c-1.38-0.051-2.755-0.125-4.12-0.223
		c-0.23-0.018-0.457-0.043-0.687-0.061c-1.142-0.088-2.279-0.189-3.407-0.311c-0.466-0.051-0.925-0.111-1.388-0.168
		c-0.644-0.076-1.283-0.16-1.921-0.248c0.046-0.133,0.089-0.268,0.136-0.398c0.089-0.246,0.18-0.49,0.271-0.732
		c0.139-0.365,0.28-0.727,0.426-1.08c0.098-0.236,0.196-0.471,0.297-0.703c0.149-0.346,0.304-0.684,0.461-1.02
		c0.104-0.223,0.209-0.445,0.316-0.662c0.164-0.332,0.334-0.654,0.505-0.975c0.107-0.201,0.214-0.406,0.324-0.602
		c0.186-0.33,0.376-0.648,0.568-0.963c0.104-0.17,0.204-0.346,0.31-0.51c0.227-0.355,0.46-0.697,0.695-1.031
		c0.077-0.111,0.151-0.229,0.229-0.336c0.319-0.441,0.646-0.865,0.979-1.27c0.03-0.037,0.063-0.07,0.094-0.107
		c0.301-0.359,0.606-0.705,0.917-1.033c0.11-0.115,0.225-0.221,0.337-0.334c0.235-0.236,0.471-0.473,0.712-0.691
		c0.136-0.123,0.274-0.236,0.412-0.354c0.223-0.191,0.445-0.379,0.672-0.555c0.149-0.115,0.301-0.223,0.452-0.33
		c0.22-0.158,0.44-0.313,0.664-0.457c0.158-0.102,0.318-0.197,0.479-0.291c0.221-0.131,0.444-0.256,0.668-0.371
		c0.164-0.086,0.329-0.168,0.494-0.244c0.225-0.105,0.452-0.201,0.68-0.291c0.168-0.066,0.335-0.133,0.504-0.191
		c0.231-0.08,0.464-0.148,0.697-0.213c0.168-0.047,0.335-0.096,0.504-0.135c0.243-0.057,0.488-0.094,0.733-0.133
		c0.161-0.025,0.321-0.059,0.483-0.078c0.031-0.002,0.063-0.002,0.094-0.004v17.179H43.574z M45.774,29.105
		c0.055,0.006,0.109,0.004,0.163,0.01c0.134,0.018,0.267,0.043,0.399,0.063c0.292,0.047,0.582,0.102,0.872,0.172
		c0.148,0.035,0.297,0.074,0.444,0.115c0.288,0.082,0.575,0.18,0.861,0.285c0.131,0.047,0.262,0.092,0.393,0.145
		c0.041,0.018,0.082,0.039,0.123,0.057c-1.409,2.564-2.215,5.504-2.215,8.631c0,2.361,0.98,4.986,2.47,7.619
		c-0.088,0.004-0.175,0.006-0.262,0.01c-0.353,0.014-0.7,0.025-1.043,0.035c-0.179,0.006-0.356,0.01-0.533,0.016
		c-0.32,0.008-0.636,0.014-0.948,0.02c-0.165,0.002-0.33,0.006-0.492,0.008c-0.078,0-0.154,0-0.232,0.002V29.105z M45.774,48.492
		c0.107,0,0.219-0.004,0.326-0.004c0.1-0.002,0.199-0.004,0.299-0.006c0.385-0.006,0.774-0.014,1.17-0.023
		c0.137-0.004,0.274-0.008,0.413-0.012c0.386-0.012,0.777-0.023,1.175-0.039c0.131-0.006,0.26-0.01,0.392-0.016
		c0.345-0.014,0.698-0.029,1.053-0.047c3.671,5.543,9.063,10.789,11.79,13.285H45.774V48.492z M45.774,63.832h17.901
		c-0.004,0.188-0.005,0.375-0.011,0.561c-0.008,0.287-0.018,0.574-0.029,0.861c-0.017,0.393-0.039,0.781-0.063,1.172
		c-0.018,0.275-0.034,0.553-0.055,0.826c-0.032,0.418-0.072,0.834-0.113,1.248c-0.024,0.242-0.045,0.486-0.071,0.729
		c-0.061,0.537-0.131,1.07-0.205,1.602c-0.017,0.115-0.029,0.232-0.046,0.348c-0.094,0.639-0.2,1.271-0.315,1.9
		c-0.039,0.213-0.084,0.422-0.126,0.635c-0.082,0.42-0.166,0.838-0.258,1.252c-0.054,0.244-0.113,0.484-0.17,0.727
		c-0.09,0.377-0.181,0.752-0.278,1.123c-0.064,0.248-0.133,0.492-0.201,0.738c-0.054,0.191-0.111,0.381-0.167,0.57
		c-0.784-0.109-1.579-0.197-2.372-0.293c-0.415-0.049-0.825-0.107-1.242-0.152c-1.397-0.152-2.805-0.283-4.223-0.385
		c-0.065-0.006-0.131-0.008-0.195-0.012c-1.35-0.096-2.708-0.17-4.072-0.221c-0.44-0.018-0.884-0.021-1.325-0.033
		c-0.787-0.021-1.572-0.051-2.362-0.059V63.832H45.774z M52.875,93.086c-0.214,0.184-0.429,0.365-0.647,0.533
		c-0.155,0.121-0.313,0.232-0.471,0.346c-0.213,0.152-0.428,0.303-0.645,0.441c-0.163,0.105-0.328,0.205-0.493,0.303
		c-0.216,0.127-0.434,0.248-0.652,0.361c-0.169,0.088-0.337,0.172-0.507,0.25c-0.222,0.104-0.444,0.197-0.668,0.285
		c-0.17,0.068-0.341,0.137-0.513,0.195c-0.229,0.08-0.46,0.146-0.69,0.211c-0.169,0.047-0.338,0.098-0.509,0.137
		c-0.243,0.055-0.488,0.094-0.733,0.133c-0.161,0.025-0.32,0.059-0.481,0.076c-0.03,0.004-0.061,0.002-0.091,0.006v-17.18
		c0.771,0.008,1.539,0.021,2.306,0.043c0.428,0.012,0.857,0.014,1.284,0.031c1.381,0.053,2.756,0.125,4.121,0.223
		c0.224,0.018,0.442,0.041,0.665,0.059c1.148,0.09,2.292,0.191,3.427,0.313c0.463,0.051,0.92,0.111,1.38,0.166
		c0.645,0.078,1.285,0.162,1.924,0.25c-0.044,0.125-0.085,0.256-0.129,0.381c-0.094,0.26-0.19,0.518-0.287,0.773
		c-0.133,0.352-0.27,0.697-0.409,1.037c-0.102,0.25-0.205,0.496-0.312,0.74c-0.145,0.334-0.293,0.66-0.444,0.982
		c-0.109,0.232-0.219,0.467-0.331,0.695c-0.159,0.32-0.322,0.631-0.486,0.939c-0.114,0.213-0.226,0.428-0.342,0.635
		c-0.178,0.316-0.36,0.619-0.544,0.922c-0.111,0.184-0.221,0.371-0.334,0.549c-0.215,0.338-0.436,0.658-0.658,0.977
		c-0.089,0.129-0.175,0.264-0.266,0.389c-0.316,0.438-0.639,0.857-0.97,1.258c-0.057,0.068-0.116,0.129-0.173,0.197
		c-0.275,0.326-0.554,0.643-0.837,0.943c-0.122,0.129-0.248,0.244-0.371,0.369c-0.224,0.225-0.448,0.447-0.677,0.656
		C53.168,92.842,53.021,92.961,52.875,93.086z M53.799,95.174c0.086-0.07,0.168-0.152,0.254-0.225
		c0.273-0.227,0.543-0.467,0.811-0.713c0.178-0.164,0.355-0.324,0.53-0.496c0.278-0.273,0.549-0.564,0.819-0.859
		c0.154-0.17,0.312-0.33,0.464-0.506c0.317-0.367,0.625-0.754,0.931-1.15c0.096-0.123,0.195-0.238,0.29-0.365
		c0.396-0.531,0.78-1.086,1.153-1.666c0.093-0.145,0.18-0.301,0.271-0.447c0.276-0.445,0.549-0.895,0.811-1.365
		c0.128-0.229,0.248-0.471,0.372-0.705c0.216-0.408,0.43-0.82,0.636-1.246c0.129-0.27,0.253-0.549,0.379-0.824
		c0.188-0.414,0.371-0.834,0.549-1.264c0.123-0.297,0.241-0.598,0.359-0.902c0.168-0.434,0.329-0.875,0.487-1.324
		c0.063-0.182,0.135-0.352,0.197-0.537c3.166,0.5,6.151,1.113,8.904,1.83C67.612,88.508,61.221,93.084,53.799,95.174z
		 M73.312,80.477c-2.936-0.795-6.136-1.473-9.539-2.021c0.042-0.145,0.077-0.295,0.118-0.441c0.064-0.232,0.126-0.469,0.188-0.705
		c0.104-0.396,0.202-0.797,0.297-1.199c0.059-0.248,0.116-0.494,0.171-0.744c0.091-0.41,0.174-0.824,0.256-1.238
		c0.047-0.242,0.097-0.484,0.141-0.727c0.088-0.482,0.167-0.971,0.242-1.459c0.028-0.176,0.06-0.352,0.086-0.529
		c0.096-0.66,0.182-1.326,0.255-1.994c0.022-0.203,0.039-0.406,0.06-0.609c0.047-0.475,0.093-0.951,0.13-1.43
		c0.021-0.271,0.035-0.543,0.053-0.814c0.025-0.414,0.05-0.828,0.067-1.244c0.013-0.295,0.021-0.59,0.029-0.885
		c0.006-0.201,0.017-0.402,0.021-0.604h12.469C78.157,69.924,76.337,75.611,73.312,80.477z M78.354,61.631H67.201
		c2.16-1.979,5.993-5.684,9.321-9.898C77.627,54.924,78.245,58.24,78.354,61.631z M64.797,60.836
		c-3.169-2.834-15.781-14.596-15.781-22.254c0-3.033,0.875-5.857,2.364-8.266c0.071-0.063,0.137-0.137,0.191-0.221
		c0.192-0.295,0.4-0.58,0.612-0.859c0.07-0.094,0.118-0.197,0.155-0.303c2.889-3.721,7.393-6.129,12.458-6.129
		c8.7,0,15.778,7.078,15.778,15.777C80.575,46.24,67.964,58.002,64.797,60.836z"/>
	<path fill="#3498db" style="stroke:#3498db;stroke-width:1.5;stroke-miterlimit:10;" d="M64.797,29.107c-5.229,0-9.484,4.25-9.484,9.475
		c0,5.227,4.255,9.479,9.484,9.479c5.225,0,9.475-4.252,9.475-9.479C74.271,33.357,70.021,29.107,64.797,29.107z M64.797,45.861
		c-4.017,0-7.284-3.266-7.284-7.279c0-4.012,3.268-7.275,7.284-7.275c4.011,0,7.274,3.264,7.274,7.275
		C72.071,42.596,68.808,45.861,64.797,45.861z"/>
	<path fill="#3498db" style="stroke:#3498db;stroke-miterlimit:10;" d="M27.645,24.441c0-1.998-1.625-3.622-3.621-3.622
		c-1.999,0-3.625,1.624-3.625,3.622s1.626,3.623,3.625,3.623C26.02,28.064,27.645,26.439,27.645,24.441z M22.599,24.441
		c0-0.785,0.639-1.422,1.425-1.422c0.783,0,1.421,0.637,1.421,1.422s-0.638,1.424-1.421,1.424
		C23.237,25.865,22.599,25.227,22.599,24.441z"/>
</g>
</svg>
