<?xml version="1.0" encoding="iso-8859-1"?>
<!-- Generator: Adobe Illustrator 22.0.0, SVG Export Plug-In . SVG Version: 6.00 Build 0)  -->
<svg version="1.1"
	 id="&#x421;&#x43B;&#x43E;&#x439;_1" xmlns:cc="http://creativecommons.org/ns#" xmlns:dc="http://purl.org/dc/elements/1.1/" xmlns:inkscape="http://www.inkscape.org/namespaces/inkscape" xmlns:rdf="http://www.w3.org/1999/02/22-rdf-syntax-ns#" xmlns:sodipodi="http://sodipodi.sourceforge.net/DTD/sodipodi-0.dtd" xmlns:svg="http://www.w3.org/2000/svg"
	 xmlns="http://www.w3.org/2000/svg" xmlns:xlink="http://www.w3.org/1999/xlink" x="0px" y="0px" viewBox="0 0 100 125"
	 style="enable-background:new 0 0 100 125;" xml:space="preserve">
<g fill="#3498db" transform="translate(0,-952.36218)">
	<path d="M17,975.362c-6.596,0-12,5.404-12,12c0,0.948,0,58.375,0,58.375c0,5.26,4.306,9.625,9.563,9.625H92c1.571,0,3-1.429,3-3
		v-65c0-1.571-1.429-3-3-3h-7v-6c0-1.571-1.429-3-3-3H17z M17,981.362h62v3H17c-0.104-0.005-0.208-0.005-0.313,0
		c-1.571,0.082-2.926,1.585-2.844,3.156s1.585,2.926,3.156,2.844h72v3H17c-3.376,0-6-2.624-6-6S13.624,981.362,17,981.362z
		 M11,997.706c1.77,1.032,3.816,1.656,6,1.656h72v13H68c-6.596,0-12,5.404-12,12s5.404,12,12,12h21v13H14.563
		c-2.015,0-3.563-1.564-3.563-3.625V997.706z M68,1018.362h21v12H68c-3.376,0-6-2.624-6-6C62,1020.986,64.624,1018.362,68,1018.362z
		 M68,1021.362c-1.657,0-3,1.343-3,3s1.343,3,3,3s3-1.343,3-3S69.657,1021.362,68,1021.362z"/>
</g>
</svg>
