<?xml version="1.0" encoding="utf-8"?>
<!-- Generator: Adobe Illustrator 22.0.0, SVG Export Plug-In . SVG Version: 6.00 Build 0)  -->
<svg version="1.1" id="Слой_1" xmlns="http://www.w3.org/2000/svg" xmlns:xlink="http://www.w3.org/1999/xlink" x="0px" y="0px"
	 viewBox="0 0 100 125" style="enable-background:new 0 0 100 125;" xml:space="preserve">
<style type="text/css">
	.st0{fill:none;stroke:#000000;stroke-miterlimit:10;}
</style>
<g>
	<polygon class="st0" points="98.7,34.7 91,27 73.1,27 77.5,34.7 	"/>
	<polygon class="st0" points="62.8,27 44.9,27 37.2,34.7 58.4,34.7 	"/>
	<polygon class="st0" points="0,59.1 0,92.4 23.1,92.4 23.1,66.7 23.1,59.1 7.7,59.1 	"/>
	<path class="st0" d="M78.2,37.3v17.2l-10.3-4.4l-10.3,4.4V37.3H35.9V57c2-1.1,4-2.2,6-3.4c0.4-0.3,1.6-0.8,2.9-0.8
		c1.4,0,2.5,0.6,3.1,1.8c1.6,3.2-0.7,6.2-2.8,8.3h8.1c2.5,0,4.5,2,4.5,4.5c0,1.3-0.5,2.4-1.4,3.2c0.8,0.8,1.4,1.9,1.4,3.2
		c0,1.3-0.5,2.4-1.4,3.2c0.8,0.8,1.4,1.9,1.4,3.2c0,1.3-0.5,2.4-1.4,3.2c0.8,0.8,1.4,2,1.4,3.2c0,2.5-2,4.5-4.5,4.5H35.9v10.3H100
		V37.3H78.2z M96.2,97.5H71.9c-0.7,0-1.3-0.6-1.3-1.3c0-0.7,0.6-1.3,1.3-1.3h3.8V81.4l-2.3,2.3c-0.3,0.3-0.6,0.4-0.9,0.4
		s-0.7-0.1-0.9-0.4c-0.5-0.5-0.5-1.3,0-1.8l4.5-4.5c0.5-0.5,1.3-0.5,1.8,0l4.5,4.5c0.5,0.5,0.5,1.3,0,1.8c-0.3,0.3-0.6,0.4-0.9,0.4
		s-0.7-0.1-0.9-0.4l-2.3-2.3v13.6h11.5V81.4l-2.3,2.3c-0.3,0.3-0.6,0.4-0.9,0.4s-0.7-0.1-0.9-0.4c-0.5-0.5-0.5-1.3,0-1.8l4.5-4.5
		c0.3-0.3,0.6-0.4,0.9-0.4c0.3,0,0.7,0.1,0.9,0.4l4.5,4.5c0.5,0.5,0.5,1.3,0,1.8c-0.3,0.3-0.6,0.4-0.9,0.4c-0.3,0-0.7-0.1-0.9-0.4
		l-2.3-2.3v13.6h3.8c0.7,0,1.3,0.6,1.3,1.3C97.4,96.9,96.9,97.5,96.2,97.5z"/>
	<path class="st0" d="M33.3,46.2c-0.9,0.3-1.7,0.6-2.6,0.8v12.6c0.8-0.4,1.7-0.8,2.6-1.2V46.2z"/>
	<path class="st0" d="M55.1,86.6c0-1.1-0.9-1.9-1.9-1.9v-0.1c-0.1,0.1-0.3,0.1-0.5,0.1H41.7c-0.7,0-1.3-0.6-1.3-1.3s0.6-1.3,1.3-1.3
		h11.1c0.2,0,0.3,0,0.5,0.1v-0.1c1.1,0,1.9-0.9,1.9-1.9c0-1.1-0.9-1.9-1.9-1.9c0,0,0,0,0,0H42.1c-0.7,0-1.3-0.6-1.3-1.3
		s0.6-1.3,1.3-1.3h11.1v0c1.1,0,1.9-0.9,1.9-1.9c0-1.1-0.9-1.9-1.9-1.9H42.1c-0.7,0-1.3-0.6-1.3-1.3s0.6-1.3,1.3-1.3h11.1
		c1.1,0,1.9-0.9,1.9-1.9s-0.9-1.9-1.9-1.9H38.7l2.2-2.2c0.2-0.2,0.4-0.4,0.8-0.7c1.6-1.3,5.2-4.4,4-6.8c-0.1-0.2-0.2-0.4-0.8-0.4
		c-0.5,0-1.1,0.2-1.7,0.5C36.6,59.7,30.8,63,25.6,64v24.5h27.6C54.3,88.5,55.1,87.7,55.1,86.6z"/>
	<path class="st0" d="M25.6,61.4c0.8-0.2,1.7-0.5,2.6-0.8V43.7H7.7v12.8h17.9v2.6V61.4z"/>
</g>
</svg>
