<?xml version="1.0" encoding="utf-8"?>
<!-- Generator: Adobe Illustrator 22.0.0, SVG Export Plug-In . SVG Version: 6.00 Build 0)  -->
<svg version="1.1" id="Слой_1" xmlns="http://www.w3.org/2000/svg" xmlns:xlink="http://www.w3.org/1999/xlink" x="0px" y="0px"
	 viewBox="0 0 100 125" style="enable-background:new 0 0 100 125;" xml:space="preserve">
<title>64 all</title>
<path fill="#3498db" d="M81.4,38.1L81.4,38.1c-8.4-8.3-21.9-8.3-30.4,0c-0.4,0.4-0.7,0.7-1,1.1c-0.3-0.4-0.7-0.8-1-1.1c-8.4-8.3-21.9-8.3-30.4,0
	c-8.3,8.2-8.4,21.6-0.2,30c0.1,0.1,0.1,0.1,0.2,0.2L50,98.1l31.4-29.9c8.3-8.2,8.4-21.6,0.2-30C81.5,38.2,81.5,38.2,81.4,38.1
	L81.4,38.1z M78.6,65.4L50,92.6L21.4,65.4c-6.8-6.7-6.8-17.5-0.2-24.3c0.1-0.1,0.1-0.1,0.2-0.2c6.9-6.8,18-6.8,24.8,0.1
	c0.8,0.8,1.5,1.7,2.1,2.6l1.7,2.5l1.7-2.5c0.6-1,1.4-1.9,2.2-2.7c6.9-6.8,17.9-6.8,24.7,0l0,0c6.7,6.7,6.8,17.5,0.1,24.3
	C78.7,65.3,78.7,65.3,78.6,65.4L78.6,65.4z"/>
</svg>
