<?xml version="1.0" encoding="utf-8"?>
<!-- Generator: Adobe Illustrator 22.0.0, SVG Export Plug-In . SVG Version: 6.00 Build 0)  -->
<svg version="1.1" id="Слой_1" xmlns="http://www.w3.org/2000/svg" xmlns:xlink="http://www.w3.org/1999/xlink" x="0px" y="0px"
	 viewBox="0 0 30 19.9" style="enable-background:new 0 0 30 19.9;" xml:space="preserve">
<path d="M8,2.4C8.1,2.2,8.3,2,8.5,2h14.3c0.2,0,0.3,0.2,0.3,0.4l-2.1,9.8c0,0.2-0.2,0.4-0.4,0.4H6.2c-0.2,0-0.3-0.2-0.3-0.4L8,2.4z
	 M11.6,13.7c0-0.2,0.2-0.4,0.4-0.4h8.3c0.2,0,0.3,0.2,0.3,0.4l-0.2,0.9c0,0.2-0.2,0.4-0.4,0.4h-8.3c-0.2,0-0.3-0.2-0.3-0.4
	L11.6,13.7L11.6,13.7z M24,13.6c-1.2,0-2.4,1-2.6,2.2c-0.3,1.2,0.5,2.2,1.7,2.2c1.2,0,2.4-1,2.6-2.2C26,14.5,25.2,13.6,24,13.6
	L24,13.6z M8.7,13.6c-1.2,0-2.4,1-2.6,2.2c-0.3,1.2,0.5,2.2,1.7,2.2s2.4-1,2.6-2.2C10.6,14.5,9.9,13.6,8.7,13.6L8.7,13.6z M23.4,5
	l-1.5,7.1c0,0.2,0.1,0.4,0.3,0.4h2.3c2.7,0,2.4,2.4,2.5,2.8c0,0.2,0.2,0.3,0.4,0.3h1.1c0.2,0,0.4-0.2,0.4-0.4l1-4.8
	c0-0.2,0-0.5,0-0.7L28.1,5c-0.1-0.2-0.3-0.3-0.5-0.3l0,0h-3.8C23.6,4.6,23.4,4.8,23.4,5z M24.4,6c0-0.2,0.2-0.3,0.4-0.3h2.2
	c0.2,0,0.2,0.1,0.3,0.3l1,2.6c0.1,0.3-0.1,0.5-0.3,0.5H24c-0.2,0-0.3-0.1-0.2-0.3L24.4,6z"/>
<path d="M6.7,2.9c-0.1,0.5-0.6,0.9-1,0.9h-5C0.2,3.7-0.1,3.3,0,2.9C0.1,2.4,0.6,2,1.1,2h5C6.5,2,6.8,2.4,6.7,2.9L6.7,2.9z"/>
<path d="M6,6.3C5.9,6.8,5.4,7.1,5,7.1H1.3c-0.5,0-0.8-0.4-0.7-0.9c0.1-0.5,0.6-0.9,1-0.9h3.6C5.8,5.4,6.1,5.8,6,6.3L6,6.3z"/>
<path d="M5.3,9.7L5.3,9.7c-0.1,0.5-0.6,0.9-1,0.9H2.1c-0.5,0-0.8-0.4-0.7-0.9l0,0c0.1-0.5,0.6-0.9,1-0.9h2.1
	C5.1,8.9,5.4,9.3,5.3,9.7z"/>
</svg>
