<?xml version="1.0" encoding="iso-8859-1"?>
<!-- Generator: Adobe Illustrator 22.0.0, SVG Export Plug-In . SVG Version: 6.00 Build 0)  -->
<svg version="1.1" id="Capa_1" xmlns="http://www.w3.org/2000/svg" xmlns:xlink="http://www.w3.org/1999/xlink" x="0px" y="0px"
	 viewBox="-49 141 512 512" style="enable-background:new -49 141 512 512;" xml:space="preserve">
<g fill="#3498db">
	<path d="M90.558,617.5c-28.325,0-53.271-18.438-60.662-44.84c-6.088-21.744-6.695-53.276,5.671-74.705
		c7.284-12.622,18.036-20.832,31.956-24.401c3.826-0.979,7.685-1.54,11.498-1.671c-0.292-3.896-0.44-7.787-0.44-11.602
		c0-5.082,0.254-10.219,0.756-15.3c-23.805-4.396-41.467-24.829-41.467-48.468c0-27.207,22.905-49.34,51.06-49.34
		c1.292,0,2.6,0.05,3.912,0.148c-4.769-12.779-7.184-26.173-7.184-39.876c0-9.299,1.125-18.546,3.346-27.522
		c-19.345-9.045-31.727-28.045-31.727-48.983c0-30.018,25.295-54.44,56.388-54.44c18.109,0,35.011,8.353,45.627,22.445
		c15.559-6.572,32.707-10.039,49.729-10.039c17.021,0,34.169,3.466,49.729,10.039c10.616-14.092,27.518-22.445,45.626-22.445
		c31.092,0,56.387,24.421,56.387,54.439c0,20.938-12.381,39.938-31.725,48.982c2.22,8.972,3.345,18.22,3.345,27.523
		c0,13.702-2.415,27.096-7.185,39.876c1.313-0.098,2.619-0.148,3.912-0.148c28.154,0,51.06,22.134,51.06,49.34
		c0,23.643-17.662,44.074-41.467,48.468c0.502,5.077,0.756,10.213,0.756,15.3c0,3.767-0.144,7.605-0.428,11.444
		c2.485,0.28,4.979,0.74,7.444,1.372c13.923,3.57,24.674,11.78,31.956,24.402c12.368,21.432,11.759,52.961,5.668,74.702
		c-7.391,26.401-32.336,44.841-60.661,44.841c-5.44,0-10.888-0.689-16.19-2.05c-16.438-4.216-30.082-14.364-38.481-28.607
		c-18.378,10.307-38.979,15.742-59.748,15.742c-21.766,0-43.206-5.911-62.182-17.12c-10.283,18.836-29.992,31.151-52.085,32.354
		l-0.543,0.035l-0.146,0.003C92.856,617.466,91.691,617.5,90.558,617.5z M80.751,493.888c-2.532,0-5.141,0.34-7.753,1.011
		c-8.075,2.069-14.076,6.672-18.345,14.07c-9.116,15.799-8.224,41.01-3.537,57.749c4.74,16.926,20.96,28.747,39.444,28.746
		c0.901,0,1.804-0.028,2.685-0.085l0.092-0.005c2.667-0.175,5.338-0.602,7.938-1.269c10.843-2.779,19.78-9.449,25.166-18.781
		c5.021-8.701,6.309-18.771,3.625-28.354c-4.911-17.54-19.945-45.844-41.238-51.93c-0.081-0.019-0.229-0.063-0.377-0.109
		C85.921,494.24,83.324,493.888,80.751,493.888z M333.248,493.432c-1.513,0-3.046,0.123-4.557,0.365
		c-0.048,0.01-0.166,0.031-0.284,0.05c-22.728,3.845-39.346,34.345-44.476,52.666c-2.683,9.584-1.395,19.654,3.626,28.354
		c5.385,9.331,14.322,16.001,25.166,18.781c3.511,0.901,7.116,1.358,10.717,1.358c18.484,0,34.703-11.821,39.441-28.747
		c4.688-16.739,5.58-41.95-3.535-57.747c-4.269-7.396-10.27-11.999-18.346-14.07C338.389,493.771,335.78,493.432,333.248,493.432z
		 M153.16,562.958c16.824,11.215,36.106,17.135,55.86,17.135c18.244,0,36.249-5.114,52.18-14.808
		c-1.277-8.257-0.77-16.563,1.513-24.714c7.216-25.771,27.103-57.194,53.983-66.402c0.482-4.611,0.727-9.276,0.727-13.89
		c0-7.919-0.709-15.854-2.107-23.586c-0.609-3.371,0.353-6.767,2.64-9.318c2.086-2.327,5.074-3.661,8.197-3.661
		c0.26,0,0.521,0.009,0.781,0.027c0.717,0.051,1.45,0.076,2.177,0.076c16.004,0,29.024-12.249,29.024-27.306
		c0-15.056-13.021-27.305-29.024-27.305c-7.591,0-14.757,2.739-20.203,7.718c-8.818,11.676-19.611,21.595-32.109,29.516
		c7.455,12.352,11.382,26.434,11.382,40.892c0,43.648-35.51,79.158-79.158,79.158s-79.159-35.51-79.159-79.158
		c0-14.459,3.928-28.542,11.382-40.892c-12.498-7.921-23.291-17.84-32.11-29.516c-5.447-4.979-12.612-7.718-20.202-7.718
		c-16.004,0-29.024,12.249-29.024,27.305c0,15.057,13.021,27.306,29.024,27.306c0.726,0,1.458-0.025,2.178-0.076
		c0.258-0.019,0.519-0.027,0.778-0.027c3.122,0,6.109,1.334,8.196,3.66c2.288,2.551,3.25,5.947,2.64,9.317
		c-1.398,7.74-2.107,15.677-2.107,23.589c0,5.323,0.326,10.703,0.968,16.014c24.845,10.875,42.82,40.157,49.701,64.736
		C153.304,548.237,153.933,555.605,153.16,562.958z M209.021,469.504c6.075,0,11.018,4.942,11.018,11.018v22.857
		c26.479-5.203,46.105-28.8,46.105-56.046c0-10.948-3.104-21.536-8.999-30.748c-15.254,6.238-31.433,9.399-48.125,9.399
		c-16.693,0-32.872-3.161-48.125-9.399c-5.894,9.213-8.998,19.8-8.998,30.748c0,27.245,19.626,50.842,46.106,56.046v-22.857
		C198.002,474.446,202.945,469.504,209.021,469.504z M220.038,403.377c50.857-5.274,90.309-46.92,90.309-95.932
		c0-10.32-1.707-20.486-5.075-30.218c-0.081-0.196-0.143-0.351-0.199-0.511c-2.151-6.1-4.96-12.021-8.345-17.592
		c-3.154-5.191-1.496-11.981,3.696-15.136c1.727-1.048,3.701-1.602,5.712-1.602c3.886,0,7.408,1.98,9.425,5.298
		c2.204,3.631,4.23,7.423,6.039,11.305c10.481-5.734,17.127-16.495,17.127-28.048c0-17.868-15.41-32.405-34.352-32.405
		c-13.572,0-25.905,7.568-31.419,19.281c-1.274,2.706-3.631,4.802-6.466,5.753c-1.13,0.38-2.31,0.572-3.503,0.572
		c-1.779,0-3.551-0.437-5.124-1.264c-14.867-7.809-31.758-11.937-48.844-11.937c-17.087,0-33.978,4.128-48.845,11.937
		c-1.575,0.827-3.347,1.263-5.125,1.263c-1.193,0-2.371-0.192-3.502-0.572c-2.835-0.951-5.191-3.048-6.465-5.753
		c-5.514-11.713-17.846-19.282-31.419-19.282c-18.941,0-34.352,14.537-34.352,32.405c0,14.821,10.617,27.731,25.819,31.396
		c3.026,0.73,5.613,2.717,7.099,5.451c1.486,2.734,1.745,5.986,0.71,8.922c-3.482,9.876-5.247,20.217-5.247,30.736
		c0,49.012,39.451,90.657,90.309,95.932v-58.87c-11.927-4.93-21.04-17.788-21.04-30.067c0-5.425,2.312-23.125,32.058-23.125
		s32.058,17.7,32.058,23.125c0,12.279-9.113,25.137-21.04,30.067V403.377z M199.014,314.812c0.317,3.726,5.2,9.872,10.007,9.872
		s9.688-6.146,10.006-9.872c-0.898-0.441-3.667-1.462-10.006-1.462C202.679,313.35,199.913,314.371,199.014,314.812z"/>
	<path d="M304.375,179c29.713,0,53.886,23.3,53.886,51.939c0,20.911-12.855,39.398-32.173,47.558
		c2.52,9.415,3.793,19.117,3.793,28.947c0,15.121-3.031,29.574-8.536,42.832c2.546-0.393,5.138-0.604,7.764-0.604
		c26.775,0,48.559,21.013,48.559,46.84c0,23.585-18.161,43.155-41.704,46.376c0.66,5.762,0.993,11.581,0.993,17.391
		c0,4.578-0.213,9.163-0.622,13.715c3.164,0.202,6.353,0.711,9.518,1.523c13.246,3.397,23.478,11.213,30.412,23.229
		c12.002,20.799,11.375,51.54,5.426,72.779c-7.09,25.326-31.045,43.015-58.254,43.015c-5.233,0-10.472-0.663-15.569-1.971
		c-15.976-4.097-29.199-14.02-37.232-27.94c-0.319-0.554-0.614-1.117-0.914-1.677c-18.583,10.929-39.368,16.674-60.704,16.674
		c-22.35,0-43.978-6.24-63.174-18.143c-9.288,19-28.923,32.166-51.229,33.38c-0.088,0.006-0.175,0.012-0.264,0.017
		c-0.075,0.004-0.15,0.011-0.225,0.014c-0.049,0.003-0.098,0.003-0.147,0.003c-1.14,0.063-2.281,0.101-3.422,0.101
		c-27.209,0-51.164-17.688-58.255-43.014c-5.946-21.24-6.574-51.981,5.429-72.781c6.935-12.018,17.166-19.833,30.412-23.229
		c4.198-1.076,8.438-1.622,12.606-1.622c0.33,0,0.658,0.01,0.987,0.017c-0.432-4.676-0.658-9.386-0.658-14.09
		c0-5.806,0.334-11.626,0.994-17.391c-23.54-3.224-41.704-22.792-41.704-46.376c0-25.828,21.784-46.84,48.56-46.84
		c2.626,0,5.218,0.211,7.763,0.604c-5.504-13.259-8.536-27.711-8.536-42.832c0-9.826,1.274-19.528,3.794-28.946
		c-19.318-8.16-32.175-26.647-32.175-47.559c0-28.64,24.174-51.94,53.888-51.94c18.114,0,34.878,8.821,44.779,23.035
		c15.775-6.973,33.098-10.628,50.577-10.628s34.802,3.656,50.577,10.628C269.498,187.821,286.262,179,304.375,179 M262.988,221.642
		c-1.367,0-2.728-0.329-3.961-0.977c-15.225-7.997-32.517-12.224-50.007-12.224c-17.489,0-34.782,4.226-50.007,12.224
		c-1.235,0.648-2.595,0.977-3.962,0.977c-0.912,0-1.826-0.146-2.707-0.442c-2.203-0.739-4.008-2.346-4.998-4.448
		c-5.924-12.585-19.144-20.717-33.681-20.717c-20.321,0-36.852,15.658-36.852,34.904c0,15.98,11.403,29.89,27.733,33.826
		c2.343,0.566,4.337,2.096,5.488,4.215c1.152,2.118,1.351,4.624,0.549,6.898c-3.577,10.145-5.389,20.766-5.389,31.567
		c0,51.855,42.029,94.523,95.309,98.668V342.78c-12.331-4.223-21.04-17.032-21.04-28.341c0-6.201,2.88-20.625,29.558-20.625
		s29.558,14.424,29.558,20.625c0,11.309-8.709,24.118-21.04,28.341v63.334c53.281-4.146,95.309-46.813,95.309-98.668
		c0-10.645-1.767-21.107-5.238-31.108c-0.061-0.148-0.124-0.295-0.178-0.448c-2.211-6.268-5.094-12.345-8.567-18.063
		c-2.443-4.02-1.163-9.26,2.858-11.702c1.382-0.839,2.907-1.239,4.414-1.239c2.877,0,5.684,1.458,7.288,4.096
		c2.617,4.31,4.946,8.796,6.969,13.404c12.551-5.72,20.834-17.829,20.834-31.446c0-19.246-16.532-34.904-36.852-34.904
		c-14.537,0-27.757,8.132-33.681,20.717c-0.99,2.102-2.796,3.709-4.998,4.448C264.814,221.496,263.9,221.642,262.988,221.642
		 M209.02,327.184c6.669,0,12.523-7.944,12.523-12.745c0-0.831,0-1.175-1.408-1.868c-1.306-0.642-4.486-1.721-11.115-1.721
		c-6.628,0-9.809,1.078-11.115,1.721c-1.408,0.693-1.408,1.037-1.408,1.868C196.497,319.241,202.35,327.184,209.02,327.184
		 M88.932,426.318c0.78,0,1.572-0.027,2.353-0.083c0.201-0.014,0.402-0.021,0.603-0.021c2.406,0,4.714,1.024,6.336,2.831
		c1.755,1.957,2.508,4.615,2.041,7.203c-1.425,7.887-2.147,15.972-2.147,24.033c0,5.945,0.395,11.897,1.169,17.757
		c25.936,10.542,43.393,41.52,49.593,63.667c2.08,7.428,2.6,15.041,1.62,22.471c17.553,12.062,37.688,18.418,58.521,18.418
		c19.372,0,38.24-5.549,54.925-16.068c-1.532-8.312-1.168-16.913,1.175-25.28c6.537-23.346,25.583-56.51,53.884-65.197
		c0.608-5.211,0.918-10.494,0.918-15.769c0-8.07-0.722-16.155-2.147-24.032c-0.468-2.588,0.286-5.246,2.041-7.203
		c1.621-1.807,3.929-2.831,6.336-2.831c0.2,0,0.402,0.007,0.603,0.021c0.782,0.054,1.575,0.083,2.355,0.083
		c17.382,0,31.524-13.371,31.524-29.806s-14.142-29.805-31.524-29.805c-8.316,0-16.134,3.031-22.063,8.533
		c-9.091,12.083-20.542,22.424-33.7,30.399c8.006,12.355,12.333,26.834,12.333,41.694c0,42.27-34.389,76.659-76.659,76.659
		s-76.659-34.389-76.659-76.659c0-14.86,4.327-29.339,12.333-41.694c-13.158-7.974-24.609-18.316-33.7-30.399
		c-5.929-5.502-13.747-8.533-22.062-8.533c-17.383,0-31.525,13.371-31.525,29.805C57.408,412.947,71.55,426.318,88.932,426.318
		 M209.019,423.484c-17.459,0-34.062-3.578-49.064-10.002c-6.837,9.913-10.558,21.715-10.558,33.852
		c0,29.984,22.251,54.858,51.106,59.005v-25.817c0-4.704,3.813-8.518,8.518-8.518c4.704,0,8.518,3.813,8.518,8.518v25.817
		c28.854-4.146,51.106-29.021,51.106-59.005c0-12.137-3.722-23.939-10.559-33.852C243.081,419.906,226.478,423.484,209.019,423.484
		 M323.44,597.507c19.601,0,36.81-12.572,41.849-30.573c4.824-17.228,5.699-43.249-3.778-59.671
		c-4.623-8.01-11.128-12.995-19.89-15.242c-2.816-0.722-5.634-1.089-8.375-1.089c-1.68,0-3.331,0.136-4.952,0.396
		c-0.092,0.018-0.185,0.034-0.278,0.049c-23.78,4.022-40.949,34.657-46.494,54.462c-2.865,10.236-1.491,20.989,3.869,30.278
		c5.723,9.918,15.209,17.005,26.71,19.953C315.82,597.024,319.634,597.507,323.44,597.507 M90.56,597.964
		c0.948,0,1.896-0.03,2.844-0.089c0.007-0.001,0.015-0.002,0.022-0.002c2.848-0.181,5.686-0.631,8.47-1.345
		c11.5-2.949,20.986-10.036,26.71-19.953c5.36-9.288,6.734-20.042,3.868-30.279c-5.266-18.81-21.016-47.389-42.959-53.66
		c-0.13-0.033-0.257-0.072-0.385-0.112c-2.703-0.738-5.498-1.137-8.379-1.137c-2.741,0-5.559,0.366-8.375,1.089
		c-8.761,2.247-15.266,7.233-19.889,15.242c-9.477,16.424-8.603,42.445-3.779,59.673C53.749,585.393,70.958,597.965,90.56,597.964
		 M304.375,174c-18.23,0-35.292,8.12-46.428,21.909c-15.39-6.226-32.218-9.502-48.928-9.502c-16.709,0-33.538,3.276-48.928,9.502
		C148.957,182.12,131.894,174,113.664,174c-32.471,0-58.888,25.543-58.888,56.94c0,21.242,12.165,40.574,31.331,50.351
		c-1.959,8.553-2.95,17.331-2.95,26.155c0,12.75,2.046,25.238,6.091,37.229c-0.106-0.001-0.213-0.001-0.319-0.001
		c-29.533,0-53.56,23.255-53.56,51.84c0,12.581,4.731,24.721,13.322,34.184c7.394,8.145,17.185,13.82,27.951,16.28
		c-0.374,4.43-0.563,8.887-0.563,13.304c0,3.049,0.093,6.145,0.277,9.254c-3.149,0.258-6.315,0.793-9.454,1.597
		c-14.598,3.744-25.869,12.348-33.502,25.574c-12.729,22.058-12.142,54.38-5.913,76.628C35.181,600.81,61.116,620,90.558,620
		c1.143,0,2.321-0.034,3.598-0.103c0.079-0.002,0.153-0.004,0.227-0.008c0.057-0.003,0.143-0.008,0.229-0.014l0.302-0.02
		c22.068-1.209,41.853-13.101,52.846-31.429c18.813,10.614,39.882,16.201,61.259,16.201c20.407,0,40.653-5.14,58.865-14.907
		c8.812,13.735,22.461,23.518,38.743,27.693c5.505,1.412,11.161,2.128,16.811,2.128c29.442,0,55.377-19.19,63.069-46.667
		c6.231-22.244,6.821-54.565-5.91-76.626c-7.632-13.226-18.903-21.83-33.501-25.574c-1.794-0.46-3.604-0.833-5.416-1.116
		c0.185-3.115,0.278-6.22,0.278-9.279c0-4.421-0.189-8.879-0.563-13.304c10.766-2.459,20.558-8.134,27.952-16.279
		c8.59-9.463,13.321-21.604,13.321-34.185c0-28.585-24.027-51.84-53.559-51.84c-0.106,0-0.213,0-0.319,0.001
		c4.045-11.991,6.091-24.478,6.091-37.229c0-8.827-0.991-17.606-2.949-26.156c19.165-9.777,31.329-29.108,31.329-50.35
		C363.261,199.543,336.845,174,304.375,174L304.375,174z M262.988,226.642c1.465,0,2.911-0.236,4.3-0.702
		c3.477-1.167,6.368-3.74,7.93-7.058c5.103-10.842,16.548-17.847,29.158-17.847c17.563,0,31.852,13.415,31.852,29.904
		c0,9.783-5.194,18.958-13.563,24.491c-1.53-3.094-3.192-6.121-4.967-9.044c-2.473-4.071-6.795-6.501-11.561-6.501
		c-2.468,0-4.892,0.679-7.009,1.965c-3.087,1.875-5.258,4.839-6.115,8.347c-0.857,3.508-0.296,7.139,1.579,10.225
		c3.295,5.423,6.028,11.187,8.125,17.13c0.065,0.185,0.14,0.374,0.217,0.562c3.26,9.446,4.913,19.314,4.913,29.331
		c0,46.847-37.052,86.788-85.309,93.121v-54.428c12.207-5.747,21.04-18.779,21.04-31.7c0-6.011-2.492-25.625-34.558-25.625
		c-32.066,0-34.558,19.613-34.558,25.625c0,12.921,8.834,25.952,21.04,31.7v54.428c-48.257-6.333-85.309-46.274-85.309-93.121
		c0-10.235,1.717-20.297,5.105-29.905c1.27-3.602,0.952-7.593-0.872-10.948c-1.822-3.353-4.996-5.791-8.708-6.687
		c-14.076-3.393-23.906-15.304-23.906-28.966c0-16.489,14.289-29.904,31.852-29.904c12.609,0,24.053,7.005,29.157,17.846
		c1.562,3.319,4.453,5.891,7.931,7.059c1.389,0.466,2.835,0.702,4.298,0.702c2.181,0,4.354-0.536,6.286-1.549
		c14.512-7.622,31-11.651,47.684-11.651c16.684,0,33.172,4.029,47.682,11.65C258.632,226.106,260.806,226.642,262.988,226.642
		L262.988,226.642z M202.081,316.447c1.397-0.302,3.612-0.597,6.939-0.597c3.325,0,5.541,0.295,6.939,0.598
		c-1.226,2.533-4.185,5.737-6.939,5.737C206.266,322.184,203.307,318.98,202.081,316.447L202.081,316.447z M88.932,421.318
		c-14.626,0-26.525-11.128-26.525-24.806c0-13.678,11.899-24.805,26.525-24.805c6.886,0,13.385,2.452,18.35,6.914
		c8.493,11.201,18.769,20.811,30.6,28.623c-6.896,12.228-10.52,25.986-10.52,40.089c0,45.027,36.632,81.659,81.659,81.659
		s81.659-36.632,81.659-81.659c0-14.104-3.624-27.862-10.52-40.089c11.83-7.812,22.106-17.422,30.6-28.623
		c4.964-4.461,11.463-6.914,18.351-6.914c14.625,0,26.524,11.127,26.524,24.805c0,13.678-11.899,24.806-26.524,24.806
		c-0.66,0-1.336-0.024-2.008-0.071c-0.31-0.022-0.633-0.034-0.951-0.034c-3.832,0-7.498,1.637-10.058,4.492
		c-2.806,3.13-3.986,7.296-3.239,11.431c1.372,7.584,2.068,15.37,2.068,23.143c0,4.009-0.188,8.056-0.559,12.07
		c-12.567,4.71-24.429,14.267-34.48,27.822c-8.634,11.645-15.77,26.124-19.579,39.725c-2.225,7.948-2.831,16.036-1.812,24.093
		c-15.187,8.909-32.223,13.603-49.473,13.603c-18.774,0-37.116-5.489-53.232-15.901c0.571-7.16-0.13-14.323-2.094-21.336
		c-6.919-24.716-24.874-54.11-49.788-65.755c-0.524-4.757-0.789-9.562-0.789-14.321c0-7.764,0.696-15.551,2.068-23.144
		c0.747-4.136-0.433-8.302-3.239-11.43c-2.562-2.855-6.227-4.492-10.058-4.492c-0.318,0-0.64,0.011-0.958,0.034
		C90.276,421.294,89.603,421.318,88.932,421.318L88.932,421.318z M209.019,428.484c16.302,0,32.124-2.957,47.097-8.796
		c4.936,8.388,7.527,17.867,7.527,27.646c0,25.02-17.307,46.822-41.106,52.918v-19.73c0-7.454-6.064-13.518-13.518-13.518
		s-13.518,6.064-13.518,13.518v19.73c-23.799-6.096-41.106-27.898-41.106-52.918c0-9.78,2.591-19.258,7.526-27.646
		C176.895,425.527,192.717,428.484,209.019,428.484L209.019,428.484z M329.153,496.254c1.357-0.214,2.735-0.323,4.094-0.323
		c2.322,0,4.722,0.313,7.132,0.932c7.493,1.922,12.832,6.02,16.801,12.898c8.366,14.496,7.989,39.056,3.293,55.824
		c-4.437,15.851-19.666,26.922-37.034,26.922c-3.389,0-6.785-0.431-10.095-1.28c-10.188-2.612-18.577-8.866-23.622-17.609
		c-4.682-8.114-5.884-17.501-3.385-26.431c4.964-17.731,20.896-47.224,42.513-50.88
		C328.944,496.292,329.047,496.274,329.153,496.254L329.153,496.254z M90.56,592.964c-17.368,0.001-32.598-11.07-37.037-26.921
		c-4.695-16.768-5.07-41.328,3.295-55.826c3.97-6.878,9.308-10.977,16.8-12.898c2.411-0.618,4.81-0.932,7.132-0.932
		c2.328,0,4.68,0.317,6.994,0.942c0.154,0.047,0.3,0.09,0.447,0.129c10.982,3.16,19.648,12.732,24.987,20.211
		c6.272,8.786,11.685,19.992,14.48,29.975c2.501,8.931,1.299,18.317-3.384,26.432c-5.046,8.744-13.435,14.997-23.621,17.609
		c-2.421,0.621-4.907,1.02-7.391,1.188h-0.151l-0.166,0.02C92.153,592.94,91.351,592.964,90.56,592.964L90.56,592.964L90.56,592.964
		z"/>
</g>
<g fill="#3498db">
	<path d="M262.575,305.309c-9.249,0-16.774-7.25-16.774-16.162c0-8.911,7.525-16.161,16.774-16.161
		c9.248,0,16.772,7.25,16.772,16.161C279.348,298.059,271.823,305.309,262.575,305.309z"/>
	<path d="M262.575,275.486c7.862,0,14.273,6.137,14.273,13.661c0,7.524-6.411,13.661-14.273,13.661
		c-7.862,0-14.274-6.137-14.274-13.661C248.301,281.623,254.714,275.486,262.575,275.486 M262.575,270.486
		c-10.628,0-19.274,8.371-19.274,18.661c0,10.29,8.646,18.661,19.274,18.661c10.627,0,19.273-8.372,19.273-18.661
		C281.848,278.857,273.202,270.486,262.575,270.486L262.575,270.486z"/>
</g>
<path style="stroke:#3498db;stroke-width:11;stroke-miterlimit:10;" d="M155.466,302.808c7.861,0,14.273-6.137,14.273-13.661
	c0-7.524-6.412-13.661-14.273-13.661c-7.862,0-14.274,6.137-14.274,13.661C141.192,296.671,147.604,302.808,155.466,302.808z"/>
<path style="stroke:#3498db;stroke-width:11;stroke-miterlimit:10;" d="M284.277,239.242c1.658,1.659,3.827,2.486,5.997,2.486
	c2.177,0,4.356-0.833,6.022-2.494c3.328-3.318,3.323-8.721,0.009-12.054l-0.198-0.197c-3.378-3.273-8.783-3.203-12.058,0.175
	c-3.274,3.377-3.203,8.757,0.175,12.031C284.23,239.195,284.27,239.236,284.277,239.242z"/>
<g fill="#3498db">
	<path d="M209.018,467.068c-6.075,0-11.018-4.942-11.018-11.018v-0.201c0-6.075,4.942-11.018,11.018-11.018
		s11.018,4.942,11.018,11.018v0.201C220.035,462.126,215.093,467.068,209.018,467.068z"/>
	<path d="M209.018,447.332c4.704,0,8.518,3.813,8.518,8.518v0.201c0,4.704-3.813,8.518-8.518,8.518
		c-4.704,0-8.518-3.813-8.518-8.518v-0.201C200.5,451.145,204.313,447.332,209.018,447.332 M209.018,442.332
		c-7.454,0-13.518,6.064-13.518,13.518v0.201c0,7.454,6.064,13.518,13.518,13.518c7.454,0,13.518-6.064,13.518-13.518v-0.201
		C222.535,448.396,216.471,442.332,209.018,442.332L209.018,442.332z"/>
</g>
</svg>
