<?xml version="1.0" encoding="iso-8859-1"?>
<!-- Generator: Adobe Illustrator 22.0.0, SVG Export Plug-In . SVG Version: 6.00 Build 0)  -->
<svg version="1.1" id="&#x421;&#x43B;&#x43E;&#x439;_1"
	 xmlns="http://www.w3.org/2000/svg" xmlns:xlink="http://www.w3.org/1999/xlink" x="0px" y="0px" viewBox="0 0 100 125"
	 style="enable-background:new 0 0 100 125;" xml:space="preserve">
<path fill="#3498db" d="M86.075,62l9.527-11.727c0.748-0.922,0.979-2.159,0.612-3.289c-0.367-1.129-1.281-1.995-2.429-2.3l-14.602-3.888L80,25.708
	c0.063-1.186-0.478-2.322-1.438-3.02c-0.962-0.699-2.209-0.862-3.317-0.435l-14.098,5.438l-8.209-12.685
	c-0.644-0.997-1.75-1.599-2.938-1.599s-2.294,0.602-2.938,1.599l-8.209,12.686l-14.098-5.438c-1.108-0.428-2.355-0.265-3.317,0.435
	c-0.96,0.697-1.501,1.834-1.438,3.02l0.815,15.089L6.214,44.685c-1.147,0.305-2.062,1.171-2.429,2.301
	c-0.366,1.129-0.136,2.367,0.612,3.288L13.926,62L4.397,73.728c-0.748,0.922-0.979,2.159-0.612,3.289
	c0.367,1.129,1.281,1.995,2.429,2.3l14.602,3.887L20,98.292c-0.063,1.186,0.478,2.322,1.438,3.02
	c0.962,0.698,2.209,0.86,3.317,0.435l14.098-5.438l8.209,12.686c0.645,0.997,1.751,1.599,2.938,1.599s2.294-0.602,2.938-1.599
	l8.209-12.686l14.098,5.438c1.108,0.426,2.355,0.264,3.317-0.435c0.96-0.697,1.501-1.834,1.438-3.02l-0.815-15.089l14.602-3.887
	c1.147-0.305,2.062-1.171,2.429-2.3c0.366-1.13,0.136-2.367-0.612-3.289L86.075,62z M74.636,77.171
	c-1.601,0.426-2.684,1.916-2.595,3.57l0.677,12.527l-11.704-4.515c-1.548-0.594-3.299-0.026-4.198,1.364L50,100.65l-6.815-10.532
	c-0.66-1.021-1.779-1.599-2.939-1.599c-0.421,0-0.847,0.076-1.259,0.234l-11.704,4.515l0.677-12.527
	c0.089-1.654-0.994-3.145-2.595-3.57l-12.123-3.228l7.911-9.736c1.044-1.286,1.044-3.128,0-4.414l-7.911-9.736l12.123-3.228
	c1.602-0.426,2.684-1.916,2.595-3.57l-0.677-12.527l11.704,4.515c1.549,0.595,3.299,0.026,4.198-1.364L50,23.35l6.815,10.532
	c0.899,1.391,2.65,1.959,4.198,1.364l11.704-4.515L72.04,43.258c-0.089,1.654,0.993,3.145,2.595,3.57l12.123,3.228l-7.91,9.736
	c-1.044,1.286-1.044,3.128,0,4.414l7.91,9.736L74.636,77.171z M65.209,45.826L30.512,72.635c-1.53,1.182-1.812,3.38-0.63,4.909
	c0.689,0.893,1.725,1.36,2.772,1.36c0.747,0,1.5-0.238,2.137-0.73l34.697-26.809c1.53-1.182,1.812-3.38,0.63-4.909
	C68.937,44.928,66.739,44.644,65.209,45.826z M42.64,57.319c2.604,0,5.054-1.015,6.895-2.856c1.842-1.841,2.856-4.289,2.856-6.893
	s-1.014-5.054-2.855-6.895c-1.842-1.842-4.29-2.856-6.895-2.856s-5.053,1.015-6.895,2.855s-2.855,4.29-2.855,6.895
	s1.014,5.054,2.854,6.894C37.587,56.305,40.035,57.319,42.64,57.319z M40.695,45.625c0.52-0.52,1.211-0.806,1.945-0.806
	s1.425,0.286,1.944,0.807c0.52,0.52,0.806,1.209,0.806,1.943s-0.286,1.425-0.807,1.944c-1.038,1.039-2.847,1.041-3.889-0.001
	c-0.52-0.519-0.805-1.209-0.805-1.943S40.176,46.145,40.695,45.625z M57.36,66.681c-2.604,0-5.054,1.015-6.895,2.856
	c-1.842,1.841-2.856,4.289-2.856,6.893s1.014,5.054,2.855,6.895c1.842,1.842,4.29,2.856,6.896,2.856
	c2.604,0,5.053-1.015,6.894-2.856c1.842-1.841,2.855-4.289,2.855-6.894s-1.014-5.054-2.854-6.894
	C62.413,67.695,59.965,66.681,57.36,66.681z M59.304,78.375c-1.038,1.039-2.852,1.039-3.889-0.001
	c-0.52-0.52-0.806-1.209-0.806-1.943s0.286-1.425,0.807-1.944c0.52-0.52,1.21-0.806,1.944-0.806c0.733,0,1.424,0.286,1.944,0.807
	c0.52,0.519,0.805,1.209,0.805,1.943S59.823,77.855,59.304,78.375z"/>
</svg>
