<?xml version="1.0" encoding="UTF-8" standalone="no"?>
<svg
   xmlns:dc="http://purl.org/dc/elements/1.1/"
   xmlns:cc="http://creativecommons.org/ns#"
   xmlns:rdf="http://www.w3.org/1999/02/22-rdf-syntax-ns#"
   xmlns:svg="http://www.w3.org/2000/svg"
   xmlns="http://www.w3.org/2000/svg"
   viewBox="0 0 472.12 471.16"
   height="22"
   width="22"
   xml:space="preserve"
   id="svg2"
   version="1.1"><metadata
     id="metadata8"><rdf:RDF><cc:Work
         rdf:about=""><dc:format>image/svg+xml</dc:format><dc:type
           rdf:resource="http://purl.org/dc/dcmitype/StillImage" /></cc:Work></rdf:RDF></metadata><defs
     id="defs6" /><g
     transform="matrix(1.3333333,0,0,-1.3333333,0,471.16)"
     id="g10"><g
       transform="scale(0.1)"
       id="g12"><path
         id="path14"
         style="fill:#a91c5f;fill-opacity:1;fill-rule:nonzero;stroke:none"
         d="M 0,550 310.004,860 863.332,306.66 556.668,0 0,550" /><path
         id="path16"
         style="fill:#a91c5f;fill-opacity:1;fill-rule:nonzero;stroke:none"
         d="m 1599.17,1978.33 68.75,68.75 288.75,-461.25 -72.5,-72.5 z m 125,-635 -285,465 68.75,68.75 288.75,-461.25 z m -170,-170 -285,465 68.75,68.75 288.75,-461.25 z m -170,-170 -285,465 68.75,68.75 288.75,-461.25 z m -160,-159.998 -285.002,464.998 68.752,68.75 288.75,-461.248 z m -170,-170 -285.002,464.998 68.75,68.75 288.752,-461.248 z m -170.002,-170 -285,465 68.75,68.748 288.75,-461.248 z M 1812.5,2210.83 431.668,830 836.668,420 2220,1803.33 l -407.5,407.5" /><path
         id="path18"
         style="fill:#a91c5f;fill-opacity:1;fill-rule:nonzero;stroke:none"
         d="m 1766.67,2328.03 273.91,167.06 455.45,-455.45 -153.14,-276.31 -576.22,564.7" /><path
         id="path20"
         style="fill:#a91c5f;fill-opacity:1;fill-rule:nonzero;stroke:none"
         d="m 3269.7,3489.53 -100.07,-101.56 c -29.25,25.14 -82.75,56.49 -130.46,5.37 -45.49,-48.74 -16.03,-98.51 10.18,-127.4 l -72.97,-74.05 c -27.08,25.45 -85.53,66.82 -137.21,11.45 -49.18,-52.69 -10.77,-106.58 16.44,-134 l -72.96,-74.03 c -28.45,25.46 -84.06,60.98 -133.48,8.03 -47.09,-50.46 -13.87,-102 12.93,-130.36 l -77.9,-79.05 c -27.96,25.53 -84.72,63.3 -135.03,9.41 -47.91,-51.34 -12.67,-103.84 14.34,-131.86 l -72.74,-73.82 c -24.68,24.59 -86.95,74.23 -141.6,15.68 -51.87,-55.58 -6.31,-112.49 20.79,-138.26 l -82.2,-83.41 94.45,-94.45 1202.29,1192.31 c 0,0 -63.64,99.44 -214.8,0" /><path
         id="path22"
         style="fill:#a91c5f;fill-opacity:1;fill-rule:nonzero;stroke:none"
         d="m 3496.72,3262.51 -101.56,-100.08 c 25.14,-29.24 56.49,-82.74 5.36,-130.45 -48.74,-45.49 -98.5,-16.03 -127.4,10.19 l -74.04,-72.98 c 25.45,-27.07 66.82,-85.53 11.44,-137.21 -52.68,-49.18 -106.57,-10.77 -133.99,16.44 l -74.03,-72.96 c 25.47,-28.45 60.97,-84.06 8.02,-133.48 -50.45,-47.09 -101.99,-13.87 -130.35,12.93 l -79.05,-77.9 c 25.53,-27.96 63.3,-84.73 9.4,-135.03 -51.33,-47.92 -103.83,-12.67 -131.85,14.34 l -73.82,-72.74 c 24.59,-24.68 74.23,-86.95 15.67,-141.6 -55.57,-51.87 -112.48,-6.31 -138.25,20.79 l -83.41,-82.2 -104.15,104.15 1202.01,1192.59 c 0,0 99.44,-63.64 0,-214.8" /></g></g></svg>