<?xml version="1.0" encoding="UTF-8" standalone="no"?>
<svg
   xmlns:dc="http://purl.org/dc/elements/1.1/"
   xmlns:cc="http://creativecommons.org/ns#"
   xmlns:rdf="http://www.w3.org/1999/02/22-rdf-syntax-ns#"
   xmlns:svg="http://www.w3.org/2000/svg"
   xmlns="http://www.w3.org/2000/svg"
   viewBox="0 0 682.66669 451.86667"
   height="14"
   width="22"
   xml:space="preserve"
   id="svg2"
   version="1.1"><metadata
     id="metadata8"><rdf:RDF><cc:Work
         rdf:about=""><dc:format>image/svg+xml</dc:format><dc:type
           rdf:resource="http://purl.org/dc/dcmitype/StillImage" /></cc:Work></rdf:RDF></metadata><defs
     id="defs6" /><g
     transform="matrix(1.3333333,0,0,-1.3333333,0,451.86667)"
     id="g10"><g
       transform="scale(0.1)"
       id="g12"><path
         id="path14"
         style="fill:#a91c5f;fill-opacity:1;fill-rule:nonzero;stroke:none"
         d="m 4427.36,2677.01 c 214.21,0 388.47,-174.26 388.47,-388.45 0,-214.2 -174.27,-388.46 -388.47,-388.46 h -178.68 c 29.01,126.58 44.09,256.77 44.09,388.46 v 388.45 z M 1906.17,1018.05 h 1831.84 c 107.76,99.96 203.12,213.53 283.14,338.75 48.93,76.58 91.26,156.59 127.27,239.13 h 278.94 c 381.93,0 692.64,310.72 692.64,692.63 0,381.91 -310.72,692.62 -692.64,692.62 h -134.59 v 407.81 H 827.242 V 2288.56 c 0,-331.45 93.926,-653.66 271.618,-931.76 80.01,-125.23 175.37,-238.79 283.13,-338.75 h 524.18" /><path
         id="path16"
         style="fill:#a91c5f;fill-opacity:1;fill-rule:nonzero;stroke:none"
         d="M 3284.72,713.879 H 0 V 663.18 C 0,297.512 297.488,0 663.152,0 H 4456.84 C 4822.5,0 5120,297.512 5120,663.18 v 50.699 H 3284.72" /></g></g></svg>