<?xml version="1.0" encoding="UTF-8" standalone="no"?>
<svg
   xmlns:dc="http://purl.org/dc/elements/1.1/"
   xmlns:cc="http://creativecommons.org/ns#"
   xmlns:rdf="http://www.w3.org/1999/02/22-rdf-syntax-ns#"
   xmlns:svg="http://www.w3.org/2000/svg"
   xmlns="http://www.w3.org/2000/svg"
   viewBox="0 0 552.64001 536.90668"
   height="52"
   width="54"
   xml:space="preserve"
   id="svg2"
   version="1.1"><metadata
     id="metadata8"><rdf:RDF><cc:Work
         rdf:about=""><dc:format>image/svg+xml</dc:format><dc:type
           rdf:resource="http://purl.org/dc/dcmitype/StillImage" /></cc:Work></rdf:RDF></metadata><defs
     id="defs6" /><g
     transform="matrix(1.3333333,0,0,-1.3333333,0,536.90667)"
     id="g10"><g
       transform="scale(0.1)"
       id="g12"><path
         id="path14"
         style="fill:#aeaeae;fill-opacity:1;fill-rule:nonzero;stroke:none"
         d="m 1058.69,3834.03 150.88,67.06 v 94.52 l 131.32,31.21 V 3898.3 l -61.47,-26.55 v -155.07 l -79.63,95 -141.1,22.35" /><path
         id="path16"
         style="fill:#aeaeae;fill-opacity:1;fill-rule:nonzero;stroke:none"
         d="M 1022.38,3755.97 C 946.391,3642.87 503.301,2981.16 344.238,2692.9 c -42.535,-77.08 -20.953,-175.41 52.278,-224.28 1.129,-0.76 2.269,-1.5 3.425,-2.25 68.036,-43.99 159.317,-21.12 200.903,48.42 154.359,258.11 572.336,962.49 643.306,1139.14 5.25,13.07 4.82,27.68 -1.39,40.32 -17.98,36.59 -68.61,106.02 -187.92,83.2 -13.23,-2.53 -24.94,-10.3 -32.46,-21.48" /><path
         id="path18"
         style="fill:#aeaeae;fill-opacity:1;fill-rule:nonzero;stroke:none"
         d="m 267.84,2492.2 c 0,0 -468.258,-676.39 -166.488,-1441.21 C 403.117,286.172 1188.76,0 1188.76,0 h 1732.57 c 0,0 1259.1,530.699 1222.67,1472.43 -36.41,941.72 -265.34,1019.77 -265.34,1019.77 l -228.94,-145.69 c 0,0 483.88,-806.45 10.41,-1462.01 -473.46,-655.57 -811.65,-655.57 -811.65,-655.57 0,0 -176.55,-6.149 -155.93,-89.442 -115.26,120.871 252.99,88.461 -724.3,57.242 -977.289,-31.21 -369.85,61.391 -369.85,61.391 L 1313.63,239.34 c 0,0 -955.243,261.68 -1019.775,1225.91 0,631.53 213.321,886.47 213.321,886.47 L 267.84,2492.2" /><path
         id="path20"
         style="fill:#aeaeae;fill-opacity:1;fill-rule:nonzero;stroke:none"
         d="m 3606.42,2410.07 c 0,0 -194.84,96.93 -259.78,520.42 2.94,-18.38 -190.52,228.65 -177.53,479.78 12.99,251.13 337.73,-285.77 342.06,-372.37 0,0 359.38,-277.11 337.73,-484.94 -15.45,-89.53 -151.55,-177.53 -242.48,-142.89" /><path
         id="path22"
         style="fill:#aeaeae;fill-opacity:1;fill-rule:nonzero;stroke:none"
         d="m 2086.42,287.641 c -652.65,0 -1181.721,529.07 -1181.721,1181.719 0,652.65 529.071,1181.72 1181.721,1181.72 652.65,0 1181.72,-529.07 1181.72,-1181.72 0,-652.649 -529.07,-1181.719 -1181.72,-1181.719 z m 0,2642.849 C 1279.46,2930.49 625.285,2276.32 625.285,1469.36 625.285,662.398 1279.46,8.23047 2086.42,8.23047 c 806.97,0 1461.14,654.16753 1461.14,1461.12953 0,806.96 -654.17,1461.13 -1461.14,1461.13" /></g></g></svg>