<!-- Generator: Adobe Illustrator 17.1.0, SVG Export Plug-In . SVG Version: 6.00 Build 0)  -->
<svg xmlns="http://www.w3.org/2000/svg" xmlns:xlink="http://www.w3.org/1999/xlink" version="1.0" id="Layer_1" x="0px" y="0px" viewBox="0 0 24 24" enable-background="new 0 0 24 24" xml:space="preserve">
<g>
	<path fill="#666666" d="M17.797,13.305C17.133,16.071,14.852,18,11.969,18c-1.523,0-3-0.602-4.109-1.656l-1.008,1.008   C6.758,17.446,6.633,17.5,6.5,17.5C6.227,17.5,6,17.274,6,17v-3.5C6,13.226,6.227,13,6.5,13H10c0.273,0,0.5,0.227,0.5,0.5   c0,0.133-0.055,0.258-0.148,0.352l-1.07,1.07C10.016,15.61,10.992,16,12,16c1.391,0,2.68-0.719,3.406-1.906   c0.188-0.305,0.281-0.602,0.414-0.915C15.859,13.07,15.938,13,16.055,13h1.5c0.141,0,0.25,0.117,0.25,0.25   C17.805,13.266,17.805,13.289,17.797,13.305z M18,10.5c0,0.273-0.227,0.5-0.5,0.5H14c-0.273,0-0.5-0.227-0.5-0.5   c0-0.133,0.055-0.258,0.148-0.352l1.078-1.078C13.984,8.383,13.008,8,12,8c-1.391,0-2.68,0.719-3.406,1.906   c-0.188,0.305-0.281,0.602-0.414,0.914C8.141,10.929,8.062,11,7.945,11H6.391c-0.141,0-0.25-0.117-0.25-0.25   c0-0.016,0-0.039,0-0.055C6.812,7.922,9.117,6,12,6c1.531,0,3.023,0.609,4.133,1.656l1.016-1.008C17.242,6.554,17.367,6.5,17.5,6.5   C17.773,6.5,18,6.726,18,7V10.5z"/>
</g>
</svg>