<?xml version="1.0" encoding="UTF-8" standalone="no"?>
<svg
   xmlns:dc="http://purl.org/dc/elements/1.1/"
   xmlns:cc="http://creativecommons.org/ns#"
   xmlns:rdf="http://www.w3.org/1999/02/22-rdf-syntax-ns#"
   xmlns:svg="http://www.w3.org/2000/svg"
   xmlns="http://www.w3.org/2000/svg"
   viewBox="0 0 381.33334 370.66666"
   height="22"
   width="22"
   xml:space="preserve"
   id="svg2"
   version="1.1"><metadata
     id="metadata8"><rdf:RDF><cc:Work
         rdf:about=""><dc:format>image/svg+xml</dc:format><dc:type
           rdf:resource="http://purl.org/dc/dcmitype/StillImage" /></cc:Work></rdf:RDF></metadata><defs
     id="defs6"><clipPath
       id="clipPath20"
       clipPathUnits="userSpaceOnUse"><path
         id="path18"
         d="M 0,8.58984 H 2860 V 2778.5898 H 0 Z" /></clipPath></defs><g
     transform="matrix(1.3333333,0,0,-1.3333333,0,370.66667)"
     id="g10"><g
       transform="scale(0.1)"
       id="g12"><g
         id="g14"><g
           clip-path="url(#clipPath20)"
           id="g16"><path
             id="path22"
             style="fill:#a91c5f;fill-opacity:1;fill-rule:nonzero;stroke:none"
             d="M 1650.62,1878.28 H 217.66 C 97.9297,1878.28 0,1780.31 0,1660.58 V 227.648 C 0,107.969 97.9297,10 217.66,10 h 1432.96 c 119.69,0 217.66,97.969 217.66,217.648 V 1660.58 c 0,119.73 -97.97,217.7 -217.66,217.7 z M 438.871,245.352 c -112.422,0 -203.519,91.128 -203.519,203.519 0,112.379 91.097,203.469 203.519,203.469 112.379,0 203.508,-91.09 203.508,-203.469 C 642.34,336.48 551.25,245.352 438.871,245.352 Z m 0,990.548 c -112.391,0 -203.519,91.13 -203.519,203.51 0,112.39 91.128,203.52 203.519,203.52 112.379,0 203.508,-91.13 203.508,-203.52 0,-112.38 -91.129,-203.51 -203.508,-203.51 z m 495.27,-469.38 c -112.379,0 -203.52,91.128 -203.52,203.48 0,112.42 91.141,203.51 203.52,203.51 112.379,0 203.519,-91.09 203.519,-203.51 0,-112.352 -91.14,-203.48 -203.519,-203.48 z M 1429.41,245.352 c -112.38,0 -203.51,91.128 -203.51,203.519 0,112.379 91.13,203.508 203.51,203.508 112.39,0 203.52,-91.129 203.52,-203.508 0,-112.391 -91.13,-203.519 -203.52,-203.519 z m 0,990.548 c -112.38,0 -203.51,91.13 -203.51,203.51 0,112.39 91.13,203.52 203.51,203.52 112.39,0 203.52,-91.13 203.52,-203.52 0,-112.38 -91.13,-203.51 -203.52,-203.51 z" /><path
             id="path24"
             style="fill:#a91c5f;fill-opacity:1;fill-rule:nonzero;stroke:none"
             d="M 2616.6,2778.59 H 1070 c -129.219,0 -234.922,-105.7 -234.922,-234.92 v -351.25 c 0,0 -4.137,-87.58 96.524,-87.58 h 783.788 c 214.34,0 388.71,-174.37 388.71,-388.71 V 863.98 c 0,-101.832 91.56,-101.832 139.38,-101.832 h 373.12 c 129.22,0 234.96,105.704 234.96,234.922 v 1546.6 c -0.04,129.22 -105.74,234.92 -234.96,234.92 z m -238.75,-693.32 c -121.29,0 -219.65,98.36 -219.65,219.65 0,121.33 98.36,219.65 219.65,219.65 121.33,0 219.69,-98.32 219.69,-219.65 -0.04,-121.29 -98.36,-219.65 -219.69,-219.65 z" /></g></g></g></g></svg>