<?xml version="1.0" encoding="UTF-8" standalone="no"?>
<svg
   xmlns:dc="http://purl.org/dc/elements/1.1/"
   xmlns:cc="http://creativecommons.org/ns#"
   xmlns:rdf="http://www.w3.org/1999/02/22-rdf-syntax-ns#"
   xmlns:svg="http://www.w3.org/2000/svg"
   xmlns="http://www.w3.org/2000/svg"
   viewBox="0 0 580.52002 580.33331"
   height="40"
   width="40"
   xml:space="preserve"
   id="svg2" class="svg2 svg2_active"
   version="1.1">
   <style>
    .svg2{
      cursor: pointer;
      overflow:visible;
      padding: 1px 0;
    }
    .svg2_active path{
      stroke: #a91c5f !important;
    }
    .svg2_active path#path18,.svg2_active path#path20{
      fill: #a91c5f !important;
    }
    .svg2:hover{
      filter: drop-shadow( 0px 0px 1px #3b205c);
    }
    .svg2:hover path{
      stroke: #3a424b !important;
    }
    .svg2:hover path#path18,.svg2:hover path#path20{
      fill: #3a424b !important;
    }
   </style>
   <metadata
     id="metadata8"><rdf:RDF><cc:Work
         rdf:about=""><dc:format>image/svg+xml</dc:format><dc:type
           rdf:resource="http://purl.org/dc/dcmitype/StillImage" /></cc:Work></rdf:RDF></metadata><defs
     id="defs6" /><g
     transform="matrix(1.3333333,0,0,-1.3333333,0,563.33333)"
     id="g10"><g
       transform="scale(0.1)"
       id="g12"><path
         id="path14"
         style="fill:none;stroke:#3a424b;stroke-width:210;stroke-linecap:butt;stroke-linejoin:miter;stroke-miterlimit:10;stroke-dasharray:none;stroke-opacity:1"
         d="M 52.3672,3424.27 H 764.656 L 1476.95,1005.8 h 1855.27 l 745.42,1623.36 h -397.56" /><path
         id="path16"
         style="fill:none;stroke:#3a424b;stroke-width:210;stroke-linecap:butt;stroke-linejoin:miter;stroke-miterlimit:10;stroke-dasharray:none;stroke-opacity:1"
         d="m 3663.52,2927.33 c 0,658.69 -533.99,1192.67 -1192.68,1192.67 -658.7,0 -1192.67,-533.98 -1192.67,-1192.67 0,-658.7 533.97,-1192.67 1192.67,-1192.67 658.69,0 1192.68,533.97 1192.68,1192.67 z" /><path
         id="path18"
         style="fill:#3a424b;fill-opacity:1;fill-rule:nonzero;stroke:none"
         d="m 1629.47,331.301 c 0,182.969 -148.33,331.301 -331.3,331.301 C 1115.2,662.602 966.871,514.27 966.871,331.301 966.871,148.332 1115.2,0 1298.17,0 c 182.97,0 331.3,148.332 331.3,331.301" /><path
         id="path20"
         style="fill:#3a424b;fill-opacity:1;fill-rule:nonzero;stroke:none"
         d="m 3845.72,331.301 c 0,182.969 -148.32,331.301 -331.3,331.301 -182.96,0 -331.29,-148.332 -331.29,-331.301 C 3183.13,148.332 3331.46,0 3514.42,0 c 182.98,0 331.3,148.332 331.3,331.301" /></g></g></svg>