<?xml version="1.0" encoding="UTF-8" standalone="no"?>
<svg
   xmlns:dc="http://purl.org/dc/elements/1.1/"
   xmlns:cc="http://creativecommons.org/ns#"
   xmlns:rdf="http://www.w3.org/1999/02/22-rdf-syntax-ns#"
   xmlns:svg="http://www.w3.org/2000/svg"
   xmlns="http://www.w3.org/2000/svg"
   viewBox="0 0 116.44 119.96"
   height="21"
   width="22"
   xml:space="preserve"
   id="svg2"
   version="1.1"><metadata
     id="metadata8"><rdf:RDF><cc:Work
         rdf:about=""><dc:format>image/svg+xml</dc:format><dc:type
           rdf:resource="http://purl.org/dc/dcmitype/StillImage" /></cc:Work></rdf:RDF></metadata><defs
     id="defs6" /><g
     transform="matrix(1.3333333,0,0,-1.3333333,0,119.96)"
     id="g10"><g
       transform="scale(0.1)"
       id="g12"><path
         id="path14"
         style="fill:#a91c5f;fill-opacity:1;fill-rule:nonzero;stroke:none"
         d="m 364.586,100.277 c -1.606,-0.652 -3.023,-1.152 -4.266,-1.5036 L 275.652,303.93 c 2.789,1.133 5.539,2.363 8.293,3.625 l 84.754,-205.332 c -1.168,-0.618 -2.539,-1.282 -4.113,-1.946 z m -9.008,-15.6442 -0.035,13.2149 c 0.008,0 0.02,0 0.035,0 z M 203.555,315.816 c -18.942,0 -36.871,3.731 -53.692,10.782 -1.574,0.664 -3.14,1.336 -4.683,2.031 -5.125,2.391 -10.211,4.988 -15.098,8.035 -51.1289,31.047 -75.6015,86.711 -67.1757,152.285 9.1679,58.121 60.3237,105.403 114.0157,105.403 19.961,0 38.582,-6.391 54.832,-18.579 4.258,-3.562 17.348,-15.371 25.047,-31.304 6.5,-13.508 9.172,-29.946 -0.84,-46.93 -0.012,-0.027 -0.012,-0.059 -0.039,-0.078 -3.75,-5.941 -11.211,-9.492 -19.949,-9.492 -1.211,0 -2.34,0.23 -3.524,0.359 -1.027,0.125 -2.078,0.125 -3.066,0.332 -0.922,0.199 -1.711,0.57 -2.594,0.844 -1.105,0.344 -2.25,0.629 -3.277,1.098 1.558,1.461 2.898,3.168 4.23,4.886 0.348,0.473 0.778,0.832 1.117,1.313 1.754,2.48 3.286,5.191 4.512,8.133 0.039,0.117 0.051,0.226 0.102,0.336 0.027,0.082 0.082,0.152 0.121,0.218 0.629,1.602 0.867,3.274 1.308,4.895 0.477,1.746 1.133,3.445 1.403,5.207 0.265,1.808 0.148,3.57 0.199,5.371 0.039,1.648 0.285,3.332 0.148,4.945 -0.207,2.407 -0.828,4.637 -1.429,6.891 -0.239,0.926 -0.282,1.914 -0.578,2.793 -1.063,3.094 -2.493,5.937 -4.293,8.476 -1.84,3.122 -3.961,5.907 -6.211,8.532 -11.028,12.91 -26.817,19.98 -45.578,19.98 -17.918,0 -36.848,-6.379 -53.508,-18.129 -2.793,-2.062 -5.442,-4.211 -7.942,-6.461 -24.9528,-22.492 -35.0817,-54.047 -35.0271,-84.886 0.0157,-15.422 2.586,-30.664 7.1172,-44.485 1.4297,-3.672 2.9805,-7.265 4.668,-10.762 0.2578,-0.535 0.5703,-1.035 0.832,-1.57 1.4571,-2.922 2.9571,-5.832 4.586,-8.633 27.0549,-46.379 77.9099,-74.355 137.7499,-74.355 0.762,0 1.504,0.117 2.274,0.125 0.187,-0.781 0.3,-1.531 0.617,-2.305 l 0.351,-0.84 c -12.136,-2.898 -24.457,-4.441 -36.726,-4.461 z M 28.9922,464.18 c -5.5977,32.558 -2,65.648 10.3906,96.191 0.2188,0.137 0.4492,0.356 0.6719,0.508 0.5078,0.359 1.0273,0.762 1.5547,1.191 0.4492,0.371 0.9258,0.746 1.3945,1.157 0.5703,0.503 1.1719,1.105 1.7813,1.671 0.4492,0.446 0.8984,0.864 1.3671,1.364 0.8008,0.828 1.6485,1.769 2.5,2.738 0.3204,0.359 0.6094,0.648 0.9336,1.027 1.25,1.453 2.5743,3.024 3.9961,4.793 3.6211,4.836 7.5196,9.45 11.6914,13.809 29.3594,30.73 71.4566,49.281 113.7186,49.281 16.5,0 32.199,-2.832 46.711,-8.332 14.512,-5.519 27.809,-13.719 39.551,-24.445 21.41,-19.215 39.516,-47.645 40.41,-79.613 0.399,-14.528 -2.762,-29.801 -10.801,-45.27 -11.011,-22.148 -29.504,-35.137 -59.98,-42.121 -0.992,-0.215 -2.051,-0.254 -3.094,-0.32 -10.934,-0.782 -22.726,6.543 -26.926,12.879 -0.031,0.058 -0.078,0.109 -0.113,0.167 -0.547,0.84 -0.898,1.641 -1.148,2.43 -0.039,0.129 -0.129,0.246 -0.153,0.363 -0.219,0.84 -0.515,1.668 -0.894,2.461 -1.032,2.118 -1.512,4.168 -1.754,6.2 -0.039,0.429 -0.117,0.859 -0.137,1.269 -0.062,1.863 0.231,3.672 0.848,5.422 0.191,0.551 0.461,1.059 0.711,1.582 0.226,0.496 0.648,0.945 0.941,1.449 0.41,-0.301 0.879,-0.523 1.289,-0.801 1.547,-1.078 3.129,-2.121 4.82,-3.042 0.829,-0.45 1.7,-0.84 2.567,-1.25 1.57,-0.747 3.183,-1.418 4.836,-2.004 0.933,-0.356 1.879,-0.676 2.844,-0.965 1.746,-0.508 3.531,-0.926 5.343,-1.278 0.918,-0.179 1.828,-0.421 2.77,-0.543 2.469,-0.371 5,-0.566 7.562,-0.601 0.27,-0.008 0.528,-0.067 0.785,-0.067 17.864,0 33.672,8.161 42.493,22.149 16.781,28.309 11.519,57.051 -2.563,80.617 -7.43,12.465 -17.277,23.492 -27.726,32.234 -21.184,15.907 -45.832,24.321 -71.289,24.321 -67.282,0 -128.8325,-56.09 -140.1919,-128.071 -0.6289,-4.871 -1.0898,-9.71 -1.4101,-14.468 -0.0196,-0.41 -0.0196,-0.801 -0.0391,-1.199 -0.2578,-4.352 -0.4297,-8.645 -0.4414,-12.911 0,-0.785 0.0586,-1.543 0.0703,-2.312 0.0274,-3.848 0.1211,-7.676 0.3594,-11.453 0.0703,-0.996 0.2109,-1.965 0.2891,-2.969 0.2773,-3.508 0.582,-6.992 1.0312,-10.41 0.0078,-0.078 0.0078,-0.168 0.0273,-0.235 -3.0898,8.739 -5.6289,17.879 -7.5976,27.407 z M 155.645,664.641 c 15.144,4.882 30.785,7.363 46.5,7.363 17.257,0 34.027,-3.063 49.75,-8.637 9.238,-3.269 18.097,-7.437 26.414,-12.394 0.472,-0.293 0.933,-0.571 1.402,-0.864 8.359,-5.082 16.191,-10.957 23.359,-17.55 0.231,-0.219 0.465,-0.45 0.703,-0.668 3.457,-3.207 6.77,-6.602 9.918,-10.133 0.153,-0.164 0.301,-0.317 0.438,-0.469 3.234,-3.656 6.25,-7.48 9.121,-11.43 0.285,-0.421 0.57,-0.851 0.852,-1.261 2.32,-3.301 4.492,-6.719 6.562,-10.207 0.609,-1.043 1.231,-2.082 1.805,-3.153 2.051,-3.672 3.969,-7.429 5.715,-11.289 0.152,-0.34 0.316,-0.648 0.457,-0.988 21.089,-50.02 14.589,-104.582 -17.129,-145.621 -28.231,-34.543 -71.789,-50.332 -111.828,-39.992 -2.633,0.683 -5.204,1.484 -7.704,2.414 -17.46,6.453 -31.328,18.574 -37.89,33.484 -5.57,12.668 -5.246,26.016 0.902,37.594 0.102,0.199 0.211,0.344 0.321,0.531 0.898,1.625 1.808,3.047 2.738,4.297 0.371,0.492 0.742,0.934 1.101,1.363 0.739,0.899 1.493,1.692 2.239,2.379 0.332,0.313 0.66,0.66 0.992,0.934 1.027,0.84 2.051,1.535 3.058,2.078 0.282,0.156 0.547,0.238 0.84,0.387 0.793,0.359 1.559,0.691 2.321,0.921 0.14,0.032 0.281,0.071 0.429,0.11 -3.148,-5.844 -4.578,-11.871 -4.816,-17.731 v -0.011 c -0.203,-4.61 0.359,-9.11 1.515,-13.36 0.125,-0.429 0.231,-0.859 0.372,-1.277 0.562,-1.836 1.183,-3.625 1.929,-5.332 0.047,-0.117 0.082,-0.254 0.141,-0.391 6.68,-22.004 37.32,-39.238 62.609,-33.429 38.403,8.82 63.11,26.64 77.66,55.91 8.379,16.16 12.77,33.269 13.387,50.492 1.203,33.539 -12.066,67.426 -38.176,95.461 -3.371,3.598 -6.879,7.156 -10.672,10.558 -14.148,12.961 -30.218,22.891 -47.726,29.551 -17.5,6.672 -36.434,10.098 -56.301,10.098 -6.43,0 -12.82,-0.477 -19.191,-1.199 -1.723,-0.2 -3.43,-0.461 -5.141,-0.707 -2.43,-0.356 -4.871,-0.575 -7.289,-1.012 2.762,1.109 5.52,2.168 8.313,3.18 z m 205.66,-251.989 c -1.242,-2.343 -2.5,-4.629 -3.821,-6.906 -3.332,-1.844 -7.714,-5.203 -13.652,-11.648 -26.25,-28.184 -65.16,-44.348 -106.773,-44.348 0,0 -0.008,0 -0.02,0 -39.238,0 -86.945,15.762 -113.129,58.008 -0.449,0.715 -0.832,1.543 -1.269,2.297 -3.188,5.418 -6.098,11.172 -8.539,17.461 -1.422,4.316 -2.59,8.808 -3.5,13.418 -0.547,2.781 -0.809,5.664 -1.149,8.523 -0.23,1.887 -0.621,3.691 -0.762,5.606 -1.828,25.035 4.68,51.367 23.204,70.117 2.691,2.73 5.398,5.449 8.609,7.808 1.469,1.039 3.039,1.84 4.559,2.754 10.773,6.52 22.679,10.367 33.492,10.367 9.894,0 17.867,-2.929 24.015,-9.078 2.051,-2.058 3.895,-4.472 5.543,-7.261 1.91,-2.719 2.59,-6.79 1.93,-10.77 -0.027,-0.18 -0.113,-0.363 -0.152,-0.539 -0.219,-1.113 -0.496,-2.211 -0.918,-3.262 -0.438,-1.078 -1.121,-2.258 -1.942,-3.367 -0.179,-0.25 -0.367,-0.484 -0.558,-0.715 -0.981,-1.144 -2.153,-2.215 -3.692,-2.988 -0.047,-0.027 -0.133,-0.027 -0.179,-0.047 -0.039,0.008 -0.098,0.008 -0.141,0.02 -2.328,0.781 -4.969,1.5 -7.887,2.039 -0.133,0.019 -0.261,0.039 -0.39,0.058 -2.965,0.528 -6.161,0.891 -9.551,0.891 -18.203,0 -33.473,-9.879 -43.004,-27.801 -10.027,-18.898 -10.649,-40.441 -1.746,-60.656 6.371,-14.485 17.355,-26.973 31.199,-36.387 9.481,-6.426 20.27,-11.457 31.988,-14.473 10.379,-2.714 21.051,-4.062 31.723,-4.062 40.641,0 79.699,19.285 107.43,53.191 0.14,0.176 0.238,0.371 0.386,0.559 2.672,3.465 5.145,7.039 7.5,10.644 0.801,1.231 1.582,2.508 2.34,3.758 1.703,2.754 3.321,5.578 4.864,8.41 0.679,1.27 1.378,2.52 2.027,3.797 1.992,3.957 3.883,7.95 5.543,12.008 0.109,0.254 0.199,0.492 0.289,0.742 1.609,3.961 3.012,7.981 4.301,12.051 0.418,1.32 0.789,2.649 1.179,3.981 0.918,3.136 1.719,6.289 2.438,9.468 0.312,1.321 0.621,2.621 0.894,3.95 0.868,4.359 1.641,8.75 2.149,13.16 0.039,0.23 0.047,0.472 0.078,0.703 0.48,4.207 0.781,8.457 0.941,12.719 0.047,1.402 0.059,2.789 0.086,4.179 0.047,3.282 0,6.559 -0.144,9.836 -0.031,0.891 0.011,1.774 -0.031,2.664 8.218,-38.683 2.98,-80.761 -15.758,-120.879 z m -53.883,-92.636 c 27.051,16.504 50.973,38.992 68.711,65.945 0.133,0.195 0.133,0.363 0.25,0.559 1.109,1.335 2.23,2.89 3.387,4.882 1.722,2.938 3.363,5.938 5.214,9.551 31.282,66.918 29.547,138.438 -4.902,196.496 -27.269,43.512 -68.637,75.711 -116.852,90.778 -3.855,1.086 -5.839,1.476 -7.117,1.64 -17.168,5.555 -35.324,8.606 -53.968,8.606 -18.473,0 -36.844,-2.91 -55.086,-8.793 -35.106,-12.77 -83.3051,-37.742 -113.5473,-84.192 -5.5078,-8.425 -11.1601,-17.48 -15.1289,-27.015 -0.0195,-0.043 -0.039,-0.067 -0.0586,-0.106 -0.0234,-0.047 -0.0429,-0.086 -0.0625,-0.14 -0.039,-0.098 -0.1094,-0.184 -0.1484,-0.286 -0.0235,-0.07 -0.0235,-0.109 -0.043,-0.171 C 1.28516,540.641 -3.98047,499.84 3.00391,459.293 16.2813,395.043 53.4414,344.75 110.332,313.941 c 9.609,-5.382 19.723,-9.953 30.07,-13.613 9.098,-3.203 13.078,-3.762 14.918,-3.879 15.391,-4.636 31.481,-7.051 48.223,-7.051 15.687,0 31.461,2.2 46.91,6.231 L 338.965,81.1953 c 1.23,-2.9375 5.289,-9.7539 16.605,-9.7539 5.418,0 12.211,1.5703 19.114,4.4141 17.898,7.3828 25.961,18.2304 21.527,29.0235 l -88.789,215.137" /><path
         id="path16"
         style="fill:#a91c5f;fill-opacity:1;fill-rule:nonzero;stroke:none"
         d="M 767.711,459.574 628.93,418.395 699.848,549.191 834.66,589.199 c -3.758,-10.668 -8.152,-21.179 -13.64,-31.316 z M 502.387,26.4414 v 0 c -8.449,0 -16.875,2.1563 -24.364,6.2188 -2.543,1.3789 -4.855,3.0468 -7.082,4.7773 l 80.926,24.043 -4.449,-8.2227 C 538.48,36.7148 521.227,26.4414 502.387,26.4414 Z M 558.012,287.602 696.828,328.813 625.91,198.012 487.105,156.793 Z M 686.227,757.5 c -0.997,0.543 -2.075,0.906 -3.098,1.422 l 116.601,34.617 c 17.137,-21.336 30.137,-45.988 38.172,-73.051 1.875,-6.355 3.403,-12.758 4.68,-19.187 L 743.656,671.93 c -3.926,34.968 -24.226,67.562 -57.429,85.57 z M 514.484,674.102 c -8.972,-16.532 -26.265,-26.813 -45.117,-26.813 -8.433,0 -16.844,2.141 -24.304,6.191 -11.489,6.243 -19.473,16.321 -23.579,27.77 l 115.754,34.379 c -0.574,-1 -1.277,-1.891 -1.824,-2.91 z M 671.051,869.887 486.879,815.199 c 39.07,36.731 91.223,58.102 146.68,58.102 12.586,0 25.129,-1.192 37.492,-3.414 z M 863.266,728.02 C 845.004,789.551 803.93,840.25 747.641,870.742 712.66,889.73 673.195,899.75 633.551,899.75 545.16,899.75 464.176,851.613 422.16,774.133 l -20.969,-38.625 c -20.39,-37.637 -6.367,-84.867 31.258,-105.289 11.332,-6.153 24.078,-9.391 36.91,-9.391 28.555,0 54.766,15.582 68.36,40.66 l 20.949,38.621 c 14.82,27.371 43.445,44.368 74.676,44.368 13.984,0 27.922,-3.539 40.285,-10.231 41.062,-22.277 56.375,-73.875 34.109,-114.996 L 434.176,114.672 c -9.895,-18.2306 -12.082,-39.2189 -6.196,-59.09 5.911,-19.9023 19.219,-36.289 37.454,-46.17184 11.328,-6.15235 24.121,-9.41406625 36.953,-9.41406625 v 0 c 28.547,0 54.718,15.58590625 68.281,40.64450625 L 844.262,545.27 c 30.527,56.296 37.265,121.21 19.004,182.75" /></g></g></svg>