<?xml version="1.0" encoding="UTF-8" standalone="no"?>
<svg
   xmlns:dc="http://purl.org/dc/elements/1.1/"
   xmlns:cc="http://creativecommons.org/ns#"
   xmlns:rdf="http://www.w3.org/1999/02/22-rdf-syntax-ns#"
   xmlns:svg="http://www.w3.org/2000/svg"
   xmlns="http://www.w3.org/2000/svg"
   viewBox="0 0 553.5733 500.26666"
   height="40"
   width="47"
   xml:space="preserve"
   id="svg2" class="svg2 svg2_active"
   version="1.1">
   <style>
    .svg2{
      cursor: pointer;
      overflow:hidden;
      padding: 1px 0;
    }
    .svg2_active path{
      stroke: #a91c5f !important;
    }
    <!-- .svg2:hover{
      filter: drop-shadow( 0px 0px 1px #3b205c);
    }
    .svg2:hover path{
      stroke: #3a424b !important;
    } -->
   </style><metadata
     id="metadata8"><rdf:RDF><cc:Work
         rdf:about=""><dc:format>image/svg+xml</dc:format><dc:type
           rdf:resource="http://purl.org/dc/dcmitype/StillImage" /></cc:Work></rdf:RDF></metadata><defs
     id="defs6" /><g
     transform="matrix(1.3333333,0,0,-1.3333333,0,483.26667)"
     id="g10"><g
       transform="scale(0.1)"
       id="g12"><path
         id="path14"
         style="fill:none;stroke:#3a424b;stroke-width:210;stroke-linecap:butt;stroke-linejoin:miter;stroke-miterlimit:10;stroke-dasharray:none;stroke-opacity:1"
         d="m 4046.76,2455.07 c 0,587.9 -476.6,1064.46 -1064.49,1064.46 -383.87,0 -719.11,-203.87 -906.41,-508.56 -187.27,304.69 -522.66,508.56 -906.52,508.56 C 581.449,3519.53 105,3042.97 105,2455.07 105,2135 246.84,1848.67 470.352,1653.67 L 1978.71,145.23 c 25.78,-25.742 60.7,-40.23 97.15,-40.23 36.44,0 71.37,14.488 97.15,40.23 l 1508.36,1508.44 c 223.55,195 365.39,481.33 365.39,801.4 z" /></g></g></svg>