<?xml version="1.0" encoding="UTF-8" standalone="no"?>
<svg
   xmlns:dc="http://purl.org/dc/elements/1.1/"
   xmlns:cc="http://creativecommons.org/ns#"
   xmlns:rdf="http://www.w3.org/1999/02/22-rdf-syntax-ns#"
   xmlns:svg="http://www.w3.org/2000/svg"
   xmlns="http://www.w3.org/2000/svg"
   viewBox="0 0 124.72 53.893333"
   height="21"
   width="21"
   xml:space="preserve"
   id="svg2"
   version="1.1"><metadata
     id="metadata8"><rdf:RDF><cc:Work
         rdf:about=""><dc:format>image/svg+xml</dc:format><dc:type
           rdf:resource="http://purl.org/dc/dcmitype/StillImage" /></cc:Work></rdf:RDF></metadata><defs
     id="defs6" /><g
     transform="matrix(1.3333333,0,0,-1.3333333,0,53.893333)"
     id="g10"><g
       transform="scale(0.1)"
       id="g12"><path
         id="path14"
         style="fill:#a91c5f;fill-opacity:1;fill-rule:nonzero;stroke:none"
         d="m 0.00390625,264.355 c 0,0 242.68709375,71.387 287.64409375,75.754 44.957,4.371 277.79,-9.863 277.79,-9.863 0,0 190.671,39.449 228.476,65.75 18.074,8.223 84.52,8.223 84.52,8.223 0,0 14.004,-47.821 12.402,-69.934 0,0 -129.793,-60.504 -221.844,-119.383 -55.89,-37.519 -88.762,3.575 -289.297,-98.339 C 346.824,103.621 313.949,49.1797 313.949,49.1797 L 287.648,65.6133 276.145,49.1797 262.996,60.6836 244.914,49.1797 228.473,57.3906 213.684,39.3164 200.535,52.4609 184.094,26.1602 161.082,42.5977 149.578,26.1602 134.781,34.3828 116.699,14.6563 108.484,42.5977 60.8164,47.5273 c 0,0 212.0386,134.7857 267.9256,154.5117 55.883,19.723 289.293,37.805 333.676,82.184 0,0 -69.043,-11.504 -151.219,-4.926 -82.191,6.57 -166.019,-1.649 -263,-69.863 l -18.082,20.55 -21.363,-21.265 -13.152,22.906 -23.012,-16.723 -9.863,16.723 L 144.645,214.902 131.496,233.27 115.063,214.902 92.0469,238.203 72.3203,223.406 59.6836,234.91 47.2813,221.762 v 27.136 L 0.00390625,264.355" /><path
         id="path16"
         style="fill:none;stroke:#131212;stroke-width:10;stroke-linecap:butt;stroke-linejoin:miter;stroke-miterlimit:10;stroke-dasharray:none;stroke-opacity:1"
         d="m 880.504,396.742 c 0,0 48.195,7.477 49.836,-25.402 1.64,-32.875 -61.074,-37.356 -61.074,-37.356 z" /><path
         id="path18"
         style="fill:#a91c5f;fill-opacity:1;fill-rule:nonzero;stroke:none"
         d="M 899.82,343.984 677.203,0 l 238.34,343.984 -24.707,0.301 8.984,-0.301" /></g></g></svg>