<?xml version="1.0" encoding="UTF-8" standalone="no"?>
<svg
   xmlns:dc="http://purl.org/dc/elements/1.1/"
   xmlns:cc="http://creativecommons.org/ns#"
   xmlns:rdf="http://www.w3.org/1999/02/22-rdf-syntax-ns#"
   xmlns:svg="http://www.w3.org/2000/svg"
   xmlns="http://www.w3.org/2000/svg"
   viewBox="0 0 504.79999 416.89999"
   height="17"
   width="21"
   xml:space="preserve"
   version="1.1"
   id="svg2"><metadata
     id="metadata8"><rdf:RDF><cc:Work
         rdf:about=""><dc:format>image/svg+xml</dc:format><dc:type
           rdf:resource="http://purl.org/dc/dcmitype/StillImage" /></cc:Work></rdf:RDF></metadata><defs
     id="defs6" /><g
     transform="matrix(1.25,0,0,-1.25,0,416.9)"
     id="g10"><g
       transform="scale(0.1,0.1)"
       id="g12"><path
         id="path14"
         style="fill:#b91659;fill-opacity:1;fill-rule:nonzero;stroke:none"
         d="m 1480,2866.14 0,-1492.43 127.92,-113.71 1350.3,0 163.45,135.03 -7.11,1471.11 -1634.56,0" /><path
         id="path16"
         style="fill:#a61655;fill-opacity:1;fill-rule:nonzero;stroke:none"
         d="m 3768.39,3335.19 0,-1364.51 -653.83,-582.75 0,1464 653.83,483.26" /><path
         id="path18"
         style="fill:#861445;fill-opacity:1;fill-rule:nonzero;stroke:none"
         d="m 1480,2866.14 596.98,469.05 1691.41,0 -639.61,-483.26 -1648.78,14.21" /><path
         id="path20"
         style="fill:#cb0f72;fill-opacity:1;fill-rule:nonzero;stroke:none"
         d="m 1480,2482.37 1634.56,0 0,369.555 -1634.56,0 0,-369.555 z" /><path
         id="path22"
         style="fill:#861445;fill-opacity:1;fill-rule:nonzero;stroke:none"
         d="m 3768.39,2965.64 -653.83,-483.27 0,369.56 653.83,483.26 0,-369.55" /><path
         id="path24"
         style="fill:#b91659;fill-opacity:1;fill-rule:nonzero;stroke:none"
         d="M 0,1986.14 0,493.711 127.922,380 l 1350.298,0 163.45,135.031 -7.1,1471.109 -1634.57,0" /><path
         id="path26"
         style="fill:#a61655;fill-opacity:1;fill-rule:nonzero;stroke:none"
         d="m 2288.39,2455.19 0,-1364.51 -653.82,-582.75 0,1464 653.82,483.26" /><path
         id="path28"
         style="fill:#861445;fill-opacity:1;fill-rule:nonzero;stroke:none"
         d="m 0,1986.14 596.973,469.05 1691.417,0 L 1648.78,1971.93 0,1986.14" /><path
         id="path30"
         style="fill:#cb0f72;fill-opacity:1;fill-rule:nonzero;stroke:none"
         d="m 0,1602.37 1634.57,0 0,369.559 -1634.57,0 0,-369.559 z" /><path
         id="path32"
         style="fill:#861445;fill-opacity:1;fill-rule:nonzero;stroke:none"
         d="m 2288.39,2085.64 -653.82,-483.27 0,369.56 653.82,483.26 0,-369.55" /><path
         id="path34"
         style="fill:#413e3d;fill-opacity:1;fill-rule:nonzero;stroke:none"
         d="m 1777.17,1525.46 c 151.61,108.97 303.22,217.94 454.84,326.91 15.53,11.17 0.57,37.2 -15.15,25.91 -151.61,-108.98 -303.22,-217.95 -454.84,-326.92 -15.53,-11.17 -0.57,-37.2 15.15,-25.9 151.61,108.97 303.22,217.94 454.84,326.91 15.53,11.17 0.57,37.2 -15.15,25.91 -151.61,-108.98 -303.22,-217.95 -454.84,-326.92 -15.53,-11.17 -0.57,-37.2 15.15,-25.9" /><path
         id="path36"
         style="fill:#413e3d;fill-opacity:1;fill-rule:nonzero;stroke:none"
         d="m 1805.59,1624.96 c 151.62,108.97 303.23,217.94 454.84,326.91 15.54,11.16 0.58,37.2 -15.14,25.9 -151.62,-108.97 -303.23,-217.94 -454.84,-326.91 -15.53,-11.17 -0.57,-37.2 15.14,-25.9 151.62,108.97 303.23,217.94 454.84,326.91 15.54,11.16 0.58,37.2 -15.14,25.9 -151.62,-108.97 -303.23,-217.94 -454.84,-326.91 -15.53,-11.17 -0.57,-37.2 15.14,-25.9" /><path
         id="path38"
         style="fill:#413e3d;fill-opacity:1;fill-rule:nonzero;stroke:none"
         d="m 1947.73,1553.88 c 92.39,63.97 184.78,127.93 277.17,191.89 15.77,10.92 0.79,36.93 -15.14,25.91 -92.39,-63.97 -184.79,-127.93 -277.17,-191.89 -15.77,-10.92 -0.79,-36.93 15.14,-25.91 92.39,63.97 184.78,127.93 277.17,191.89 15.77,10.92 0.79,36.93 -15.14,25.91 -92.39,-63.97 -184.79,-127.93 -277.17,-191.89 -15.77,-10.92 -0.79,-36.93 15.14,-25.91" /><path
         id="path40"
         style="fill:#b91659;fill-opacity:1;fill-rule:nonzero;stroke:none"
         d="M 1750,1606.14 1750,113.711 1877.92,0 l 1350.3,0 163.45,135.031 -7.11,1471.109 -1634.56,0" /><path
         id="path42"
         style="fill:#a61655;fill-opacity:1;fill-rule:nonzero;stroke:none"
         d="m 4038.39,2075.19 0,-1364.51 -653.83,-582.75 0,1464 653.83,483.26" /><path
         id="path44"
         style="fill:#861445;fill-opacity:1;fill-rule:nonzero;stroke:none"
         d="m 1750,1606.14 596.98,469.05 1691.41,0 -639.61,-483.26 -1648.78,14.21" /><path
         id="path46"
         style="fill:#cb0f72;fill-opacity:1;fill-rule:nonzero;stroke:none"
         d="m 1750,1222.37 1634.56,0 0,369.559 -1634.56,0 0,-369.559 z" /><path
         id="path48"
         style="fill:#861445;fill-opacity:1;fill-rule:nonzero;stroke:none"
         d="m 4038.39,1705.64 -653.83,-483.27 0,369.56 653.83,483.26 0,-369.55" /></g></g></svg>