<?xml version="1.0" encoding="UTF-8" standalone="no"?>
<svg
   xmlns:dc="http://purl.org/dc/elements/1.1/"
   xmlns:cc="http://creativecommons.org/ns#"
   xmlns:rdf="http://www.w3.org/1999/02/22-rdf-syntax-ns#"
   xmlns:svg="http://www.w3.org/2000/svg"
   xmlns="http://www.w3.org/2000/svg"
   viewBox="0 0 538.45331 444.69333"
   height="17"
   width="21"
   xml:space="preserve"
   id="svg2"
   version="1.1"><metadata
     id="metadata8"><rdf:RDF><cc:Work
         rdf:about=""><dc:format>image/svg+xml</dc:format><dc:type
           rdf:resource="http://purl.org/dc/dcmitype/StillImage" /></cc:Work></rdf:RDF></metadata><defs
     id="defs6" /><g
     transform="matrix(1.3333333,0,0,-1.3333333,0,444.69333)"
     id="g10"><g
       transform="scale(0.1)"
       id="g12"><path
         id="path14"
         style="fill:#ae1476;fill-opacity:1;fill-rule:nonzero;stroke:none"
         d="M 1480,2866.14 V 1373.71 L 1607.92,1260 h 1350.3 l 163.45,135.03 -7.11,1471.11 H 1480" /><path
         id="path16"
         style="fill:#951669;fill-opacity:1;fill-rule:nonzero;stroke:none"
         d="M 3768.39,3335.19 V 1970.68 l -653.83,-582.75 v 1464 l 653.83,483.26" /><path
         id="path18"
         style="fill:#89165f;fill-opacity:1;fill-rule:nonzero;stroke:none"
         d="m 1480,2866.14 596.98,469.05 H 3768.39 L 3128.78,2851.93 1480,2866.14" /><path
         id="path20"
         style="fill:#b61083;fill-opacity:1;fill-rule:nonzero;stroke:none"
         d="M 3114.56,2482.37 H 1480 v 369.56 h 1634.56 v -369.56" /><path
         id="path22"
         style="fill:#b61083;fill-opacity:1;fill-rule:nonzero;stroke:none"
         d="m 2609.98,2319.7 c -177.66,0 -355.34,0 -533,0 -12.03,0 -21.09,-17.1 -10.61,-25.61 40.2,-32.66 90.07,-95.97 143.75,-96.78 171.62,-2.57 343.5,0 515.14,0 41.95,0 102.81,-11.51 141.06,6.67 26.83,12.75 52.29,33.83 77.15,49.92 52.45,33.93 104.9,67.87 157.34,101.81 12.22,7.91 7.8,27.95 -7.56,27.95 -241.64,0 -483.27,0 -724.9,0 2.52,-9.31 5.05,-18.63 7.57,-27.95 47.38,30.8 94.76,61.59 142.14,92.39 12.19,7.92 7.81,27.95 -7.57,27.95 -331.65,0 -663.3,0 -994.95,0 -19.31,0 -19.34,-30 0,-30 331.65,0 663.3,0 994.95,0 -2.53,9.32 -5.05,18.63 -7.58,27.96 -47.37,-30.8 -94.75,-61.6 -142.13,-92.4 -12.18,-7.91 -7.81,-27.95 7.57,-27.95 241.63,0 483.26,0 724.9,0 -2.52,9.32 -5.05,18.64 -7.57,27.95 -47.1,-30.47 -94.21,-60.95 -141.31,-91.43 -27.64,-17.88 -54.87,-38.78 -83.93,-54.3 -36.09,-19.29 -84.08,-8.57 -125.46,-8.57 -155.51,0 -311.03,0 -466.54,0 -20.6,0 -55.95,-6.01 -72.92,0.29 -12.14,4.52 -25.83,21 -35.75,29.05 -24.06,19.56 -48.13,39.11 -72.19,58.66 -3.53,-8.54 -7.07,-17.07 -10.6,-25.61 177.66,0 355.34,0 533,0 19.31,0 19.34,30 0,30 v 0" /><path
         id="path24"
         style="fill:#89165f;fill-opacity:1;fill-rule:nonzero;stroke:none"
         d="m 3768.39,2965.64 -653.83,-483.27 v 369.56 l 653.83,483.26 v -369.55" /><path
         id="path26"
         style="fill:#671349;fill-opacity:1;fill-rule:nonzero;stroke:none"
         d="m 3389.95,2391.23 454.84,326.91 -454.84,-326.91" /><path
         id="path28"
         style="fill:#671349;fill-opacity:1;fill-rule:nonzero;stroke:none"
         d="m 3532.08,2320.16 277.17,191.88 -277.17,-191.88" /><path
         id="path30"
         style="fill:#ae1476;fill-opacity:1;fill-rule:nonzero;stroke:none"
         d="M 0,1986.14 V 493.711 L 127.922,380 H 1478.22 l 163.45,135.031 -7.1,1471.109 H 0" /><path
         id="path32"
         style="fill:#951669;fill-opacity:1;fill-rule:nonzero;stroke:none"
         d="M 2288.39,2455.19 V 1090.68 L 1634.57,507.93 v 1464 l 653.82,483.26" /><path
         id="path34"
         style="fill:#89165f;fill-opacity:1;fill-rule:nonzero;stroke:none"
         d="m 0,1986.14 596.973,469.05 H 2288.39 L 1648.78,1971.93 0,1986.14" /><path
         id="path36"
         style="fill:#b61083;fill-opacity:1;fill-rule:nonzero;stroke:none"
         d="M 1634.57,1602.37 H 0 v 369.56 h 1634.57 v -369.56" /><path
         id="path38"
         style="fill:#b61083;fill-opacity:1;fill-rule:nonzero;stroke:none"
         d="m 1129.98,1439.7 c -177.667,0 -355.339,0 -533.007,0 -12.02,0 -21.082,-17.1 -10.61,-25.6 40.207,-32.67 90.078,-95.98 143.758,-96.79 171.625,-2.57 343.489,0 515.139,0 41.95,0 102.8,-11.5 141.07,6.67 26.82,12.75 52.28,33.83 77.14,49.91 52.45,33.95 104.9,67.88 157.35,101.82 12.21,7.9 7.79,27.95 -7.57,27.95 -241.64,0 -483.27,0 -724.898,0 2.527,-9.32 5.05,-18.63 7.57,-27.95 47.383,30.8 94.762,61.59 142.138,92.39 12.18,7.92 7.81,27.95 -7.57,27.95 -331.654,0 -663.302,0 -994.9548,0 -19.3047,0 -19.336,-30 0,-30 331.6528,0 663.3008,0 994.9548,0 -2.52,9.32 -5.05,18.63 -7.57,27.95 -47.381,-30.79 -94.76,-61.59 -142.143,-92.38 -12.179,-7.92 -7.808,-27.96 7.575,-27.96 241.628,0 483.258,0 724.898,0 -2.52,9.33 -5.05,18.64 -7.57,27.96 -47.11,-30.48 -94.21,-60.96 -141.31,-91.44 -27.64,-17.89 -54.88,-38.79 -83.92,-54.3 -36.11,-19.29 -84.09,-8.57 -125.47,-8.57 -155.51,0 -311.027,0 -466.539,0 -20.589,0 -55.949,-6.01 -72.921,0.29 -12.137,4.52 -25.832,21 -35.75,29.06 -24.063,19.55 -48.125,39.1 -72.188,58.65 -3.535,-8.54 -7.074,-17.07 -10.609,-25.61 177.668,0 355.34,0 533.007,0 19.31,0 19.34,30 0,30 v 0" /><path
         id="path40"
         style="fill:#89165f;fill-opacity:1;fill-rule:nonzero;stroke:none"
         d="m 2288.39,2085.64 -653.82,-483.27 v 369.56 l 653.82,483.26 v -369.55" /><path
         id="path42"
         style="fill:#413e3d;fill-opacity:1;fill-rule:nonzero;stroke:none"
         d="m 1777.17,1525.46 c 151.61,108.97 303.22,217.94 454.84,326.91 15.53,11.17 0.57,37.2 -15.15,25.91 -151.61,-108.98 -303.22,-217.95 -454.84,-326.92 -15.53,-11.17 -0.57,-37.2 15.15,-25.9 151.61,108.97 303.22,217.94 454.84,326.91 -5.05,8.64 -10.1,17.27 -15.15,25.91 -151.61,-108.98 -303.22,-217.95 -454.84,-326.92 -15.53,-11.17 -0.57,-37.2 15.15,-25.9" /><path
         id="path44"
         style="fill:#413e3d;fill-opacity:1;fill-rule:nonzero;stroke:none"
         d="m 1805.59,1624.96 c 151.62,108.97 303.23,217.94 454.84,326.91 15.54,11.16 0.58,37.2 -15.14,25.9 -151.62,-108.97 -303.23,-217.94 -454.84,-326.91 -15.53,-11.17 -0.57,-37.2 15.14,-25.9 151.62,108.97 303.23,217.94 454.84,326.91 -5.05,8.63 -10.09,17.27 -15.14,25.9 -151.62,-108.97 -303.23,-217.94 -454.84,-326.91 -15.53,-11.17 -0.57,-37.2 15.14,-25.9" /><path
         id="path46"
         style="fill:#413e3d;fill-opacity:1;fill-rule:nonzero;stroke:none"
         d="m 1947.73,1553.88 c 92.39,63.97 184.78,127.93 277.17,191.89 15.77,10.92 0.79,36.93 -15.14,25.91 -92.39,-63.97 -184.79,-127.93 -277.17,-191.89 -15.77,-10.92 -0.79,-36.93 15.14,-25.91 92.39,63.97 184.78,127.93 277.17,191.89 -5.05,8.64 -10.09,17.27 -15.14,25.91 -92.39,-63.97 -184.79,-127.93 -277.17,-191.89 -15.77,-10.92 -0.79,-36.93 15.14,-25.91" /><path
         id="path48"
         style="fill:#ae1476;fill-opacity:1;fill-rule:nonzero;stroke:none"
         d="M 1750,1606.14 V 113.711 L 1877.92,0 h 1350.3 l 163.45,135.031 -7.11,1471.109 H 1750" /><path
         id="path50"
         style="fill:#951669;fill-opacity:1;fill-rule:nonzero;stroke:none"
         d="M 4038.39,2075.19 V 710.68 L 3384.56,127.93 v 1464 l 653.83,483.26" /><path
         id="path52"
         style="fill:#89165f;fill-opacity:1;fill-rule:nonzero;stroke:none"
         d="m 1750,1606.14 596.98,469.05 H 4038.39 L 3398.78,1591.93 1750,1606.14" /><path
         id="path54"
         style="fill:#b61083;fill-opacity:1;fill-rule:nonzero;stroke:none"
         d="M 3384.56,1222.37 H 1750 v 369.56 h 1634.56 v -369.56" /><path
         id="path56"
         style="fill:#b61083;fill-opacity:1;fill-rule:nonzero;stroke:none"
         d="m 2879.98,1059.7 c -177.66,0 -355.34,0 -533,0 -12.03,0 -21.09,-17.1 -10.61,-25.6 40.2,-32.67 90.07,-95.979 143.75,-96.791 171.62,-2.567 343.5,0 515.14,0 41.95,0 102.81,-11.5 141.06,6.671 26.83,12.75 52.29,33.829 77.15,49.911 52.45,33.949 104.9,67.879 157.34,101.819 12.22,7.9 7.8,27.95 -7.56,27.95 -241.64,0 -483.27,0 -724.9,0 2.52,-9.32 5.05,-18.63 7.57,-27.95 47.38,30.8 94.76,61.59 142.14,92.39 12.19,7.92 7.81,27.95 -7.57,27.95 -331.65,0 -663.31,0 -994.95,0 -19.31,0 -19.34,-30 0,-30 331.64,0 663.3,0 994.95,0 -2.53,9.32 -5.05,18.63 -7.58,27.95 -47.37,-30.79 -94.75,-61.59 -142.13,-92.38 -12.18,-7.92 -7.81,-27.96 7.57,-27.96 241.63,0 483.26,0 724.9,0 -2.52,9.33 -5.05,18.64 -7.57,27.96 -47.1,-30.48 -94.21,-60.96 -141.31,-91.44 -27.64,-17.89 -54.87,-38.789 -83.93,-54.301 -36.09,-19.289 -84.08,-8.57 -125.46,-8.57 -155.51,0 -311.03,0 -466.54,0 -20.6,0 -55.95,-6.008 -72.92,0.293 -12.14,4.519 -25.83,21 -35.75,29.058 -24.06,19.55 -48.13,39.1 -72.19,58.65 -3.53,-8.54 -7.07,-17.07 -10.6,-25.61 177.66,0 355.34,0 533,0 19.31,0 19.34,30 0,30 v 0" /><path
         id="path58"
         style="fill:#89165f;fill-opacity:1;fill-rule:nonzero;stroke:none"
         d="m 4038.39,1705.64 -653.83,-483.27 v 369.56 l 653.83,483.26 v -369.55" /><path
         id="path60"
         style="fill:#ce1794;fill-opacity:1;fill-rule:nonzero;stroke:none"
         d="m 1798.03,1182.28 c 331.64,0 663.3,0 994.95,0 19.3,0 19.34,30 0,30 -331.65,0 -663.31,0 -994.95,0 -19.31,0 -19.34,-30 0,-30 v 0" /><path
         id="path62"
         style="fill:#ce1794;fill-opacity:1;fill-rule:nonzero;stroke:none"
         d="m 2650.84,1089.9 c 241.63,0 483.26,0 724.9,0 19.3,0 19.33,30 0,30 -241.64,0 -483.27,0 -724.9,0 -19.3,0 -19.33,-30 0,-30 v 0" /><path
         id="path64"
         style="fill:#ce1794;fill-opacity:1;fill-rule:nonzero;stroke:none"
         d="m 2359.47,1025.93 c 177.66,0 355.34,0 533,0 19.31,0 19.34,30 0,30 -177.66,0 -355.34,0 -533,0 -19.31,0 -19.34,-30 0,-30 v 0" /><path
         id="path66"
         style="fill:#ce1794;fill-opacity:1;fill-rule:nonzero;stroke:none"
         d="m 2473.17,933.539 c 220.31,0 440.62,0 660.93,0 19.31,0 19.34,30 0,30 -220.31,0 -440.62,0 -660.93,0 -19.3,0 -19.33,-30 0,-30 v 0" /><path
         id="path68"
         style="fill:#671349;fill-opacity:1;fill-rule:nonzero;stroke:none"
         d="m 3532.08,1154.65 454.85,326.91 -454.85,-326.91" /><path
         id="path70"
         style="fill:#671349;fill-opacity:1;fill-rule:nonzero;stroke:none"
         d="m 3560.51,1254.14 454.84,326.91 -454.84,-326.91" /><path
         id="path72"
         style="fill:#671349;fill-opacity:1;fill-rule:nonzero;stroke:none"
         d="m 3702.65,1183.07 277.17,191.89 -277.17,-191.89" /></g></g></svg>