<?xml version="1.0" encoding="UTF-8" standalone="no"?>
<svg
   xmlns:dc="http://purl.org/dc/elements/1.1/"
   xmlns:cc="http://creativecommons.org/ns#"
   xmlns:rdf="http://www.w3.org/1999/02/22-rdf-syntax-ns#"
   xmlns:svg="http://www.w3.org/2000/svg"
   xmlns="http://www.w3.org/2000/svg"
   viewBox="0 0 2225.7732 812"
   height="812"
   width="2225.7732"
   xml:space="preserve"
   id="svg2"
   version="1.1"><metadata
     id="metadata8"><rdf:RDF><cc:Work
         rdf:about=""><dc:format>image/svg+xml</dc:format><dc:type
           rdf:resource="http://purl.org/dc/dcmitype/StillImage" /></cc:Work></rdf:RDF></metadata><defs
     id="defs6"><clipPath
       id="clipPath20"
       clipPathUnits="userSpaceOnUse"><path
         id="path18"
         d="M 0,609 H 1669.333 V 0 H 0 Z" /></clipPath><clipPath
       id="clipPath88"
       clipPathUnits="userSpaceOnUse"><path
         id="path86"
         d="m 313.091,394.783 h 62.476 v -82.48 h -62.476 z" /></clipPath><clipPath
       id="clipPath92"
       clipPathUnits="userSpaceOnUse"><path
         id="path90"
         d="m 375.567,353.543 c 0,22.776 -13.986,41.24 -31.238,41.24 -17.252,0 -31.238,-18.464 -31.238,-41.24 0,-22.776 13.986,-41.24 31.238,-41.24 17.252,0 31.238,18.464 31.238,41.24" /></clipPath><clipPath
       id="clipPath96"
       clipPathUnits="userSpaceOnUse"><path
         id="path94"
         d="M -32768,32767 H 32767 V -32768 H -32768 Z" /></clipPath><radialGradient
       id="radialGradient104"
       spreadMethod="pad"
       gradientTransform="matrix(31.237976,0,0,-41.240284,344.32919,353.54288)"
       gradientUnits="userSpaceOnUse"
       r="1"
       cy="0"
       cx="0"
       fy="0"
       fx="0"><stop
         id="stop98"
         offset="0"
         style="stop-opacity:1;stop-color:#ffffff" /><stop
         id="stop100"
         offset="0.07039006"
         style="stop-opacity:1;stop-color:#ffffff" /><stop
         id="stop102"
         offset="1"
         style="stop-opacity:0;stop-color:#ffffff" /></radialGradient><mask
       id="mask106"
       height="1"
       width="1"
       y="0"
       x="0"
       maskUnits="userSpaceOnUse"><g
         id="g116"><g
           id="g114"
           clip-path="url(#clipPath96)"><g
             id="g112"><g
               id="g110"><path
                 id="path108"
                 style="fill:url(#radialGradient104);stroke:none"
                 d="M -32768,32767 H 32767 V -32768 H -32768 Z" /></g></g></g></g></mask><radialGradient
       id="radialGradient124"
       spreadMethod="pad"
       gradientTransform="matrix(31.237976,0,0,-41.240284,344.32919,353.54288)"
       gradientUnits="userSpaceOnUse"
       r="1"
       cy="0"
       cx="0"
       fy="0"
       fx="0"><stop
         id="stop118"
         offset="0"
         style="stop-opacity:1;stop-color:#ffffff" /><stop
         id="stop120"
         offset="0.07039006"
         style="stop-opacity:1;stop-color:#ffffff" /><stop
         id="stop122"
         offset="1"
         style="stop-opacity:1;stop-color:#231f20" /></radialGradient><clipPath
       id="clipPath150"
       clipPathUnits="userSpaceOnUse"><path
         id="path148"
         d="m 292.734,115.71 h 77.919 V 33.229 h -77.919 z" /></clipPath><clipPath
       id="clipPath154"
       clipPathUnits="userSpaceOnUse"><path
         id="path152"
         d="m 370.653,74.47 c 0,22.776 -17.442,41.24 -38.96,41.24 -21.516,0 -38.96,-18.464 -38.96,-41.24 0,-22.777 17.444,-41.241 38.96,-41.241 21.518,0 38.96,18.464 38.96,41.241" /></clipPath><clipPath
       id="clipPath158"
       clipPathUnits="userSpaceOnUse"><path
         id="path156"
         d="M -32768,32767 H 32767 V -32768 H -32768 Z" /></clipPath><radialGradient
       id="radialGradient166"
       spreadMethod="pad"
       gradientTransform="matrix(38.959724,0,0,-41.240284,331.6936,74.469322)"
       gradientUnits="userSpaceOnUse"
       r="1"
       cy="0"
       cx="0"
       fy="0"
       fx="0"><stop
         id="stop160"
         offset="0"
         style="stop-opacity:1;stop-color:#ffffff" /><stop
         id="stop162"
         offset="0.07039006"
         style="stop-opacity:1;stop-color:#ffffff" /><stop
         id="stop164"
         offset="1"
         style="stop-opacity:0;stop-color:#ffffff" /></radialGradient><mask
       id="mask168"
       height="1"
       width="1"
       y="0"
       x="0"
       maskUnits="userSpaceOnUse"><g
         id="g178"><g
           id="g176"
           clip-path="url(#clipPath158)"><g
             id="g174"><g
               id="g172"><path
                 id="path170"
                 style="fill:url(#radialGradient166);stroke:none"
                 d="M -32768,32767 H 32767 V -32768 H -32768 Z" /></g></g></g></g></mask><radialGradient
       id="radialGradient186"
       spreadMethod="pad"
       gradientTransform="matrix(38.959724,0,0,-41.240284,331.6936,74.469322)"
       gradientUnits="userSpaceOnUse"
       r="1"
       cy="0"
       cx="0"
       fy="0"
       fx="0"><stop
         id="stop180"
         offset="0"
         style="stop-opacity:1;stop-color:#ffffff" /><stop
         id="stop182"
         offset="0.07039006"
         style="stop-opacity:1;stop-color:#ffffff" /><stop
         id="stop184"
         offset="1"
         style="stop-opacity:1;stop-color:#231f20" /></radialGradient><clipPath
       id="clipPath212"
       clipPathUnits="userSpaceOnUse"><path
         id="path210"
         d="M 267.16,294.22 H 421.498 V 255.912 H 267.16 Z" /></clipPath><clipPath
       id="clipPath216"
       clipPathUnits="userSpaceOnUse"><path
         id="path214"
         d="m 421.491,279.437 c -0.583,10.296 -35.602,16.687 -78.218,14.273 -42.615,-2.414 -76.689,-12.718 -76.106,-23.015 0.584,-10.297 35.603,-16.686 78.218,-14.273 42.616,2.414 76.689,12.718 76.106,23.015" /></clipPath><clipPath
       id="clipPath220"
       clipPathUnits="userSpaceOnUse"><path
         id="path218"
         d="M -32768,32767 H 32767 V -32768 H -32768 Z" /></clipPath><radialGradient
       id="radialGradient228"
       spreadMethod="pad"
       gradientTransform="matrix(77.161903,4.3704572,1.0559958,-18.643965,344.32919,275.06607)"
       gradientUnits="userSpaceOnUse"
       r="1"
       cy="0"
       cx="0"
       fy="0"
       fx="0"><stop
         id="stop222"
         offset="0"
         style="stop-opacity:1;stop-color:#ffffff" /><stop
         id="stop224"
         offset="0.07039006"
         style="stop-opacity:1;stop-color:#ffffff" /><stop
         id="stop226"
         offset="1"
         style="stop-opacity:0;stop-color:#ffffff" /></radialGradient><mask
       id="mask230"
       height="1"
       width="1"
       y="0"
       x="0"
       maskUnits="userSpaceOnUse"><g
         id="g240"><g
           id="g238"
           clip-path="url(#clipPath220)"><g
             id="g236"><g
               id="g234"><path
                 id="path232"
                 style="fill:url(#radialGradient228);stroke:none"
                 d="M -32768,32767 H 32767 V -32768 H -32768 Z" /></g></g></g></g></mask><radialGradient
       id="radialGradient248"
       spreadMethod="pad"
       gradientTransform="matrix(77.161903,4.3704572,1.0559958,-18.643965,344.32919,275.06607)"
       gradientUnits="userSpaceOnUse"
       r="1"
       cy="0"
       cx="0"
       fy="0"
       fx="0"><stop
         id="stop242"
         offset="0"
         style="stop-opacity:1;stop-color:#ffffff" /><stop
         id="stop244"
         offset="0.07039006"
         style="stop-opacity:1;stop-color:#ffffff" /><stop
         id="stop246"
         offset="1"
         style="stop-opacity:1;stop-color:#231f20" /></radialGradient></defs><g
     transform="matrix(1.3333333,0,0,-1.3333333,0,812)"
     id="g10"><path
       id="path12"
       style="fill:#ffffff;fill-opacity:1;fill-rule:nonzero;stroke:none"
       d="M 0,0 H 1669.333 V 609 H 0 Z" /><g
       id="g14"><g
         clip-path="url(#clipPath20)"
         id="g16"><g
           transform="translate(632.5986,281.5234)"
           id="g22"><path
             id="path24"
             style="fill:#291644;fill-opacity:1;fill-rule:nonzero;stroke:none"
             d="m 0,0 c 0.693,-7.648 2.45,-14.063 5.267,-19.242 2.815,-5.18 6.239,-9.334 10.272,-12.463 4.031,-3.129 8.482,-5.371 13.35,-6.726 4.866,-1.356 9.699,-2.034 14.496,-2.034 4.239,0 8.186,0.486 11.837,1.46 3.65,0.973 6.779,2.45 9.386,4.433 2.607,1.981 4.658,4.448 6.154,7.405 1.494,2.953 2.242,6.448 2.242,10.48 0,4.797 -1.043,8.952 -3.129,12.464 -2.085,3.51 -4.902,6.691 -8.447,9.541 -3.546,2.852 -7.684,5.493 -12.411,7.927 -4.73,2.434 -9.736,4.971 -15.019,7.613 -3.616,1.738 -7.213,3.546 -10.794,5.424 -3.582,1.877 -7.005,3.893 -10.272,6.049 -3.27,2.154 -6.31,4.484 -9.126,6.987 -2.816,2.504 -5.267,5.284 -7.353,8.344 -2.086,3.059 -3.72,6.414 -4.901,10.064 -1.184,3.65 -1.773,7.666 -1.773,12.045 0,7.44 1.651,14.237 4.953,20.39 3.302,6.153 7.804,11.436 13.506,15.853 5.7,4.414 12.393,7.838 20.076,10.272 7.683,2.433 15.87,3.651 24.562,3.651 5.699,0 11.454,-0.488 17.26,-1.46 5.803,-0.975 10.932,-2.157 15.384,-3.547 0.902,-0.349 1.631,-0.661 2.189,-0.938 0.556,-0.279 0.973,-0.626 1.251,-1.043 0.277,-0.418 0.47,-0.939 0.574,-1.564 0.104,-0.626 0.156,-1.461 0.156,-2.504 V 95.323 c 0,-3.477 0.035,-7.162 0.105,-11.054 0.069,-3.896 0.173,-7.441 0.312,-10.638 L 80.93,72.797 c -1.46,11.54 -5.284,20.092 -11.472,25.655 -6.189,5.562 -14.671,8.343 -25.447,8.343 -4.172,0 -8.083,-0.435 -11.734,-1.303 -3.65,-0.87 -6.831,-2.278 -9.543,-4.223 -2.711,-1.949 -4.849,-4.433 -6.414,-7.457 -1.564,-3.026 -2.345,-6.66 -2.345,-10.899 0,-4.798 0.991,-8.987 2.971,-12.567 1.982,-3.582 4.676,-6.832 8.084,-9.751 3.406,-2.921 7.404,-5.616 11.993,-8.083 4.589,-2.469 9.491,-4.955 14.705,-7.457 5.84,-2.852 11.611,-5.772 17.313,-8.761 5.699,-2.99 10.811,-6.38 15.331,-10.169 4.519,-3.79 8.169,-8.152 10.95,-13.088 2.781,-4.938 4.172,-10.742 4.172,-17.417 0,-5.076 -0.835,-9.787 -2.503,-14.132 -1.669,-4.345 -3.98,-8.309 -6.935,-11.888 -2.956,-3.582 -6.45,-6.78 -10.482,-9.595 -4.033,-2.818 -8.431,-5.181 -13.192,-7.093 -4.764,-1.913 -9.804,-3.372 -15.122,-4.38 -5.32,-1.007 -10.727,-1.512 -16.219,-1.512 -4.937,0 -10.082,0.382 -15.436,1.148 -5.354,0.765 -10.238,1.79 -14.652,3.075 -4.417,1.287 -8.048,2.798 -10.898,4.537 -2.852,1.738 -4.276,3.546 -4.276,5.424 v 0.312 c 0,0.21 0.034,0.731 0.104,1.564 0,0.766 0.034,1.946 0.104,3.547 0,1.528 0.034,3.702 0.104,6.518 0.069,2.817 0.173,6.344 0.313,10.585 0.139,4.242 0.278,9.387 0.418,15.436 z" /></g><g
           transform="translate(949.1045,397.4961)"
           id="g26"><path
             id="path28"
             style="fill:#291644;fill-opacity:1;fill-rule:nonzero;stroke:none"
             d="m 0,0 c 0.417,0 1.736,-0.035 3.963,-0.104 2.224,-0.07 4.832,-0.104 7.821,-0.104 4.449,0 8.814,0.104 13.09,0.313 4.275,0.208 8.082,0.416 11.419,0.625 3.338,0.209 6.049,0.418 8.135,0.626 2.086,0.208 3.198,0.314 3.339,0.314 0,-0.835 -0.141,-1.861 -0.418,-3.077 -0.28,-1.218 -1.2,-2.451 -2.764,-3.702 -1.564,-1.251 -4.085,-2.4 -7.562,-3.443 -3.476,-1.043 -8.378,-1.807 -14.705,-2.294 -0.14,-2.573 -0.208,-5.006 -0.208,-7.3 v -7.614 c 0,-6.189 0.119,-14.271 0.365,-24.248 0.243,-9.977 0.538,-21.397 0.886,-34.26 0.277,-10.917 0.538,-19.972 0.782,-27.168 0.244,-7.197 0.469,-13.125 0.678,-17.781 0.209,-4.659 0.417,-8.327 0.626,-11.004 0.208,-2.676 0.417,-4.953 0.626,-6.831 0.138,-1.946 0.4,-3.493 0.781,-4.64 0.382,-1.147 1.391,-2.086 3.026,-2.817 1.633,-0.729 4.136,-1.303 7.509,-1.72 3.371,-0.417 8.151,-0.834 14.34,-1.251 l -4.172,-9.387 c -0.766,0.07 -2.346,0.192 -4.745,0.365 -2.399,0.174 -5.25,0.331 -8.552,0.47 -3.303,0.139 -6.902,0.278 -10.794,0.417 -3.895,0.139 -7.718,0.208 -11.472,0.208 -4.521,0 -8.813,-0.086 -12.88,-0.26 -4.068,-0.173 -7.684,-0.365 -10.847,-0.575 -3.164,-0.208 -5.754,-0.416 -7.77,-0.625 -2.017,-0.139 -3.232,-0.208 -3.65,-0.208 0,0.625 0.121,1.512 0.365,2.659 0.243,1.147 1.024,2.311 2.347,3.493 1.319,1.182 3.353,2.295 6.1,3.338 2.746,1.043 6.623,1.773 11.629,2.19 0.139,2.154 0.209,4.311 0.209,6.466 v 8.135 c 0,6.675 -0.088,14.461 -0.261,23.361 -0.174,8.9 -0.435,18.842 -0.782,29.829 -0.349,10.22 -0.662,19.398 -0.938,27.533 -0.349,8.133 -0.592,15.017 -0.732,20.649 l -0.833,0.209 c -10.292,-18.913 -20.772,-38.815 -31.444,-59.708 -10.674,-20.893 -21.677,-43.056 -33.009,-66.486 -1.251,-0.138 -2.539,-0.328 -3.858,-0.573 -1.322,-0.243 -2.608,-0.539 -3.86,-0.887 -8.621,22.875 -17.938,44.828 -27.949,65.86 -10.013,21.031 -20.374,41.421 -31.08,61.168 l -0.626,-0.209 c -0.557,-6.466 -1.131,-13.297 -1.721,-20.493 -0.591,-7.196 -1.146,-14.41 -1.668,-21.641 -0.521,-7.231 -1.026,-14.305 -1.512,-21.223 -0.488,-6.919 -0.905,-13.263 -1.251,-19.033 -0.349,-5.773 -0.626,-10.831 -0.835,-15.175 -0.208,-4.346 -0.313,-7.561 -0.313,-9.647 0,-1.878 0.191,-3.389 0.573,-4.537 0.381,-1.147 1.408,-2.069 3.077,-2.764 1.67,-0.695 4.154,-1.251 7.457,-1.668 3.301,-0.417 7.874,-0.834 13.714,-1.251 l -4.171,-9.387 c -0.696,0.07 -2.018,0.192 -3.963,0.365 -1.948,0.174 -4.328,0.331 -7.144,0.47 -2.816,0.139 -5.945,0.278 -9.387,0.417 -3.441,0.139 -7.004,0.208 -10.69,0.208 -4.38,0 -8.431,-0.086 -12.149,-0.26 -3.721,-0.173 -6.954,-0.365 -9.7,-0.575 -2.747,-0.208 -4.954,-0.416 -6.622,-0.625 -1.739,-0.139 -2.78,-0.208 -3.129,-0.208 0,0.625 0.174,1.53 0.522,2.711 0.349,1.181 1.354,2.398 3.023,3.65 1.67,1.252 4.224,2.415 7.666,3.493 3.442,1.078 8.256,1.826 14.445,2.243 0.694,4.589 1.424,10.308 2.19,17.157 0.764,6.846 1.527,14.303 2.294,22.37 0.765,8.064 1.495,16.478 2.19,25.239 0.695,8.76 1.357,17.313 1.982,25.656 0.626,8.343 1.182,16.217 1.669,23.622 0.485,7.405 0.869,13.819 1.146,19.242 -2.016,2.571 -3.91,4.657 -5.682,6.257 -1.775,1.599 -3.807,2.885 -6.103,3.86 -2.294,0.971 -5.022,1.702 -8.186,2.189 -3.164,0.486 -7.144,0.903 -11.941,1.251 l 3.545,9.178 c 0.835,-0.14 2.676,-0.277 5.528,-0.416 2.85,-0.141 6.187,-0.262 10.011,-0.365 3.823,-0.105 7.858,-0.21 12.099,-0.314 4.24,-0.104 8.169,-0.156 11.785,-0.156 2.571,0 5.179,0.034 7.822,0.104 2.641,0.069 4.693,0.172 6.153,0.313 11.194,-18.913 21.814,-38.483 31.862,-58.716 10.045,-20.233 19.658,-40.919 28.837,-62.055 h 0.833 c 7.786,15.575 16.982,33.39 27.586,53.451 C -25.432,-47.054 -13.42,-24.683 0,0" /></g><g
           transform="translate(1067.2461,324.0752)"
           id="g30"><path
             id="path32"
             style="fill:#291644;fill-opacity:1;fill-rule:nonzero;stroke:none"
             d="m 0,0 c 0,-12.655 1.564,-23.987 4.693,-34 3.128,-10.012 7.543,-18.494 13.244,-25.446 5.702,-6.953 12.569,-12.273 20.599,-15.957 8.03,-3.687 16.911,-5.528 26.647,-5.528 6.743,0 13.157,0.992 19.242,2.972 6.083,1.981 11.436,5.371 16.06,10.169 4.623,4.797 8.291,11.211 11.003,19.241 2.711,8.03 4.068,18.06 4.068,30.09 0,12.723 -1.582,24.125 -4.745,34.207 -3.165,10.08 -7.597,18.615 -13.298,25.604 -5.702,6.987 -12.533,12.34 -20.493,16.06 -7.962,3.719 -16.775,5.58 -26.439,5.58 -6.744,0 -13.177,-1.026 -19.294,-3.077 C 25.169,57.864 19.798,54.405 15.174,49.539 10.55,44.671 6.865,38.204 4.12,30.14 1.372,22.074 0,12.027 0,0 m 64.558,77.385 c 11.053,0 21.447,-1.826 31.182,-5.475 9.734,-3.65 18.251,-9.006 25.552,-16.061 7.3,-7.059 13.07,-15.749 17.312,-26.074 4.241,-10.325 6.362,-22.128 6.362,-35.407 0,-10.708 -1.357,-20.355 -4.068,-28.941 -2.711,-8.588 -6.414,-16.201 -11.106,-22.84 -4.693,-6.641 -10.153,-12.358 -16.374,-17.155 -6.224,-4.798 -12.828,-8.762 -19.815,-11.891 -6.989,-3.129 -14.168,-5.423 -21.537,-6.884 -7.371,-1.459 -14.533,-2.189 -21.485,-2.189 -7.231,0 -14.219,0.765 -20.963,2.295 -6.745,1.528 -13.088,3.822 -19.032,6.883 -5.944,3.058 -11.387,6.882 -16.322,11.472 -4.938,4.589 -9.178,9.942 -12.724,16.061 -3.546,6.117 -6.294,13.001 -8.239,20.65 -1.947,7.648 -2.921,16.025 -2.921,25.135 0,11.123 1.409,21.083 4.224,29.88 2.817,8.794 6.624,16.546 11.421,23.256 4.797,6.709 10.359,12.427 16.687,17.156 6.325,4.727 12.983,8.587 19.971,11.577 6.988,2.988 14.081,5.161 21.276,6.518 7.196,1.356 14.062,2.034 20.599,2.034" /></g><g
           transform="translate(1306.8896,313.6465)"
           id="g34"><path
             id="path36"
             style="fill:#291644;fill-opacity:1;fill-rule:nonzero;stroke:none"
             d="m 0,0 c 6.742,5.423 13.384,11.07 19.919,16.946 6.535,5.875 12.828,11.629 18.877,17.262 6.604,6.325 12.01,11.627 16.218,15.903 4.205,4.277 7.524,7.823 9.96,10.638 2.433,2.815 4.101,5.022 5.006,6.623 0.903,1.598 1.355,2.885 1.355,3.859 0,0.695 -0.208,1.251 -0.625,1.668 -0.418,0.418 -1.165,0.747 -2.242,0.992 -1.08,0.242 -2.556,0.432 -4.434,0.573 -1.877,0.139 -4.241,0.277 -7.092,0.418 l 2.712,9.595 c 0.974,-0.072 2.348,-0.158 4.12,-0.262 1.773,-0.104 3.789,-0.193 6.049,-0.26 2.258,-0.071 4.71,-0.141 7.353,-0.209 2.641,-0.07 5.319,-0.104 8.03,-0.104 6.814,0 13.245,0.172 19.294,0.521 6.05,0.347 11.194,0.798 15.436,1.357 0,-1.67 -0.383,-3.181 -1.148,-4.538 -0.766,-1.356 -2.051,-2.555 -3.858,-3.598 -1.809,-1.043 -4.19,-1.913 -7.145,-2.608 -2.956,-0.695 -6.622,-1.216 -11.002,-1.563 -2.644,-2.227 -5.806,-4.99 -9.491,-8.292 C 83.606,61.618 79.661,58.002 75.455,54.075 71.248,50.146 66.92,46.079 62.471,41.873 58.021,37.665 53.727,33.563 49.59,29.566 45.453,25.567 41.576,21.778 37.962,18.198 34.346,14.617 31.287,11.54 28.784,8.968 42.968,-7.858 55.101,-22.389 65.183,-34.626 c 10.01,-12.237 18.11,-21.416 24.299,-27.533 2.155,-2.156 4.155,-3.895 5.997,-5.214 1.841,-1.322 3.946,-2.383 6.31,-3.181 2.362,-0.8 5.162,-1.408 8.396,-1.826 3.232,-0.417 7.316,-0.766 12.253,-1.043 l -4.171,-9.386 c -0.834,0.071 -2.365,0.174 -4.589,0.313 -2.226,0.141 -4.938,0.279 -8.135,0.417 -3.198,0.141 -6.745,0.262 -10.638,0.365 -3.894,0.105 -7.857,0.156 -11.888,0.156 -2.712,0 -5.46,-0.034 -8.24,-0.103 -2.782,-0.069 -5.042,-0.173 -6.779,-0.314 -11.264,14.81 -22.44,28.994 -33.53,42.552 C 23.377,-25.865 11.889,-12.725 0,0 m -2.921,3.649 v -21.067 c 0,-5.98 0.017,-11.211 0.052,-15.695 0.034,-4.486 0.068,-8.292 0.105,-11.421 0.034,-3.129 0.068,-5.823 0.104,-8.082 0.035,-2.26 0.087,-4.224 0.156,-5.893 0.069,-1.669 0.139,-3.233 0.208,-4.693 0.069,-1.946 0.296,-3.493 0.679,-4.641 0.382,-1.146 1.355,-2.086 2.92,-2.816 1.564,-0.73 3.964,-1.303 7.197,-1.721 3.232,-0.417 7.769,-0.834 13.609,-1.251 l -4.172,-9.387 c -0.764,0.071 -2.277,0.193 -4.536,0.366 -2.26,0.173 -4.99,0.331 -8.187,0.469 -3.199,0.14 -6.71,0.279 -10.533,0.417 -3.826,0.14 -7.65,0.208 -11.473,0.208 -4.729,0 -9.229,-0.086 -13.506,-0.259 -4.275,-0.173 -8.099,-0.366 -11.472,-0.576 -3.373,-0.208 -6.101,-0.416 -8.187,-0.625 -2.155,-0.138 -3.441,-0.208 -3.858,-0.208 0,0.625 0.121,1.512 0.365,2.66 0.242,1.147 1.058,2.346 2.45,3.598 1.391,1.251 3.615,2.399 6.676,3.442 3.057,1.043 7.404,1.772 13.036,2.189 0.276,2.921 0.504,6.587 0.678,11.004 0.172,4.414 0.312,9.177 0.417,14.287 0.104,5.11 0.157,10.377 0.157,15.801 v 44.532 c 0,7.787 -0.019,14.288 -0.053,19.503 -0.036,5.215 -0.088,9.402 -0.156,12.566 -0.07,3.165 -0.14,5.806 -0.208,7.927 -0.071,2.12 -0.141,4.016 -0.21,5.685 -0.069,1.598 -0.14,3.51 -0.208,5.735 -0.141,1.946 -0.365,3.477 -0.678,4.589 -0.313,1.112 -1.218,1.982 -2.711,2.607 -1.496,0.626 -3.791,1.13 -6.884,1.513 -3.094,0.381 -7.457,0.817 -13.088,1.303 l 3.545,9.178 c 0.626,-0.14 2.138,-0.278 4.537,-0.416 2.399,-0.141 5.249,-0.28 8.551,-0.418 3.302,-0.141 6.867,-0.245 10.691,-0.313 3.823,-0.07 7.439,-0.104 10.846,-0.104 5.493,0 10.499,0.104 15.019,0.313 4.519,0.208 8.377,0.416 11.575,0.625 3.198,0.209 5.701,0.418 7.51,0.626 1.808,0.208 2.816,0.314 3.024,0.314 0,-0.905 -0.156,-1.966 -0.469,-3.181 -0.312,-1.219 -1.2,-2.436 -2.66,-3.651 -1.458,-1.218 -3.72,-2.347 -6.778,-3.39 C 8.099,74.255 3.823,73.49 -1.669,73.004 -1.948,69.041 -2.175,64.938 -2.348,60.697 -2.521,56.456 -2.645,51.641 -2.712,46.253 -2.782,40.864 -2.835,34.71 -2.869,27.794 -2.904,20.874 -2.921,12.828 -2.921,3.649" /></g><g
           transform="translate(1523.1709,282.1494)"
           id="g38"><path
             id="path40"
             style="fill:#291644;fill-opacity:1;fill-rule:nonzero;stroke:none"
             d="m 0,0 c 0,3.059 -0.036,5.666 -0.105,7.821 -0.07,2.156 -0.295,4.155 -0.677,5.997 -0.384,1.842 -0.923,3.719 -1.617,5.632 -0.696,1.911 -1.686,4.136 -2.972,6.676 -1.287,2.536 -2.868,5.544 -4.745,9.02 -1.947,3.477 -4.277,7.752 -6.988,12.828 -1.53,2.851 -3.181,5.909 -4.955,9.178 -1.772,3.268 -3.719,6.813 -5.84,10.637 -2.122,3.823 -4.45,7.943 -6.988,12.36 -2.538,4.414 -5.371,9.193 -8.499,14.339 -1.391,2.295 -2.643,4.172 -3.755,5.633 -1.113,1.46 -2.643,2.642 -4.588,3.546 -1.948,0.902 -4.589,1.616 -7.926,2.138 -3.337,0.521 -7.859,0.99 -13.558,1.407 l 4.172,9.387 c 0.693,-0.141 2.171,-0.296 4.432,-0.469 2.258,-0.175 4.954,-0.331 8.083,-0.47 3.129,-0.14 6.57,-0.262 10.324,-0.365 3.755,-0.105 7.509,-0.156 11.264,-0.156 4.797,0 9.42,0.068 13.871,0.208 4.448,0.138 8.447,0.313 11.994,0.521 3.545,0.209 6.466,0.4 8.76,0.573 2.293,0.173 3.65,0.296 4.068,0.367 0,-0.696 -0.123,-1.618 -0.365,-2.764 -0.245,-1.148 -1.009,-2.314 -2.295,-3.494 -1.287,-1.183 -3.338,-2.295 -6.154,-3.338 -2.815,-1.043 -6.762,-1.809 -11.837,-2.294 1.53,-3.129 3.233,-6.555 5.111,-10.272 1.877,-3.72 3.822,-7.509 5.841,-11.369 2.014,-3.859 4.066,-7.701 6.152,-11.524 2.086,-3.824 4.103,-7.44 6.049,-10.846 1.878,-3.408 3.546,-6.362 5.007,-8.865 1.389,-2.573 2.641,-4.867 3.755,-6.884 1.111,-2.016 2.12,-3.858 3.023,-5.526 0.903,-1.669 1.773,-3.338 2.607,-5.007 h 0.625 c 3.964,6.466 7.771,12.775 11.421,18.93 3.651,6.152 7.004,11.837 10.065,17.051 3.058,5.214 5.735,9.837 8.03,13.872 2.295,4.031 4.067,7.229 5.319,9.594 1.043,2.015 1.789,3.614 2.243,4.797 0.45,1.182 0.677,2.154 0.677,2.92 0,0.835 -0.331,1.529 -0.991,2.086 -0.661,0.556 -1.808,1.008 -3.441,1.355 -1.634,0.348 -3.826,0.643 -6.572,0.887 -2.746,0.242 -6.24,0.538 -10.48,0.887 l 4.172,9.386 c 0.555,-0.14 1.929,-0.278 4.119,-0.416 2.189,-0.141 4.745,-0.28 7.666,-0.418 2.92,-0.141 5.961,-0.244 9.125,-0.313 3.164,-0.07 5.962,-0.104 8.396,-0.104 2.989,0 6.221,0.068 9.7,0.208 3.475,0.138 6.708,0.278 9.698,0.418 2.988,0.137 5.544,0.295 7.666,0.468 2.12,0.173 3.353,0.295 3.702,0.366 0,-0.697 -0.122,-1.617 -0.365,-2.763 -0.244,-1.148 -1.079,-2.331 -2.503,-3.547 -1.426,-1.217 -3.668,-2.346 -6.727,-3.389 -3.06,-1.043 -7.371,-1.774 -12.932,-2.19 C 73.63,96.783 67.042,87.137 59.498,75.768 51.954,64.4 43.732,50.964 34.834,35.459 33.581,33.373 32.539,31.549 31.705,29.984 30.87,28.42 30.157,26.924 29.566,25.499 28.976,24.074 28.523,22.648 28.21,21.224 27.898,19.798 27.653,18.163 27.48,16.321 27.307,14.479 27.201,12.341 27.167,9.907 27.132,7.473 27.115,4.554 27.115,1.147 c 0,-3.754 0.017,-7.335 0.052,-10.742 0.034,-3.407 0.069,-6.518 0.105,-9.335 0.035,-2.815 0.086,-5.301 0.157,-7.456 0.068,-2.156 0.173,-3.859 0.313,-5.11 0.208,-1.878 0.522,-3.408 0.938,-4.589 0.417,-1.183 1.564,-2.139 3.442,-2.868 1.877,-0.731 4.779,-1.304 8.708,-1.721 3.927,-0.417 9.507,-0.834 16.738,-1.252 l -4.171,-9.803 c -0.765,0.07 -2.346,0.193 -4.745,0.366 -2.399,0.174 -5.407,0.364 -9.021,0.573 -3.616,0.208 -7.718,0.383 -12.307,0.521 -4.589,0.14 -9.422,0.208 -14.496,0.208 -5.494,0 -10.655,-0.085 -15.487,-0.259 -4.834,-0.173 -9.073,-0.366 -12.724,-0.576 -3.65,-0.208 -6.59,-0.416 -8.813,-0.625 -2.226,-0.208 -3.477,-0.346 -3.755,-0.417 0,0.626 0.139,1.549 0.418,2.764 0.276,1.216 1.251,2.451 2.92,3.703 1.669,1.251 4.328,2.433 7.978,3.545 3.65,1.112 8.847,1.878 15.592,2.295 0.208,2.571 0.381,5.579 0.522,9.021 0.138,3.442 0.242,6.969 0.312,10.586 0.068,3.615 0.12,7.16 0.157,10.637 C -0.019,-5.911 0,-2.782 0,0" /></g><g
           transform="translate(945.9873,196.3311)"
           id="g42"><path
             id="path44"
             style="fill:#291644;fill-opacity:1;fill-rule:nonzero;stroke:none"
             d="m 0,0 c 0.425,0.028 0.899,0.063 1.423,0.106 0.523,0.042 1.061,0.091 1.613,0.149 0.553,0.057 1.089,0.119 1.613,0.19 0.524,0.072 1.012,0.15 1.465,0.234 0.282,-1.16 0.637,-2.554 1.062,-4.182 0.424,-1.628 0.885,-3.375 1.38,-5.242 0.494,-1.869 1.018,-3.808 1.57,-5.818 0.552,-2.009 1.111,-4.005 1.678,-5.987 l 3.226,-11.293 c 0.707,-2.462 1.486,-5.264 2.335,-8.405 0.85,-3.17 1.797,-6.398 2.845,-9.681 h 0.34 c 0.65,1.699 1.457,3.765 2.42,6.2 0.961,2.404 1.987,4.994 3.078,7.769 1.088,2.773 2.208,5.625 3.353,8.555 1.147,2.928 2.236,5.737 3.27,8.426 1.033,2.69 1.967,5.18 2.802,7.473 0.834,2.293 1.493,4.176 1.974,5.647 0.367,1.075 0.587,1.846 0.658,2.314 0.07,0.467 0.107,0.729 0.107,0.785 0,0.367 -0.136,0.665 -0.404,0.893 -0.27,0.225 -0.744,0.409 -1.422,0.551 -0.68,0.141 -1.586,0.261 -2.717,0.361 -1.133,0.099 -2.563,0.219 -4.288,0.36 l 1.698,3.822 C 31.276,3.17 31.822,3.113 32.713,3.058 33.604,3 34.646,2.943 35.833,2.887 c 1.189,-0.057 2.421,-0.1 3.693,-0.127 1.275,-0.029 2.407,-0.043 3.398,-0.043 1.217,0 2.512,0.028 3.885,0.086 1.372,0.056 2.646,0.111 3.821,0.169 1.174,0.056 2.179,0.12 3.015,0.191 0.834,0.07 1.322,0.12 1.463,0.149 0,-0.284 -0.056,-0.659 -0.17,-1.125 -0.112,-0.467 -0.466,-0.949 -1.061,-1.444 -0.593,-0.496 -1.514,-0.955 -2.759,-1.38 -1.246,-0.425 -3.001,-0.721 -5.264,-0.892 -1.586,-3.057 -3.532,-7.31 -5.839,-12.758 -2.306,-5.448 -4.975,-11.98 -8.002,-19.593 -1.331,-3.369 -2.492,-6.326 -3.482,-8.874 -0.991,-2.547 -1.861,-4.798 -2.61,-6.751 -0.751,-1.952 -1.396,-3.658 -1.933,-5.115 -0.538,-1.458 -1.011,-2.781 -1.423,-3.97 -0.41,-1.188 -0.778,-2.292 -1.103,-3.312 -0.325,-1.019 -0.658,-2.066 -0.998,-3.141 -0.509,-0.057 -1.076,-0.113 -1.698,-0.171 -0.622,-0.055 -1.267,-0.119 -1.931,-0.19 -0.665,-0.071 -1.324,-0.149 -1.976,-0.234 -0.65,-0.085 -1.245,-0.169 -1.782,-0.255 l -13.756,48.741 h -0.169 c -0.482,-1.19 -0.992,-2.421 -1.529,-3.694 -0.538,-1.302 -1.125,-2.738 -1.762,-4.309 -0.636,-1.572 -1.345,-3.333 -2.124,-5.286 -0.778,-1.954 -1.663,-4.175 -2.652,-6.666 -1.728,-4.246 -3.171,-7.882 -4.33,-10.911 -1.162,-3.029 -2.139,-5.619 -2.93,-7.77 -0.793,-2.151 -1.43,-3.948 -1.911,-5.392 -0.481,-1.471 -0.906,-2.759 -1.273,-3.863 -0.509,-0.057 -1.077,-0.113 -1.699,-0.171 -0.623,-0.055 -1.267,-0.119 -1.932,-0.19 -0.665,-0.071 -1.322,-0.149 -1.974,-0.234 -0.651,-0.085 -1.246,-0.169 -1.784,-0.255 -0.084,0.369 -0.296,1.162 -0.636,2.378 -0.339,1.217 -0.764,2.745 -1.273,4.586 -0.538,1.81 -1.133,3.891 -1.784,6.241 -0.651,2.32 -1.352,4.782 -2.102,7.387 -0.749,2.604 -1.52,5.279 -2.313,8.025 -0.793,2.744 -1.579,5.456 -2.357,8.13 -0.778,2.674 -1.535,5.257 -2.27,7.748 -0.737,2.491 -1.416,4.769 -2.039,6.835 -0.623,2.066 -1.174,3.871 -1.656,5.414 -0.481,1.542 -0.863,2.695 -1.146,3.46 -0.368,0.99 -0.764,1.79 -1.189,2.399 -0.425,0.607 -1.047,1.096 -1.868,1.465 -0.821,0.367 -1.932,0.642 -3.333,0.828 -1.4,0.184 -3.262,0.345 -5.583,0.488 l 1.699,3.821 c 0.283,-0.058 0.891,-0.121 1.825,-0.192 0.934,-0.07 2.059,-0.134 3.376,-0.19 1.316,-0.058 2.758,-0.107 4.33,-0.15 1.571,-0.042 3.134,-0.063 4.691,-0.063 1.897,0 3.75,0.028 5.563,0.086 1.81,0.056 3.438,0.127 4.882,0.211 1.443,0.086 2.632,0.163 3.567,0.234 0.932,0.07 1.485,0.12 1.655,0.148 0,-0.283 -0.05,-0.658 -0.148,-1.125 -0.1,-0.466 -0.426,-0.941 -0.977,-1.421 -0.553,-0.482 -1.4,-0.935 -2.548,-1.359 -1.145,-0.426 -2.753,-0.736 -4.818,-0.934 0.565,-2.377 1.301,-5.138 2.208,-8.279 0.905,-3.142 1.895,-6.694 2.971,-10.657 l 3.142,-11.464 c 0.452,-1.67 0.877,-3.22 1.274,-4.649 0.396,-1.429 0.799,-2.844 1.209,-4.244 0.411,-1.403 0.842,-2.838 1.296,-4.31 0.424,-1.501 0.891,-3.128 1.401,-4.883 h 0.34 c 0.423,1.104 0.998,2.569 1.719,4.395 0.722,1.825 1.528,3.869 2.419,6.135 0.893,2.264 1.854,4.691 2.888,7.281 1.033,2.59 2.066,5.2 3.099,7.833 1.033,2.632 2.039,5.215 3.015,7.748 0.977,2.533 1.882,4.875 2.717,7.026 0.835,2.152 1.557,4.055 2.166,5.711 0.607,1.655 1.054,2.922 1.336,3.8" /></g><g
           transform="translate(1018.1973,169.2441)"
           id="g46"><path
             id="path48"
             style="fill:#291644;fill-opacity:1;fill-rule:nonzero;stroke:none"
             d="m 0,0 c 0,-5.152 0.637,-9.765 1.911,-13.842 1.274,-4.075 3.07,-7.528 5.392,-10.358 2.32,-2.831 5.115,-4.996 8.385,-6.496 3.268,-1.5 6.884,-2.25 10.847,-2.25 2.746,0 5.357,0.403 7.833,1.21 2.478,0.806 4.656,2.185 6.538,4.138 1.883,1.953 3.376,4.565 4.481,7.834 1.103,3.27 1.654,7.352 1.654,12.249 0,5.179 -0.643,9.821 -1.931,13.925 -1.289,4.105 -3.093,7.579 -5.414,10.423 -2.32,2.845 -5.101,5.024 -8.342,6.539 -3.241,1.514 -6.829,2.272 -10.762,2.272 -2.746,0 -5.364,-0.418 -7.855,-1.253 C 10.246,23.555 8.06,22.146 6.177,20.166 4.295,18.186 2.795,15.553 1.678,12.27 0.56,8.985 0,4.896 0,0 m 26.28,31.503 c 4.501,0 8.732,-0.743 12.696,-2.23 3.962,-1.485 7.429,-3.666 10.401,-6.539 2.973,-2.873 5.32,-6.41 7.048,-10.613 1.726,-4.203 2.59,-9.008 2.59,-14.414 0,-4.359 -0.553,-8.287 -1.657,-11.782 -1.103,-3.495 -2.61,-6.595 -4.52,-9.297 -1.911,-2.704 -4.134,-5.031 -6.667,-6.984 -2.533,-1.954 -5.221,-3.567 -8.067,-4.841 -2.844,-1.274 -5.767,-2.207 -8.766,-2.801 -3.001,-0.595 -5.916,-0.893 -8.746,-0.893 -2.945,0 -5.788,0.313 -8.534,0.935 -2.746,0.622 -5.329,1.556 -7.748,2.802 -2.421,1.245 -4.635,2.802 -6.645,4.671 -2.01,1.867 -3.735,4.046 -5.18,6.538 -1.443,2.489 -2.561,5.292 -3.354,8.405 -0.793,3.113 -1.189,6.524 -1.189,10.232 0,4.53 0.574,8.583 1.72,12.164 1.147,3.582 2.696,6.737 4.65,9.468 1.953,2.732 4.215,5.059 6.792,6.985 2.576,1.923 5.286,3.495 8.13,4.712 2.844,1.216 5.732,2.102 8.662,2.654 2.929,0.552 5.724,0.828 8.384,0.828" /></g><g
           transform="translate(1119.3193,196.1611)"
           id="g50"><path
             id="path52"
             style="fill:#291644;fill-opacity:1;fill-rule:nonzero;stroke:none"
             d="M 0,0 C -0.792,0 -1.527,-0.021 -2.207,-0.063 -2.886,-0.105 -3.679,-0.17 -4.585,-0.255 -4.641,-1.897 -4.685,-3.673 -4.712,-5.583 -4.74,-7.494 -4.754,-9.666 -4.754,-12.1 v -18.808 h 1.188 c 1.784,0 3.545,0.078 5.286,0.233 1.741,0.155 3.396,0.44 4.967,0.849 1.572,0.411 3.029,0.991 4.375,1.742 1.342,0.749 2.503,1.711 3.48,2.886 0.977,1.175 1.741,2.604 2.293,4.288 0.552,1.684 0.827,3.658 0.827,5.923 0,2.716 -0.403,5.024 -1.209,6.921 -0.807,1.895 -1.969,3.445 -3.482,4.649 -1.515,1.202 -3.368,2.072 -5.561,2.61 C 5.215,-0.27 2.746,0 0,0 M -15.793,-43.051 V -7.43 c 0,1.33 -0.008,2.484 -0.02,3.46 -0.016,0.977 -0.038,1.847 -0.065,2.611 -1.698,-0.227 -3.403,-0.474 -5.116,-0.743 -1.713,-0.269 -3.375,-0.559 -4.988,-0.87 l 1.018,4.246 c 1.812,0.452 3.899,0.883 6.263,1.294 2.362,0.411 4.811,0.765 7.345,1.062 2.532,0.297 5.073,0.53 7.621,0.701 2.548,0.169 4.924,0.255 7.132,0.255 2.066,0 4.153,-0.094 6.262,-0.276 2.109,-0.185 4.133,-0.517 6.072,-0.998 1.938,-0.482 3.764,-1.132 5.477,-1.954 1.712,-0.82 3.198,-1.875 4.458,-3.162 1.259,-1.289 2.25,-2.823 2.972,-4.607 0.721,-1.782 1.083,-3.863 1.083,-6.241 0,-2.462 -0.39,-4.685 -1.168,-6.665 -0.779,-1.983 -1.847,-3.751 -3.205,-5.307 -1.359,-1.557 -2.966,-2.902 -4.819,-4.034 -1.855,-1.133 -3.858,-2.08 -6.008,-2.844 2.179,-3.936 4.132,-7.395 5.858,-10.382 1.727,-2.985 3.326,-5.582 4.799,-7.79 1.471,-2.207 2.886,-4.055 4.245,-5.54 1.358,-1.487 2.766,-2.689 4.225,-3.609 1.457,-0.92 3.028,-1.599 4.712,-2.037 1.684,-0.44 3.587,-0.702 5.711,-0.786 l -1.444,-3.312 c -1.528,-0.255 -3.05,-0.445 -4.564,-0.574 -1.514,-0.127 -2.81,-0.191 -3.884,-0.191 -2.181,0 -4.155,0.255 -5.923,0.765 -1.77,0.509 -3.411,1.267 -4.925,2.271 -1.515,1.004 -2.952,2.257 -4.31,3.757 -1.359,1.5 -2.724,3.255 -4.097,5.265 -1.372,2.01 -2.775,4.26 -4.202,6.751 -1.43,2.489 -2.994,5.223 -4.692,8.194 l -1.104,1.953 c -0.254,0.424 -0.489,0.756 -0.7,0.997 -0.213,0.241 -0.44,0.424 -0.68,0.552 -0.24,0.128 -0.495,0.212 -0.765,0.256 -0.268,0.042 -0.573,0.063 -0.912,0.063 H 0.977 c -0.368,-0.029 -0.806,-0.042 -1.316,-0.042 h -1.825 c -0.736,-0.029 -1.6,-0.043 -2.59,-0.043 0,-5.689 0.007,-10.311 0.021,-13.863 0.013,-3.551 0.092,-6.233 0.234,-8.045 0.057,-0.793 0.154,-1.422 0.297,-1.889 0.141,-0.466 0.538,-0.849 1.188,-1.147 0.652,-0.296 1.662,-0.53 3.036,-0.7 1.373,-0.17 3.319,-0.339 5.837,-0.51 l -1.698,-3.82 c -0.736,0.085 -1.655,0.163 -2.759,0.233 -1.104,0.071 -2.307,0.135 -3.609,0.192 -1.303,0.056 -2.647,0.098 -4.033,0.127 -1.387,0.028 -2.703,0.042 -3.949,0.042 -2.01,0 -3.906,-0.035 -5.689,-0.106 -1.782,-0.07 -3.353,-0.148 -4.712,-0.234 -1.358,-0.084 -2.463,-0.169 -3.311,-0.254 -0.85,-0.057 -1.374,-0.086 -1.572,-0.086 0,0.256 0.049,0.616 0.149,1.083 0.098,0.468 0.431,0.956 0.997,1.465 0.566,0.51 1.472,0.976 2.717,1.401 1.246,0.425 3.015,0.723 5.308,0.892 0.112,1.273 0.204,2.803 0.276,4.585 0.069,1.784 0.127,3.737 0.17,5.859 0.043,2.122 0.063,4.358 0.063,6.708" /></g><g
           transform="translate(1193.3984,166.2295)"
           id="g54"><path
             id="path56"
             style="fill:#291644;fill-opacity:1;fill-rule:nonzero;stroke:none"
             d="m 0,0 v -17.916 c 0,-2.236 0.014,-4.07 0.042,-5.498 0.028,-1.43 0.071,-2.414 0.128,-2.951 0.057,-0.822 0.219,-1.465 0.488,-1.932 0.269,-0.468 0.729,-0.822 1.379,-1.062 0.651,-0.241 1.536,-0.397 2.654,-0.466 1.119,-0.072 2.569,-0.107 4.352,-0.107 2.575,0 4.819,0.064 6.729,0.191 1.912,0.128 3.581,0.376 5.01,0.743 1.43,0.367 2.661,0.893 3.694,1.571 1.033,0.68 1.974,1.572 2.823,2.675 0.849,1.104 1.657,2.455 2.421,4.055 0.763,1.598 1.584,3.502 2.462,5.71 l 3.821,-0.849 c -0.679,-3.057 -1.274,-5.654 -1.782,-7.791 -0.511,-2.137 -0.977,-3.921 -1.403,-5.35 -0.423,-1.429 -0.835,-2.561 -1.23,-3.396 -0.397,-0.836 -0.829,-1.458 -1.295,-1.867 -0.467,-0.411 -0.992,-0.673 -1.571,-0.786 -0.581,-0.114 -1.268,-0.17 -2.059,-0.17 -0.624,0 -1.586,0.021 -2.888,0.063 -1.302,0.043 -2.817,0.093 -4.543,0.15 -1.726,0.056 -3.616,0.112 -5.668,0.169 -2.052,0.056 -4.125,0.113 -6.218,0.169 -2.097,0.058 -4.169,0.107 -6.221,0.149 -2.053,0.043 -3.956,0.063 -5.711,0.063 -5.009,0 -8.802,-0.112 -11.377,-0.339 -2.605,-0.226 -4.19,-0.34 -4.756,-0.34 0,0.256 0.049,0.616 0.149,1.083 0.098,0.467 0.431,0.956 0.998,1.465 0.565,0.509 1.47,0.976 2.717,1.401 1.245,0.425 3.014,0.723 5.307,0.892 0.112,1.189 0.205,2.688 0.276,4.5 0.07,1.811 0.127,3.75 0.169,5.817 0.043,2.065 0.065,4.174 0.065,6.326 V 3.991 c 0,3.226 -0.008,5.979 -0.022,8.257 -0.015,2.279 -0.036,4.147 -0.064,5.605 -0.028,1.457 -0.056,2.668 -0.085,3.63 -0.027,0.961 -0.057,1.741 -0.084,2.335 -0.029,0.594 -0.058,1.161 -0.085,1.698 -0.058,0.793 -0.148,1.415 -0.276,1.869 -0.127,0.452 -0.489,0.805 -1.083,1.06 -0.594,0.255 -1.523,0.461 -2.782,0.616 -1.259,0.156 -3.049,0.333 -5.369,0.532 l 1.443,3.735 c 0.255,-0.057 0.87,-0.113 1.846,-0.169 0.977,-0.057 2.137,-0.114 3.483,-0.171 1.344,-0.056 2.794,-0.099 4.35,-0.127 1.558,-0.028 3.029,-0.043 4.416,-0.043 2.236,0 4.288,0.043 6.157,0.128 1.868,0.085 3.481,0.169 4.839,0.255 1.36,0.085 2.42,0.169 3.185,0.254 0.765,0.086 1.189,0.128 1.273,0.128 0,-0.34 -0.056,-0.758 -0.168,-1.253 C 9.821,31.835 9.46,31.333 8.853,30.823 8.243,30.314 7.288,29.847 5.985,29.422 4.684,28.998 2.858,28.686 0.51,28.488 0.396,26.875 0.304,25.205 0.234,23.479 0.163,21.751 0.113,19.785 0.084,17.577 0.057,15.369 0.034,12.843 0.021,9.998 0.007,7.154 0,3.821 0,0" /></g><g
           transform="translate(1270.0234,196.0762)"
           id="g58"><path
             id="path60"
             style="fill:#291644;fill-opacity:1;fill-rule:nonzero;stroke:none"
             d="M 0,0 C -1.925,0 -4.048,-0.085 -6.369,-0.254 -6.425,-1.67 -6.468,-3.29 -6.496,-5.116 -6.523,-6.941 -6.538,-9.128 -6.538,-11.675 v -20.677 c 0,-4.387 0.007,-8.038 0.02,-10.954 0.015,-2.915 0.029,-5.272 0.044,-7.069 0.013,-1.797 0.042,-3.12 0.084,-3.969 0.043,-0.849 0.107,-1.416 0.192,-1.698 0.084,-0.906 0.346,-1.635 0.785,-2.187 0.438,-0.551 1.033,-0.977 1.783,-1.273 0.75,-0.298 1.635,-0.488 2.653,-0.574 1.02,-0.084 2.152,-0.127 3.397,-0.127 4.132,0 7.713,0.36 10.742,1.083 3.028,0.722 5.604,1.711 7.726,2.972 2.124,1.258 3.843,2.752 5.16,4.479 1.315,1.726 2.342,3.594 3.078,5.604 0.734,2.009 1.23,4.125 1.485,6.347 0.255,2.222 0.382,4.451 0.382,6.688 0,5.858 -0.694,10.875 -2.08,15.05 -1.388,4.174 -3.403,7.592 -6.05,10.253 -2.647,2.66 -5.895,4.613 -9.744,5.86 C 9.27,-0.623 4.896,0 0,0 m -26.662,1.359 c 2.858,0.566 5.703,1.061 8.534,1.486 2.829,0.424 5.567,0.77 8.215,1.04 2.646,0.268 5.158,0.467 7.536,0.594 2.377,0.127 4.542,0.192 6.495,0.192 6.538,0 12.263,-0.709 17.174,-2.124 4.91,-1.415 9.001,-3.467 12.271,-6.156 3.268,-2.69 5.723,-5.986 7.366,-9.892 1.64,-3.906 2.462,-8.336 2.462,-13.289 0,-2.944 -0.305,-5.938 -0.913,-8.98 -0.61,-3.043 -1.564,-5.972 -2.866,-8.788 -1.302,-2.816 -2.993,-5.463 -5.073,-7.939 -2.081,-2.477 -4.593,-4.643 -7.537,-6.496 -2.944,-1.855 -6.347,-3.312 -10.211,-4.373 -3.862,-1.061 -8.244,-1.593 -13.14,-1.593 -1.331,0 -2.611,0.037 -3.841,0.106 -1.232,0.072 -2.484,0.15 -3.758,0.234 -1.303,0.086 -2.654,0.164 -4.055,0.234 -1.4,0.071 -2.923,0.106 -4.563,0.106 -1.671,0 -3.341,-0.035 -5.011,-0.106 -1.671,-0.07 -3.185,-0.148 -4.543,-0.234 -1.359,-0.084 -2.477,-0.169 -3.354,-0.254 -0.878,-0.057 -1.358,-0.086 -1.443,-0.086 0,0.256 0.049,0.616 0.148,1.083 0.099,0.468 0.425,0.956 0.977,1.465 0.552,0.51 1.429,0.976 2.633,1.401 1.202,0.425 2.922,0.723 5.158,0.892 0.111,1.273 0.205,2.809 0.275,4.606 0.071,1.798 0.128,3.764 0.17,5.903 0.043,2.135 0.065,4.379 0.065,6.728 v 35.323 c 0,1.33 -0.008,2.484 -0.022,3.46 -0.015,0.977 -0.036,1.862 -0.064,2.655 l -5.094,-0.764 c -1.698,-0.255 -3.397,-0.538 -5.096,-0.85 z" /></g><g
           transform="translate(1413.248,165.4414)"
           id="g62"><path
             id="path64"
             style="fill:#291644;fill-opacity:1;fill-rule:nonzero;stroke:none"
             d="m 0,0 c -1.073,-0.128 -2.556,-0.256 -4.447,-0.384 -1.892,-0.128 -4.193,-0.256 -6.876,-0.357 -2.685,-0.128 -5.65,-0.204 -8.921,-0.204 -2.02,0 -4.167,0.025 -6.443,0.076 -2.274,0.025 -4.37,0.102 -6.338,0.179 -1.969,0.077 -3.656,0.178 -5.087,0.255 -1.407,0.078 -2.301,0.154 -2.684,0.231 l -2.097,-5.445 c 3.349,-0.281 5.92,-0.645 7.771,-0.767 4.622,-0.304 22.024,-1.229 23.415,-0.844 3.272,0.307 5.803,0.742 7.618,1.381 1.815,0.613 3.169,1.278 4.038,1.993 0.869,0.741 1.381,1.457 1.585,2.173 0.18,0.716 0.281,1.356 0.281,1.892 C 1.687,0.179 1.074,0.128 0,0" /></g><g
           transform="translate(804.5869,165.6201)"
           id="g66"><path
             id="path68"
             style="fill:#291644;fill-opacity:1;fill-rule:nonzero;stroke:none"
             d="m 0,0 c 0,-0.536 0.103,-1.176 0.281,-1.892 0.205,-0.715 0.716,-1.431 1.585,-2.172 0.869,-0.715 2.224,-1.38 4.039,-1.994 1.815,-0.638 4.346,-1.074 7.617,-1.38 1.392,-0.385 18.793,0.54 23.416,0.843 1.85,0.122 4.421,0.487 7.77,0.767 l -2.096,5.445 c -0.383,-0.077 -1.278,-0.153 -2.684,-0.23 -1.432,-0.077 -3.118,-0.179 -5.086,-0.256 -1.969,-0.076 -4.066,-0.153 -6.34,-0.179 -2.275,-0.051 -4.422,-0.076 -6.441,-0.076 -3.273,0 -6.238,0.076 -8.921,0.204 -2.685,0.102 -4.985,0.23 -6.876,0.358 C 4.372,-0.435 2.889,-0.307 1.815,-0.179 0.741,-0.051 0.128,0 0,0" /></g><g
           transform="translate(313.708,479.9482)"
           id="g70"><path
             id="path72"
             style="fill:#a0a0a0;fill-opacity:1;fill-rule:nonzero;stroke:none"
             d="m 0,0 c -8.999,10.64 -19.134,20.396 -27.817,31.226 -15.981,19.932 -8.705,34.567 3.931,49.033 4.794,5.51 7.296,8.368 13.226,13.015 1.367,1.051 4.226,2.881 5.656,3.154 -1.324,0.021 -2.649,0.021 -3.974,0.021 -149.899,0 -271.412,-121.492 -271.412,-271.369 0,-131.311 93.275,-240.84 217.205,-265.967 -15.244,21.112 -14.087,41.927 5.972,63.417 13.12,10.092 21.489,24.664 25.085,43.714 v 75.15 H -51.41 c 0.694,20.501 -7.233,30.404 -30.951,31.182 -1.977,0.042 -3.974,0.505 -5.951,0.841 -22.33,4.247 -36.481,25.61 -41.149,52.819 h 86.147 c -22.941,6.917 -36.902,40.624 -43.021,97.816 h 75.591 C 22.184,-60.893 20.564,-24.181 0,0" /></g><g
           transform="translate(309.251,576.3555)"
           id="g74"><path
             id="path76"
             style="fill:#a0a0a0;fill-opacity:1;fill-rule:nonzero;stroke:none"
             d="m 0,0 c 0.146,-0.042 0.252,-0.147 0.273,-0.315 -3.953,-4.857 -8.095,-9.547 -11.795,-14.551 -11.88,-16.085 -9.757,-33.222 6.16,-49.181 12.847,-12.826 25.695,-25.61 35.661,-40.77 14.361,-21.784 6.035,-51.474 -8.074,-63.417 -1.85,-1.578 -4.499,-2.964 -7.528,-4.121 h 57.466 c -6.118,-57.192 -20.08,-90.899 -42.999,-97.816 h 86.125 c -4.668,-27.209 -18.819,-48.572 -41.128,-52.819 -1.998,-0.336 -3.974,-0.799 -5.972,-0.841 -23.718,-0.778 -31.624,-10.682 -30.93,-31.183 H 17.957 v -75.149 c 3.616,-19.05 11.984,-33.622 25.106,-43.714 20.122,-21.553 21.236,-42.433 5.824,-63.585 124.309,24.832 217.962,134.528 217.962,266.135 C 266.849,-122.964 147.796,-2.418 0,0" /></g><g
           transform="translate(432.5195,299.4297)"
           id="g78"><path
             id="path80"
             style="fill:#291644;fill-opacity:1;fill-rule:nonzero;stroke:none"
             d="m 0,0 c -4.399,-26.64 -17.779,-47.58 -38.84,-51.729 -1.889,-0.34 -3.75,-0.791 -5.639,-0.821 -22.411,-0.76 -29.861,-10.47 -29.21,-30.569 H -91.92 v -73.601 c 3.41,-18.66 11.311,-32.94 23.7,-42.809 18.25,-20.29 19.96,-39.961 7.151,-59.861 -21.12,-5.25 -43.21,-8.04 -65.951,-8.04 -11.74,0 -23.31,0.741 -34.669,2.19 -17.1,21.91 -17.04,43.43 2.99,65.711 12.389,9.869 20.29,24.149 23.679,42.809 v 73.601 h -18.2 c 0.651,20.099 -6.83,29.809 -29.239,30.569 -1.86,0.03 -3.75,0.481 -5.621,0.821 -21.079,4.149 -34.459,25.089 -38.859,51.729 h 81.37 c -21.681,6.771 -34.861,39.801 -40.64,95.82 h 145.48 C -46.51,39.801 -59.689,6.771 -81.34,0 Z" /></g><g
           id="g82"><g
             id="g84" /><g
             id="g142"><g
               style="opacity:0.38999903"
               id="g140"
               clip-path="url(#clipPath88)"><g
                 id="g138"><g
                   id="g136"
                   clip-path="url(#clipPath92)"><g
                     id="g134"><g
                       id="g126" /><g
                       id="g132"
                       mask="url(#mask106)"><g
                         id="g130"><path
                           id="path128"
                           style="fill:url(#radialGradient124);stroke:none"
                           d="m 375.567,353.543 c 0,22.776 -13.986,41.24 -31.238,41.24 -17.252,0 -31.238,-18.464 -31.238,-41.24 0,-22.776 13.986,-41.24 31.238,-41.24 17.252,0 31.238,18.464 31.238,41.24" /></g></g></g></g></g></g></g></g><g
           id="g144"><g
             id="g146" /><g
             id="g204"><g
               style="opacity:0.38999903"
               id="g202"
               clip-path="url(#clipPath150)"><g
                 id="g200"><g
                   id="g198"
                   clip-path="url(#clipPath154)"><g
                     id="g196"><g
                       id="g188" /><g
                       id="g194"
                       mask="url(#mask168)"><g
                         id="g192"><path
                           id="path190"
                           style="fill:url(#radialGradient186);stroke:none"
                           d="m 370.653,74.47 c 0,22.776 -17.442,41.24 -38.96,41.24 -21.516,0 -38.96,-18.464 -38.96,-41.24 0,-22.777 17.444,-41.241 38.96,-41.241 21.518,0 38.96,18.464 38.96,41.241" /></g></g></g></g></g></g></g></g><g
           id="g206"><g
             id="g208" /><g
             id="g266"><g
               style="opacity:0.38999903"
               id="g264"
               clip-path="url(#clipPath212)"><g
                 id="g262"><g
                   id="g260"
                   clip-path="url(#clipPath216)"><g
                     id="g258"><g
                       id="g250" /><g
                       id="g256"
                       mask="url(#mask230)"><g
                         id="g254"><path
                           id="path252"
                           style="fill:url(#radialGradient248);stroke:none"
                           d="m 421.491,279.437 c -0.583,10.296 -35.602,16.687 -78.218,14.273 -42.615,-2.414 -76.689,-12.718 -76.106,-23.015 0.584,-10.297 35.603,-16.686 78.218,-14.273 42.616,2.414 76.689,12.718 76.106,23.015" /></g></g></g></g></g></g></g></g></g></g></g></svg>