<?xml version="1.0" encoding="UTF-8" standalone="no"?>
<svg
   xmlns:dc="http://purl.org/dc/elements/1.1/"
   xmlns:cc="http://creativecommons.org/ns#"
   xmlns:rdf="http://www.w3.org/1999/02/22-rdf-syntax-ns#"
   xmlns:svg="http://www.w3.org/2000/svg"
   xmlns="http://www.w3.org/2000/svg"
   viewBox="0 0 85.506668 126.66667"
   height="57"
   width="39"
   xml:space="preserve"
   id="svg2"
   version="1.1"><metadata
     id="metadata8"><rdf:RDF><cc:Work
         rdf:about=""><dc:format>image/svg+xml</dc:format><dc:type
           rdf:resource="http://purl.org/dc/dcmitype/StillImage" /></cc:Work></rdf:RDF></metadata><defs
     id="defs6" /><g
     transform="matrix(1.3333333,0,0,-1.3333333,0,126.66667)"
     id="g10"><g
       transform="scale(0.1)"
       id="g12"><path
         id="path14"
         style="fill:#aeaeae;fill-opacity:1;fill-rule:nonzero;stroke:none"
         d="m 320,405 v 0 0 c 70.996,0 117.996,20 117.996,39.004 h 1.008 c 0.996,10 -5,18.992 -8.008,25 -3,6.992 -5.996,8 -13.992,26.992 -8,19.004 2,40.004 12,57.004 C 407.996,539 367.996,530 321,530 v 0 0 c -47,0 -87,9 -108.004,23 9.008,-17 19.008,-38 12.004,-57.004 -7.996,-18.992 -10,-20 -14,-26.992 -2,-5 -8.004,-14.004 -8.004,-25 H 204 C 202.996,425 250,405 320,405" /><path
         id="path16"
         style="fill:#aeaeae;fill-opacity:1;fill-rule:nonzero;stroke:none"
         d="m 320,282.004 c 60,0 102.004,15 114.004,30.992 3,13 -1.008,24.008 -5,32.004 -5,10 -16.008,34.004 -16.008,45 0,7.996 5,19.004 12.004,30 -20.996,-12.996 -60,-20.996 -105,-20.996 v 0 0 c -45,0 -82.996,8 -105,20.996 7.004,-10.996 12.004,-22.004 12.004,-30 0,-10.996 -11.004,-35 -16.004,-45 -3.996,-7.996 -8.004,-19.004 -5,-32.004 11.004,-15.992 54,-30.992 114,-30.992 v 0" /><path
         id="path18"
         style="fill:#aeaeae;fill-opacity:1;fill-rule:nonzero;stroke:none"
         d="m 320,830 v 0 c -27.996,0 -51,6 -51,12.996 C 269,850 291,856 319,856 v 0 0 c 28.004,0 50.004,-6 50.004,-13.004 C 370.996,836 347.996,830 320,830 Z m 0,32.004 v 0 c -40,0 -72.996,0 -72.996,-18.004 v -51.004 h 145 V 844 C 392.996,862.004 360,862.004 320,862.004 v 0" /><path
         id="path20"
         style="fill:#aeaeae;fill-opacity:1;fill-rule:nonzero;stroke:none"
         d="m 320,796 c -157.996,0 -286,33 -286,73 0,40 128.004,72 286,72 157.996,0 285.996,-33.004 285.996,-73.004 0,-40 -128,-71.996 -285.996,-71.996 z m 0,154 C 142.996,950 0,914 0,869 c 0,-45 142.996,-81 320,-81 177.004,0 320,36 320,81 0,45 -142.996,81 -320,81" /><path
         id="path22"
         style="fill:#aeaeae;fill-opacity:1;fill-rule:nonzero;stroke:none"
         d="m 402.996,624 c -27,-1.996 -55,-3 -82.996,-3 -27.996,0 -56,1.004 -82.996,3 C 235,624 234,626 234,627.004 234,629 235,630 237.004,630 264,628 291,627.004 319,627.004 c 28.004,0 56,0.996 81.996,2.996 2,0 3.008,-1 3.008,-2.996 1.992,-1.004 0,-3.004 -1.008,-3.004 z m 30,7 c 45,7 147.004,25 181.008,55 28,25 28,131.004 26.992,169 -25,-45 -175,-72 -319.996,-72 C 176,783 26,810 1,855 0,817.004 0,711 27.9961,686 62.0039,656 164,637.004 209,631 c 15,-2 15,-8.996 10,-18 -5,-10 -15,-25.996 -15,-35.996 C 204,576 204,575 204,574 v 0 c -1.004,-19 46,-39 116,-39 v 0 0 c 70,0 117.004,20 117.004,39 v 0 c 0,1 0,2 0,3.004 0,8.996 -10,25.996 -15,35.996 -4.008,9.004 -4.008,15 10.992,18" /><path
         id="path24"
         style="fill:#aeaeae;fill-opacity:1;fill-rule:nonzero;stroke:none"
         d="m 402.996,135 c -25.992,-5 -53.992,-7.996 -82.996,-7.996 -29,0 -57.004,2.996 -84,7.996 -2,0 -3.004,2.004 -2,2.996 0,2.004 2,3 3.004,2.004 25.992,-5.996 53.996,-7.996 82.996,-7.996 29.004,0 55.996,2.996 82.004,7.996 2,0 2.996,-0.996 2.996,-2.004 0,-0.992 -0.996,-2 -2.004,-2.996 z m 28,129.004 c -6.992,6.992 -8,15.996 -5,25.996 1.008,2.004 2,5 3.008,7.996 0,1.008 0.996,1.008 0.996,2.004 -20,-14.004 -60.996,-24.004 -109,-24.004 h -1 c -47.996,0 -87.996,10 -109,24.004 0,-0.996 1.004,-2.004 1.004,-2.004 0.992,-2.996 1.996,-5 2.996,-7.996 2.996,-10.996 1,-20 -5,-25.996 -20,-20 -81,-33.008 -82.996,-47 V 87.0039 C 127.004,39.0039 214,0 321,0 427.996,0 515,39.0039 515,87.0039 V 217.004 c -2.996,13.992 -64.004,27 -84.004,47" /></g></g></svg>