<?xml version="1.0" encoding="UTF-8" standalone="no"?>
<svg
   xmlns:dc="http://purl.org/dc/elements/1.1/"
   xmlns:cc="http://creativecommons.org/ns#"
   xmlns:rdf="http://www.w3.org/1999/02/22-rdf-syntax-ns#"
   xmlns:svg="http://www.w3.org/2000/svg"
   xmlns="http://www.w3.org/2000/svg"
   viewBox="0 0 1295.9333 657.46667"
   height="27"
   width="54"
   xml:space="preserve"
   id="svg2"
   version="1.1">
   <metadata
     id="metadata8"><rdf:RDF><cc:Work
         rdf:about=""><dc:format>image/svg+xml</dc:format><dc:type
           rdf:resource="http://purl.org/dc/dcmitype/StillImage" /></cc:Work></rdf:RDF></metadata><defs
     id="defs6" /><g
     transform="matrix(1.3333333,0,0,-1.3333333,0,657.46667)"
     id="g10"><g
       transform="scale(0.1)"
       id="g12"><path
         id="path14"
         style="fill:#aeaeae;fill-opacity:1;fill-rule:nonzero;stroke:none"
         d="m 224.992,1964.9 359.981,1394.94 c 0,0 359.976,839.96 899.957,1004.95 284.98,104.99 434.97,464.97 1274.93,494.97 839.96,30 1124.94,0 1124.94,0 0,0 464.99,194.99 1079.96,-60 614.96,-254.98 779.96,-494.97 779.96,-494.97 0,0 539.97,-119.99 794.95,-674.97 254.99,-554.97 135,-359.98 135,-359.98 l 2099.89,-194.99 c 0,0 569.97,-30 719.96,-209.99 150,-179.99 224.99,-599.97 224.99,-599.97 0,0 -89.99,-119.99 -644.96,-119.99 -554.98,0 -1289.94,119.99 -1394.93,119.99 -105,0 -749.97,75 -749.97,75 l 254.99,-734.97 c 0,0 30,-194.99 30,-254.98 0,-60 45,-165 45,-165 C 7259.64,1184.94 7019.65,0 3539.82,0 59.9961,0 0,1184.94 0,1184.94 c 0,0 89.9961,90 89.9961,165 0,74.99 134.9959,614.96 134.9959,614.96" /></g></g></svg>