<svg
   xmlns:dc="http://purl.org/dc/elements/1.1/"
   xmlns:cc="http://creativecommons.org/ns#"
   xmlns:rdf="http://www.w3.org/1999/02/22-rdf-syntax-ns#"
   xmlns:svg="http://www.w3.org/2000/svg"
   xmlns="http://www.w3.org/2000/svg"
   viewBox="0 0 552.5 450.5"
   height="30"
   width="38"
   xml:space="preserve"
   version="1.1"
   id="svg2" class="svg2">
   <style>
    .svg2{
      cursor: pointer;
      overflow:hidden;
      padding: 1px 0;
    }
    .svg2 path{
      stroke: #000 !important;
    }
    .svg2_active path{
      stroke: #000 !important;
    }
    <!-- .svg2:hover{
      filter: drop-shadow( 0px 0px 1px #3b205c);
    }
    .svg2:hover path{
      stroke: #3a424b !important;
    } -->
   </style>
   <metadata
     id="metadata8"><rdf:RDF><cc:Work
         rdf:about=""><dc:format>image/svg+xml</dc:format><dc:type
           rdf:resource="http://purl.org/dc/dcmitype/StillImage" /></cc:Work></rdf:RDF></metadata><defs
     id="defs6" /><g
     transform="matrix(1.25,0,0,-1.25,0,422.5)"
     id="g10"><g
       transform="scale(0.1,0.1)"
       id="g12"><path
         id="path14" class="balance"
         style="fill:none;stroke:#3a424b;stroke-width:130;stroke-linecap:butt;stroke-linejoin:miter;stroke-miterlimit:10;stroke-dasharray:none;stroke-opacity:1"
         d="m 3373.11,2355.04 -233.11,0.75 455,-0.75 -221.89,0" /><path
         id="path16" class="balance"
         style="fill:none;stroke:#3a424b;stroke-width:130;stroke-linecap:butt;stroke-linejoin:miter;stroke-miterlimit:10;stroke-dasharray:none;stroke-opacity:1"
         d="m 998.262,2355.04 -232.942,0.75 454.68,-0.75 -221.738,0" /><path
         id="path18" class="balance"
         style="fill:none;stroke:#3a424b;stroke-width:130;stroke-linecap:round;stroke-linejoin:round;stroke-miterlimit:10;stroke-dasharray:none;stroke-opacity:1"
         d="M 905,2105 65,595 c 0,0 30,-530 810,-530 780,0 900,500 900,500 L 905,2105 Z" /><path
         id="path20" class="balance"
         style="fill:none;stroke:#3a424b;stroke-width:130;stroke-linecap:round;stroke-linejoin:round;stroke-miterlimit:10;stroke-dasharray:none;stroke-opacity:1"
         d="m 125,565 1580,0" /><path
         id="path22" class="balance"
         style="fill:none;stroke:#3a424b;stroke-width:130;stroke-linecap:round;stroke-linejoin:round;stroke-miterlimit:10;stroke-dasharray:none;stroke-opacity:1"
         d="M 3485,2105 2645,595 c 0,0 30,-530 810,-530 780,0 900,500 900,500 l -870,1540 z" /><path
         id="path24" class="balance"
         style="fill:none;stroke:#3a424b;stroke-width:130;stroke-linecap:round;stroke-linejoin:round;stroke-miterlimit:10;stroke-dasharray:none;stroke-opacity:1"
         d="m 2705,565 1580,0" /><path
         id="path26" class="balance"
         style="fill:none;stroke:#3a424b;stroke-width:130;stroke-linecap:butt;stroke-linejoin:miter;stroke-miterlimit:10;stroke-dasharray:none;stroke-opacity:1"
         d="m 3145,2350 c 0,-532.95 -432.04,-965 -965,-965 -532.95,0 -965,432.05 -965,965 0,532.95 432.05,965 965,965 532.96,0 965,-432.05 965,-965 z" /></g></g></svg>