<?xml version="1.0" encoding="UTF-8" standalone="no"?>
<svg
   xmlns:dc="http://purl.org/dc/elements/1.1/"
   xmlns:cc="http://creativecommons.org/ns#"
   xmlns:rdf="http://www.w3.org/1999/02/22-rdf-syntax-ns#"
   xmlns:svg="http://www.w3.org/2000/svg"
   xmlns="http://www.w3.org/2000/svg"
   viewBox="0 0 24 16"
   height="14"
   width="24"
   xml:space="preserve"
   id="svg2"
   version="1.1"><metadata
     id="metadata8"><rdf:RDF><cc:Work
         rdf:about=""><dc:format>image/svg+xml</dc:format><dc:type
           rdf:resource="http://purl.org/dc/dcmitype/StillImage" /></cc:Work></rdf:RDF></metadata><defs
     id="defs6"><clipPath
       id="clipPath20"
       clipPathUnits="userSpaceOnUse"><path
         id="path18"
         d="m 0,4.66016 h 180 v 110 H 0 Z" /></clipPath></defs><g
     transform="matrix(1.3333333,0,0,-1.3333333,0,16)"
     id="g10"><g
       transform="scale(0.1)"
       id="g12"><g
         id="g14"><g
           clip-path="url(#clipPath20)"
           id="g16"><path
             id="path22"
             style="fill:#a91c5f;fill-opacity:1;fill-rule:nonzero;stroke:none"
             d="M 70.8594,79.9688 C 67.1484,73.2109 64.6914,65.9414 63.1992,58.4414 57.4219,69.3008 48.4805,79.7305 39.9609,84.0703 46.25,72.0391 54.9609,58.1719 61.8008,48.9102 61.6406,47.4688 61.5586,46.0195 61.4492,44.5391 v -0.6289 l -0.039,-0.1914 v -0.2383 l -0.0391,-0.3516 c 0,-0.4297 -0.043,-0.8203 -0.043,-1.207 v -0.5938 l -0.039,-0.539 v -0.711 L 61.25,39.9297 v -3.3203 c 0,-3.5196 0.1992,-7.0313 0.4688,-10.5078 -10.668,10.3867 -29.879,19.3398 -42.9297,18.789 14.2226,-9.2187 33.1211,-19.0625 43.2812,-22.8515 0.2695,-2.5782 0.5899,-5.1602 0.9414,-7.6993 C 23.5195,-1.78906 18.75,30.4805 0,53.8711 12.3398,58.3281 22.7695,60.2383 31.5195,60.0117 28.7891,71.8789 30.3906,86.6484 28.0117,101.141 50.0781,97.4688 63.6719,90.0117 70.8594,79.9688 Z M 171.719,114.621 C 152.809,61.6914 166.25,1.10156 73.2383,14.8086 64.6484,73.8281 86.0195,115.789 171.719,114.621 Z M 145.738,88.9492 C 120.121,81.2617 87.8516,47.2695 80.8984,21.7305 93.1211,29.3789 124.449,61.6484 145.738,88.9492 Z" /></g></g></g></g></svg>