<?xml version="1.0" encoding="UTF-8" standalone="no"?>
<svg
   xmlns:dc="http://purl.org/dc/elements/1.1/"
   xmlns:cc="http://creativecommons.org/ns#"
   xmlns:rdf="http://www.w3.org/1999/02/22-rdf-syntax-ns#"
   xmlns:svg="http://www.w3.org/2000/svg"
   xmlns="http://www.w3.org/2000/svg"
   viewBox="0 0 120 185.33333"
   height="25"
   width="16"
   xml:space="preserve"
   id="svg2"
   version="1.1"><metadata
     id="metadata8"><rdf:RDF><cc:Work
         rdf:about=""><dc:format>image/svg+xml</dc:format><dc:type
           rdf:resource="http://purl.org/dc/dcmitype/StillImage" /></cc:Work></rdf:RDF></metadata><defs
     id="defs6"><clipPath
       id="clipPath20"
       clipPathUnits="userSpaceOnUse"><path
         id="path18"
         d="M 0,9.55859 H 900 V 1389.5586 H 0 Z" /></clipPath></defs><g
     transform="matrix(1.3333333,0,0,-1.3333333,0,185.33333)"
     id="g10"><g
       transform="scale(0.1)"
       id="g12"><g
         id="g14"><g
           clip-path="url(#clipPath20)"
           id="g16"><path
             id="path22"
             style="fill:#a91c5f;fill-opacity:1;fill-rule:nonzero;stroke:none"
             d="m 894.262,352.371 c -10.672,36.168 -36.762,59.301 -68.871,76.168 -40.161,21.102 -83.832,30.82 -128.321,37.539 -36.8,5.551 -73.871,8.133 -112.461,9.961 4.063,6.289 -1.41,16.609 10.161,16.801 9.101,0.121 16.281,2.148 18.71,11.91 2.891,11.531 -5.941,15.859 -13.992,20.789 21.684,14.449 37.114,31.641 34.492,59.332 -2.339,24.34 -1.949,24.027 16.02,38.559 23.012,18.672 45.551,37.89 68.199,56.949 3.403,2.891 8.602,5.512 7.621,10.742 -1.761,9.57 4.532,13.668 10.7,18.207 42.699,31.211 78.91,68.391 104.57,115.07 20.281,36.84 30.281,75.782 20.512,117.704 -13.364,57.296 -52.422,93.278 -102.813,118.118 -56.289,27.78 -116.09,36.72 -178.48,29.03 -4.918,-0.63 -12.649,-4.46 -15.039,1.56 -2.848,7.38 6.058,7.5 10.39,10.27 11.25,7.15 13.25,23.91 1.61,28.95 -13.168,5.66 -11.18,14.65 -11.25,24.33 -0.079,6.14 0.742,12.39 -0.2,18.4 -2.148,13.64 4.102,15.74 16.211,15.24 25,-1.02 50.16,-2.39 75,1.83 28.129,4.77 53.36,14.92 65.547,43.64 7.852,18.55 6.051,20.7 -14.258,20.7 -43.941,0 -87.89,0.19 -131.84,-0.2 -8.98,-0.07 -12.46,2.82 -10.109,11.37 1.828,6.64 7.649,3.48 11.68,3.67 21.051,1.02 28.828,11.84 20.898,30.78 -1.84,4.38 -1.918,7.07 0.43,11.06 11.949,20.19 15.269,42.89 18.32,65.7 1.25,9.14 -1.14,13.09 -11.058,13.01 -45.512,-0.35 -90.981,-0.43 -136.481,0 -10.238,0.08 -12.109,-4.3 -11.058,-13.01 2.07,-17.19 4.57,-34.26 10.976,-50.55 4.332,-11.05 14.024,-21.28 4.492,-34.64 -2.422,-3.44 0.352,-8.87 2.731,-12.97 6.058,-10.28 16.019,-9.57 25.75,-9.22 5.539,0.23 8.398,-1.13 8.508,-7.5 0.121,-6.33 -2.61,-7.7 -8.2,-7.58 -14.3,0.24 -28.629,0.08 -42.929,0.08 -32.192,0 -64.41,-0.35 -96.602,0.23 -11.367,0.2 -15.777,-2.69 -12.148,-14.53 6.332,-20.54 20.269,-33.63 39.41,-41.87 25.551,-11.02 52.621,-10.32 79.691,-10.71 13.09,-0.19 30.508,6.45 38.168,-2.07 8.039,-9.02 1.563,-26.36 2.531,-40 0.43,-6.17 -0.66,-10.19 -7.57,-12.34 -7.43,-2.3 -11.41,-8.52 -11.14,-16.56 0.281,-7.85 3.871,-14.03 11.531,-16.33 10.82,-3.28 9.019,-12.19 9.648,-19.92 0.781,-9.49 -7.929,-7.89 -12.859,-9.53 C 450.98,1053.78 400.309,1038.5 350.512,1020.81 265.82,990.648 183.199,955.93 112.422,898.66 20.5898,824.359 -17.8516,730.07 7.76953,612.68 28.1211,519.602 74.3398,441.398 144.801,377.57 c 7.578,-6.879 9.34,-11.172 1.679,-18.992 C 136.449,348.352 128.672,336.199 121.879,323.621 103.121,289.012 90,251.59 89.3789,212.84 c -0.8594,-51.442 5,-102.969 7.9609,-154.4884 6.9222,-10.7422 10.6292,-22.1524 9.6912,-35.3125 -0.39,-5.2774 1.918,-11.8789 8.59,-12.8907 7.309,-1.09762 10.859,3.9414 12.391,10.543 1.008,12.8086 1.476,25.7383 8.668,37.1094 0.269,5.8984 0.55,11.8398 0.781,17.7773 -0.781,0.2305 -1.563,0.3907 -2.301,0.461 0.781,-0.1094 1.52,-0.2696 2.34,-0.461 3.09,9.3321 5.309,19.6016 0.16,27.9999 -6.14,9.891 -15.39,17.891 2.692,24.731 3.32,1.25 2.148,6.48 2.347,9.961 1.281,24.492 1.281,49.101 4.063,73.402 1.679,14.566 -5.981,28.078 -2.742,42.109 6.679,28.75 19.851,54.328 39.14,76.867 6.102,7.071 10.199,8.442 18.559,2.582 33.051,-23.242 68.402,-42.73 106.09,-56.949 19.031,-7.152 31.171,-14.883 23.75,-37.23 -0.579,-1.801 0.16,-4.02 0.281,-6.051 3.121,-42.539 26.32,-72.93 59.289,-97.191 6.332,-4.688 8.91,-6.95 4.141,-15.981 -13.36,-25.3085 0.98,-46.5585 29.73,-46.5585 75.121,-0.039 150.27,0 225.391,-0.039 30.82,-0.0391 44.41,20.8593 30.199,48.3985 -3.602,6.992 -2.578,8.871 2.93,12.66 18.75,12.852 34.921,28.473 45.66,48.711 4.3,8.121 9.531,10.391 18.09,9.961 18.98,-0.902 37.691,2.148 56.089,6.398 71.172,16.289 111.332,83.68 90.903,153.012 z M 472.27,419.25 c -23.399,-28.602 -51.61,-52.148 -80.2,-75.238 -11.48,-9.293 -23.359,-18.242 -32.148,-30.352 -3.832,-5.23 -7.301,-6.719 -13.832,-4.058 -40.149,16.207 -78.981,34.839 -117.11,60.578 78.129,45.898 162,57.23 247.969,59.769 2.313,-5.937 -2.379,-7.929 -4.679,-10.699 z m 41.359,270.738 c -0.508,-4.687 -0.27,-9.527 -5.859,-13.008 -18.75,-11.679 -19.489,-16.871 -7.379,-34.371 -8.59,-4.14 -17.77,-7.578 -25.782,-12.781 -9.839,-6.398 -12.418,-0.859 -14.531,7 -0.348,1.402 0.66,3.434 0,4.453 -20.547,30.508 -44.848,58.008 -70.078,84.571 -5.621,5.937 -13.629,-0.981 -17.852,-6.954 -7.148,-10.199 -24.179,-14.257 -20.386,-31.097 0.738,-3.321 5.148,-6.051 8.199,-8.629 21.488,-18.133 43.008,-36.172 64.609,-54.184 3.129,-2.578 6.52,-6.679 9.918,-6.797 20.672,-0.66 15.551,-10.429 10.59,-23.511 -6.598,-17.27 -2.617,-34.18 8.942,-48.871 6.371,-8.09 14.3,-14.45 23.171,-20.2 -5.429,-4.019 -12.781,-6.211 -14.07,-13.507 -1.949,-10.903 2.66,-18.321 14.18,-18.793 7.621,-0.309 12.969,-1.207 12.699,-10.59 -0.352,-11.129 -9.102,-6.481 -13.672,-6.559 -64.609,-1.051 -128.129,-8.832 -189.848,-28.629 -30.699,-9.851 -59.921,-22.929 -86.441,-41.41 -7.418,-5.152 -11.879,-5.973 -19.18,0.629 C 101.68,478.148 53.6719,565.691 46.5195,672.762 42.4219,733.859 65.7813,786.512 107.5,830.93 c 45.941,48.941 103.199,80.898 163.48,108.242 79.372,35.976 162.5,61.248 245.782,87.418 0,-14.34 0.777,-27.66 -0.282,-40.781 -0.621,-7.848 -2.929,-15.43 -9.058,-22.071 -19.762,-21.367 -20.434,-48.09 -2.113,-70.547 4.101,-5 4.101,-7.031 0.203,-12.113 -17.703,-23 -17.934,-39.527 -1.102,-63.898 8.442,-12.192 12.539,-25.282 13.012,-40 1.019,-29.18 -0.543,-58.25 -3.793,-87.192 z m 62.66,-48.008 c 12.813,18.09 12.031,23.36 -6.801,34.918 -5.078,3.133 -5.187,7.274 -5.66,11.493 -3.359,31.48 -5.238,63.078 -3.519,94.757 0.711,13.602 5.98,25.43 13.48,36.762 14.883,22.34 14.41,39.262 -2.539,60 -5.078,6.168 -3.281,8.481 0.781,13.481 15.86,19.41 18.36,45 2.66,63.32 -13.441,15.66 -14.769,32.687 -15.043,51.089 -0.429,31.45 -0.546,32.58 31.172,35.67 68.91,6.75 133.321,-5.75 187.66,-51.49 42.891,-36.089 52.379,-84.492 27.301,-134.921 -10.429,-20.981 -22.89,-39.649 -43.32,-54.84 -21.09,-15.707 -35.43,-40.469 -52.891,-61.098 -5.66,-6.723 -9.73,-15.859 -21.332,-14.492 -3.75,0.43 -5.859,-3.629 -8.117,-6.367 -19.383,-23.043 -38.711,-46.133 -58.051,-69.223 -0.66,-0.777 -1.129,-1.789 -1.91,-2.418 -7.191,-5.582 -0.121,-21.48 -12.5,-21.211 -8.211,0.238 -16.211,7.699 -24.379,11.84 -1.801,0.93 -3.793,1.48 -6.992,2.73 z M 850.941,302.648 c -6.453,-33.476 -31.332,-55.199 -69.652,-60.589 -10.59,-1.45 -22.109,-6.329 -31.641,-2.309 -11.367,4.852 -5,18.789 -8.046,28.398 -9.614,29.93 -27.852,52.93 -51.954,71.922 -26.878,21.168 -52.808,43.321 -76.128,68.43 -5.399,5.828 -10.2,12.23 -17.27,20.789 70.738,-5.16 138.051,-9.57 200.941,-37.969 4.61,-2.07 8.938,-4.808 13.321,-7.422 34.289,-20.707 47.109,-46.488 40.429,-81.25 z" /></g></g></g></g></svg>