<?xml version="1.0" encoding="UTF-8" standalone="no"?>
<svg
   xmlns:dc="http://purl.org/dc/elements/1.1/"
   xmlns:cc="http://creativecommons.org/ns#"
   xmlns:rdf="http://www.w3.org/1999/02/22-rdf-syntax-ns#"
   xmlns:svg="http://www.w3.org/2000/svg"
   xmlns="http://www.w3.org/2000/svg"
   viewBox="0 0 95.053329 123.26667"
   height="54"
   width="42"
   xml:space="preserve"
   id="svg2"
   version="1.1"><metadata
     id="metadata8"><rdf:RDF><cc:Work
         rdf:about=""><dc:format>image/svg+xml</dc:format><dc:type
           rdf:resource="http://purl.org/dc/dcmitype/StillImage" /></cc:Work></rdf:RDF></metadata><defs
     id="defs6" /><g
     transform="matrix(1.3333333,0,0,-1.3333333,0,123.26667)"
     id="g10"><g
       transform="scale(0.1)"
       id="g12"><path
         id="path14"
         style="fill:#aeaeae;fill-opacity:1;fill-rule:nonzero;stroke:none"
         d="m 350,922.5 c 0,0 144.648,10 149.648,-15 5,-25 -20,-40 -32.5,-42.5 V 712.5 c 0,0 -47.5,-71.645 -12.5,-150.82 35,-79.18 -7.5,-74.18 217.5,-336.68 95,-127.5 2.5,-155 -62.5,-187.5 C 544.648,5 350,0 350,0 v 922.5" /><path
         id="path16"
         style="fill:#aeaeae;fill-opacity:1;fill-rule:nonzero;stroke:none"
         d="m 362.852,922.5 c 0,0 -144.649,10 -149.649,-15 -5,-25 20,-40 32.5,-42.5 V 712.5 c 0,0 47.5,-71.645 12.5,-150.82 -35,-79.18 7.5,-74.18 -217.4999,-336.68 -95,-127.5 -2.5,-155 62.4999,-187.5 C 168.203,5 362.852,0 362.852,0 v 922.5" /></g></g></svg>