<?xml version="1.0" encoding="UTF-8" standalone="no"?>
<svg
   xmlns:dc="http://purl.org/dc/elements/1.1/"
   xmlns:cc="http://creativecommons.org/ns#"
   xmlns:rdf="http://www.w3.org/1999/02/22-rdf-syntax-ns#"
   xmlns:svg="http://www.w3.org/2000/svg"
   xmlns="http://www.w3.org/2000/svg"
   viewBox="0 0 122.38667 65.559998"
   height="34"
   width="62"
   xml:space="preserve"
   id="svg2"
   version="1.1"><metadata
     id="metadata8"><rdf:RDF><cc:Work
         rdf:about=""><dc:format>image/svg+xml</dc:format><dc:type
           rdf:resource="http://purl.org/dc/dcmitype/StillImage" /></cc:Work></rdf:RDF></metadata><defs
     id="defs6" /><g
     transform="matrix(1.3333333,0,0,-1.3333333,0,65.56)"
     id="g10"><g
       transform="scale(0.1)"
       id="g12"><path
         id="path14"
         style="fill:#aeaeae;fill-opacity:1;fill-rule:nonzero;stroke:none"
         d="m 596.859,205.379 c -2.019,1.402 -4.035,2.859 -6.093,4.187 -13.047,7.852 -26.875,13.782 -40.996,18.289 -28.309,9.231 -57.59,13.071 -87.165,13.372 -29.164,-0.286 -58.73,-4.114 -86.949,-13.332 -14.133,-4.52 -27.961,-10.426 -41.008,-18.297 -2.472,-1.582 -4.91,-3.293 -7.324,-5.032 -162.152,17.079 -278.992,65 -278.992,121.497 0,70.8 183.523,140.031 409.91,140.031 226.399,0 409.914,-69.231 409.914,-140.031 0,-55.618 -113.133,-102.915 -271.297,-120.684 z M 458.242,197.84 c -37.535,0 -73.828,1.598 -108.363,4.558 9.75,2.981 19.629,5.497 29.582,7.508 27.551,5.18 55.289,7.793 83.355,7.657 27.637,0.167 55.684,-2.458 83.133,-7.625 9.297,-1.895 18.559,-4.219 27.696,-6.922 -36.622,-3.364 -75.309,-5.176 -115.403,-5.176 z m 0.801,293.875 C 239.961,491.715 56.8359,430.367 11.0977,348.32 3.90625,335.43 0,322.047 0,308.281 0,301.848 0.84375,295.48 2.46094,289.219 12.4883,232.43 61.543,172.945 138.094,126.461 181.68,99.9766 230.797,79.3047 283.031,64.8984 c -1.41,-2.832 -2.363,-5.7109 -2.363,-8.6796 0,-31.0586 80.191,-56.22270625 179.109,-56.22270625 98.926,0 179.114,25.16410625 179.114,56.22270625 0,2.9687 -0.95,5.8398 -2.364,8.6796 52.235,14.4063 100.801,36.2496 144.95,61.5626 125.441,71.875 136.445,184.082 136.445,184.082 -3.027,100.258 -207.266,181.172 -458.879,181.172" /></g></g></svg>