<?xml version="1.0" encoding="UTF-8" standalone="no"?>
<svg
   xmlns:dc="http://purl.org/dc/elements/1.1/"
   xmlns:cc="http://creativecommons.org/ns#"
   xmlns:rdf="http://www.w3.org/1999/02/22-rdf-syntax-ns#"
   xmlns:svg="http://www.w3.org/2000/svg"
   xmlns="http://www.w3.org/2000/svg"
   viewBox="0 0 284.30667 593.74664"
   height="24"
   width="12"
   xml:space="preserve"
   id="svg2"
   version="1.1"><metadata
     id="metadata8"><rdf:RDF><cc:Work
         rdf:about=""><dc:format>image/svg+xml</dc:format><dc:type
           rdf:resource="http://purl.org/dc/dcmitype/StillImage" /></cc:Work></rdf:RDF></metadata><defs
     id="defs6" /><g
     transform="matrix(1.3333333,0,0,-1.3333333,0,593.74667)"
     id="g10"><g
       transform="scale(0.1)"
       id="g12"><path
         id="path14"
         style="fill:#a91c5f;fill-opacity:1;fill-rule:nonzero;stroke:none"
         d="M 455.004,3909.62 H 206.398 v 477.69 c 0,36.33 29.45,65.78 65.774,65.78 H 389.23 c 36.325,0 65.774,-29.45 65.774,-65.78 v -477.69" /><path
         id="path16"
         style="fill:#a91c5f;fill-opacity:1;fill-rule:nonzero;stroke:none"
         d="M 577.141,3430.46 H 84.2617 v 436.03 c 0,33.81 27.4063,61.21 61.2113,61.21 H 515.93 c 33.804,0 61.211,-27.4 61.211,-61.21 v -436.03" /><path
         id="path18"
         style="fill:#a91c5f;fill-opacity:1;fill-rule:nonzero;stroke:none"
         d="M 602.934,3152.24 H 58.4688 c -30.0586,0 -54.42974,24.37 -54.42974,54.42 v 523.54 c 0,44.81 36.32814,81.14 81.14064,81.14 H 576.223 c 44.808,0 81.136,-36.33 81.136,-81.14 v -523.54 c 0,-30.05 -24.367,-54.42 -54.425,-54.42" /><path
         id="path20"
         style="fill:#a91c5f;fill-opacity:1;fill-rule:nonzero;stroke:none"
         d="M 590.336,2563.09 H 71.0664 c -37.0156,0 -67.02734,30.01 -67.02734,67.03 v 456.46 c 0,36.26 29.40234,65.66 65.66014,65.66 H 591.703 c 36.258,0 65.656,-29.4 65.656,-65.66 v -456.46 c 0,-37.02 -30.007,-67.03 -67.023,-67.03" /><path
         id="path22"
         style="fill:#a91c5f;fill-opacity:1;fill-rule:nonzero;stroke:none"
         d="M 485.387,3922.81 H 174.93 c -15.586,0 -28.336,12.75 -28.336,28.34 v 9.81 c 0,15.59 12.75,28.34 28.336,28.34 h 310.457 c 15.586,0 28.336,-12.75 28.336,-28.34 v -9.81 c 0,-15.59 -12.75,-28.34 -28.336,-28.34" /><path
         id="path24"
         style="fill:#ffffff;fill-opacity:1;fill-rule:nonzero;stroke:none"
         d="m 49.5742,3243.47 v 476.63 c 0,11.82 9.6719,21.5 21.4922,21.5 h 26.3867 c 11.8199,0 21.4999,-9.68 21.4999,-21.5 v -476.63 c 0,-11.82 -9.68,-21.49 -21.4999,-21.49 H 71.0664 c -11.8203,0 -21.4922,9.67 -21.4922,21.49" /><path
         id="path26"
         style="fill:#231f20;fill-opacity:1;fill-rule:nonzero;stroke:none"
         d="m 72.5469,3736.25 c -9.7227,0 -17.6328,-7.91 -17.6328,-17.64 v -473.65 c 0,-9.73 7.9101,-17.64 17.6328,-17.64 h 23.4258 c 9.7223,0 17.6323,7.91 17.6323,17.64 v 473.65 c 0,9.73 -7.91,17.64 -17.6323,17.64 z M 95.9727,3216.63 H 72.5469 c -15.6172,0 -28.3203,12.71 -28.3203,28.33 v 473.65 c 0,15.63 12.7031,28.33 28.3203,28.33 h 23.4258 c 15.6173,0 28.3203,-12.7 28.3203,-28.33 v -473.65 c 0,-15.62 -12.703,-28.33 -28.3203,-28.33" /><path
         id="path28"
         style="fill:#ffffff;fill-opacity:1;fill-rule:nonzero;stroke:none"
         d="m 171.707,3243.47 v 476.63 c 0,11.82 9.672,21.5 21.5,21.5 h 26.387 c 11.82,0 21.492,-9.68 21.492,-21.5 v -476.63 c 0,-11.82 -9.672,-21.49 -21.492,-21.49 h -26.387 c -11.828,0 -21.5,9.67 -21.5,21.49" /><path
         id="path30"
         style="fill:#231f20;fill-opacity:1;fill-rule:nonzero;stroke:none"
         d="m 194.684,3736.25 c -9.719,0 -17.637,-7.91 -17.637,-17.64 v -473.65 c 0,-9.73 7.918,-17.64 17.637,-17.64 h 23.429 c 9.723,0 17.633,7.91 17.633,17.64 v 473.65 c 0,9.73 -7.91,17.64 -17.633,17.64 z m 23.429,-519.62 h -23.429 c -15.614,0 -28.325,12.71 -28.325,28.33 v 473.65 c 0,15.63 12.711,28.33 28.325,28.33 h 23.429 c 15.614,0 28.321,-12.7 28.321,-28.33 v -473.65 c 0,-15.62 -12.707,-28.33 -28.321,-28.33" /><path
         id="path32"
         style="fill:#ffffff;fill-opacity:1;fill-rule:nonzero;stroke:none"
         d="m 293.844,3243.47 v 476.63 c 0,11.82 9.676,21.5 21.496,21.5 h 26.387 c 11.82,0 21.492,-9.68 21.492,-21.5 v -476.63 c 0,-11.82 -9.672,-21.49 -21.492,-21.49 H 315.34 c -11.82,0 -21.496,9.67 -21.496,21.49" /><path
         id="path34"
         style="fill:#231f20;fill-opacity:1;fill-rule:nonzero;stroke:none"
         d="m 316.82,3736.25 c -9.722,0 -17.632,-7.91 -17.632,-17.64 v -473.65 c 0,-9.73 7.91,-17.64 17.632,-17.64 h 23.426 c 9.723,0 17.633,7.91 17.633,17.64 v 473.65 c 0,9.73 -7.91,17.64 -17.633,17.64 z m 23.426,-519.62 H 316.82 c -15.617,0 -28.32,12.71 -28.32,28.33 v 473.65 c 0,15.63 12.703,28.33 28.32,28.33 h 23.426 c 15.617,0 28.317,-12.7 28.317,-28.33 v -473.65 c 0,-15.62 -12.7,-28.33 -28.317,-28.33" /><path
         id="path36"
         style="fill:#ffffff;fill-opacity:1;fill-rule:nonzero;stroke:none"
         d="m 415.98,3243.47 v 476.63 c 0,11.82 9.672,21.5 21.493,21.5 h 26.386 c 11.829,0 21.5,-9.68 21.5,-21.5 v -476.63 c 0,-11.82 -9.671,-21.49 -21.5,-21.49 h -26.386 c -11.821,0 -21.493,9.67 -21.493,21.49" /><path
         id="path38"
         style="fill:#231f20;fill-opacity:1;fill-rule:nonzero;stroke:none"
         d="m 438.953,3736.25 c -9.723,0 -17.629,-7.91 -17.629,-17.64 v -473.65 c 0,-9.73 7.906,-17.64 17.629,-17.64 h 23.426 c 9.723,0 17.637,7.91 17.637,17.64 v 473.65 c 0,9.73 -7.914,17.64 -17.637,17.64 z m 23.426,-519.62 h -23.426 c -15.617,0 -28.316,12.71 -28.316,28.33 v 473.65 c 0,15.63 12.699,28.33 28.316,28.33 h 23.426 c 15.617,0 28.328,-12.7 28.328,-28.33 v -473.65 c 0,-15.62 -12.711,-28.33 -28.328,-28.33" /><path
         id="path40"
         style="fill:#ffffff;fill-opacity:1;fill-rule:nonzero;stroke:none"
         d="m 538.113,3243.47 v 476.63 c 0,11.82 9.672,21.5 21.5,21.5 H 586 c 11.82,0 21.492,-9.68 21.492,-21.5 v -476.63 c 0,-11.82 -9.672,-21.49 -21.492,-21.49 h -26.387 c -11.828,0 -21.5,9.67 -21.5,21.49" /><path
         id="path42"
         style="fill:#231f20;fill-opacity:1;fill-rule:nonzero;stroke:none"
         d="m 561.09,3736.25 c -9.719,0 -17.637,-7.91 -17.637,-17.64 v -473.65 c 0,-9.73 7.918,-17.64 17.637,-17.64 h 23.43 c 9.722,0 17.632,7.91 17.632,17.64 v 473.65 c 0,9.73 -7.91,17.64 -17.632,17.64 z m 23.43,-519.62 h -23.43 c -15.613,0 -28.324,12.71 -28.324,28.33 v 473.65 c 0,15.63 12.711,28.33 28.324,28.33 h 23.43 c 15.613,0 28.32,-12.7 28.32,-28.33 v -473.65 c 0,-15.62 -12.707,-28.33 -28.32,-28.33" /><path
         id="path44"
         style="fill:#a91c5f;fill-opacity:1;fill-rule:nonzero;stroke:none"
         d="m 1815.4,2351.04 -340.4,340.4 274.43,274.43 c 36.44,36.44 95.51,36.44 131.95,0 l 208.46,-208.45 c 36.43,-36.44 36.43,-95.52 0,-131.95 L 1815.4,2351.04" /><path
         id="path46"
         style="fill:#a91c5f;fill-opacity:1;fill-rule:nonzero;stroke:none"
         d="M 2132.27,2264.11 H 0.00390625 v 64.12 H 2132.27 Z m 0,-211.54 H 0.00390625 v 64.13 H 2132.27 Z m 0,-211.53 H 0.00390625 v 64.13 H 2132.27 Z m 0,-211.52 H 0.00390625 v 64.13 H 2132.27 Z m 0,-211.53 H 0.00390625 v 64.13 H 2132.27 Z m 0,-211.52 H 0.00390625 v 64.13 H 2132.27 Z m 0,-211.529 H 0.00390625 v 64.129 H 2132.27 Z m 0,-211.531 H 0.00390625 v 64.129 H 2132.27 Z m 0,-211.519 H 0.00390625 V 636.02 H 2132.27 Z m 0,-211.52 H 0.00390625 V 424.5 H 2132.27 Z M 1685.57,2990.54 H 0.00390625 V 195.859 C 0.00390625,87.6914 87.6914,-0.0117188 195.867,-0.0117188 H 1936.4 c 108.17,0 195.87,87.7031188 195.87,195.8707188 V 2543.84 c -174.45,174.45 -272.25,272.25 -446.7,446.7" /></g></g></svg>