<?xml version="1.0" encoding="UTF-8" standalone="no"?>
<svg
   xmlns:dc="http://purl.org/dc/elements/1.1/"
   xmlns:cc="http://creativecommons.org/ns#"
   xmlns:rdf="http://www.w3.org/1999/02/22-rdf-syntax-ns#"
   xmlns:svg="http://www.w3.org/2000/svg"
   xmlns="http://www.w3.org/2000/svg"
   viewBox="0 0 108.86667 87.453331"
   height="20"
   width="16"
   xml:space="preserve"
   id="svg2"
   version="1.1"><metadata
     id="metadata8"><rdf:RDF><cc:Work
         rdf:about=""><dc:format>image/svg+xml</dc:format><dc:type
           rdf:resource="http://purl.org/dc/dcmitype/StillImage" /></cc:Work></rdf:RDF></metadata><defs
     id="defs6" /><g
     transform="matrix(1.3333333,0,0,-1.3333333,0,87.453333)"
     id="g10"><g
       transform="scale(0.1)"
       id="g12"><path
         id="path14"
         style="fill:#a91c5f;fill-opacity:1;fill-rule:nonzero;stroke:none"
         d="m 760.746,527.848 c 0,-6.735 -16.973,-28.453 -94.449,-47.817 -68.293,-17.062 -159.367,-26.468 -256.457,-26.468 -227.063,0 -350.9103,49.07 -350.9103,74.285 0,25.222 123.8633,74.316 350.9103,74.316 97.09,0 188.183,-9.398 256.457,-26.473 77.488,-19.382 94.449,-41.117 94.449,-47.843 z m -1.543,-94.887 c 0,-32.531 -133.504,-77.883 -350.957,-77.883 -217.445,0 -350.9491,45.352 -350.9491,77.883 V 478.77 C 122.375,437.145 270.102,417.746 409.84,417.746 c 99.941,0 194.109,9.77 265.144,27.531 36.086,9.028 64.153,19.567 84.219,31.559 z M 816.5,527.848 C 816.5,652.281 450.035,655.879 408.246,655.879 366.465,655.879 0,652.281 0,527.848 v -94.887 c 0,-8.055 1.58594,-15.559 4.46875,-22.617 -0.05859,-1.117 -0.14062,-2.25 -0.14062,-3.297 L 3.35156,136.484 C 2.82422,134.094 2.44531,131.328 2.44531,128.254 2.44531,3.59375 366.738,0 408.262,0 449.789,0 814.051,3.59375 814.051,128.254 v 278.652 c 0,2.66 -0.285,5.157 -0.676,7.578 1.902,5.856 3.125,11.957 3.125,18.461 v 94.903" /></g></g></svg>