<?xml version="1.0" encoding="UTF-8" standalone="no"?>
<svg
   xmlns:dc="http://purl.org/dc/elements/1.1/"
   xmlns:cc="http://creativecommons.org/ns#"
   xmlns:rdf="http://www.w3.org/1999/02/22-rdf-syntax-ns#"
   xmlns:svg="http://www.w3.org/2000/svg"
   xmlns="http://www.w3.org/2000/svg"
   viewBox="0 0 16.4 117.6"
   height="70"
   width="70"
   xml:space="preserve"
   id="svg2"
   version="1.1"><metadata
     id="metadata8"><rdf:RDF><cc:Work
         rdf:about=""><dc:format>image/svg+xml</dc:format><dc:type
           rdf:resource="http://purl.org/dc/dcmitype/StillImage" /></cc:Work></rdf:RDF></metadata><defs
     id="defs6" /><g
     transform="matrix(1.3333333,0,0,-1.3333333,0,117.6)"
     id="g10"><g
       transform="scale(0.1)"
       id="g12"><path
         id="path14"
         style="fill:#aeaeae;fill-opacity:1;fill-rule:nonzero;stroke:none"
         d="m 58.8633,881.992 c 0,0 10.7812,-1.133 13.0469,-9.074 2.2734,-7.938 -1.1329,-22.688 9.6484,-34.598 5.0977,-6.242 -2.2773,-10.777 -2.2773,-10.777 0,0 -2.8321,-15.316 -1.6993,-17.016 1.1328,-1.703 36.301,-7.941 31.77,-24.957 -4.543,-17.015 -30.0707,-23.257 -30.0707,-23.257 0,0 10.2148,-7.372 9.082,-19.852 -1.1406,-12.477 -7.3828,-6.234 -7.3828,-21.555 0,-15.308 -9.6367,-2.265 9.082,-57.281 5.6758,-18.719 3.8086,-24.957 -5.75,-42.539 -9.5625,-17.586 -3.8984,-31.199 11.9922,-44.813 0,0 -26.0938,-22.117 -19.2891,-45.941 6.8086,-23.824 37.6754,-51.617 32.7344,-86.785 0.527,-10.207 -22.5273,-25.52 -22.5273,-25.52 0,0 -6.8086,-16.457 2.2734,-13.613 9.0742,2.832 15.8789,13.613 18.1449,10.77 2.277,-2.832 0.742,-13.133 2.636,-11.102 1.907,2.031 5.305,-0.266 5.305,-0.266 v -3.945 h 7.371 L 106.508,383.43 c 0,0 10.215,-7.942 10.215,-11.914 0,-3.965 -28.9339,1.699 -25.8089,-34.602 2.5468,-17.578 15.5939,-20.422 15.5939,-20.422 0,0 -1.133,-9.637 -22.1174,-10.203 l -2.832,-27.226 c 0,0 -0.5781,-3.411 -14.7578,-2.266 L 65.1016,11.9141 58.8633,6.80469 V 0 h -5.0977 l 5.0977,881.992" /><path
         id="path16"
         style="fill:#aeaeae;fill-opacity:1;fill-rule:nonzero;stroke:none"
         d="m 58.8633,881.992 c 0,0 -11.7891,-1.133 -14.0547,-9.074 -2.2656,-7.938 1.1328,-22.688 -9.6367,-34.598 -5.1094,-6.242 2.2656,-10.777 2.2656,-10.777 0,0 2.832,-15.316 1.6992,-17.016 C 38.0039,808.824 2.83594,802.586 7.37891,785.57 11.9102,768.555 37.4375,762.313 37.4375,762.313 c 0,0 -10.2148,-7.372 -9.0742,-19.852 1.1328,-12.477 7.375,-6.234 7.375,-21.555 0,-15.308 9.6367,-2.265 -9.082,-57.281 -5.6758,-18.719 -3.8086,-24.957 5.75,-42.539 9.5625,-17.586 3.8984,-31.199 -11.9922,-44.813 0,0 26.0937,-22.117 19.289,-45.941 C 32.8945,506.508 2.02734,478.715 6.96875,443.547 6.44141,433.34 29.4961,418.027 29.4961,418.027 c 0,0 7.8906,-12.968 -2.2734,-13.613 L 5.78516,381.531 -0.00390625,374.016 c 0,-3.977 28.93360625,-0.801 25.80860625,-37.102 -2.5469,-17.578 -15.5938,-20.422 -15.5938,-20.422 0,0 1.1329,-9.637 22.1172,-10.203 l 2.8438,-27.226 c 0,0 0.5664,-3.411 14.7461,-2.266 L 51.6172,11.9141 57.8555,6.80469 V 0 h 5.0976 l -4.0898,881.992" /><path
         id="path18"
         style="fill:#aeaeae;fill-opacity:1;fill-rule:nonzero;stroke:none"
         d="m 53.7656,0 5.0977,881.992 c 0,0 10.7812,-1.133 13.0469,-9.074" /><path
         id="path20"
         style="fill:#aeaeae;fill-opacity:1;fill-rule:nonzero;stroke:none"
         d="M 27.2227,404.414 5.78516,381.531 -0.00390625,374.016" /></g></g></svg>