<?xml version="1.0" encoding="UTF-8" standalone="no"?>
<svg
   xmlns:dc="http://purl.org/dc/elements/1.1/"
   xmlns:cc="http://creativecommons.org/ns#"
   xmlns:rdf="http://www.w3.org/1999/02/22-rdf-syntax-ns#"
   xmlns:svg="http://www.w3.org/2000/svg"
   xmlns="http://www.w3.org/2000/svg"
   viewBox="0 0 245.60001 563.46667"
   height="22"
   width="10"
   xml:space="preserve"
   id="svg2"
   version="1.1"><metadata
     id="metadata8"><rdf:RDF><cc:Work
         rdf:about=""><dc:format>image/svg+xml</dc:format><dc:type
           rdf:resource="http://purl.org/dc/dcmitype/StillImage" /></cc:Work></rdf:RDF></metadata><defs
     id="defs6" /><g
     transform="matrix(1.3333333,0,0,-1.3333333,0,563.46667)"
     id="g10"><g
       transform="scale(0.1)"
       id="g12"><path
         id="path14"
         style="fill:#a91c5f;fill-opacity:1;fill-rule:nonzero;stroke:none"
         d="M 1217.95,4225.99 H 624.043 C 619.734,3748.27 400.25,3627.77 400.25,3627.77 H 921 1441.75 c 0,0 -219.49,120.5 -223.8,598.22" /><path
         id="path16"
         style="fill:none;stroke:#4f4c4c;stroke-width:80;stroke-linecap:butt;stroke-linejoin:miter;stroke-miterlimit:10;stroke-dasharray:none;stroke-opacity:1"
         d="M 1441.75,3627.77 H 400.25 L 275.438,3502.96 V 2487.28 H 921 1566.56 v 1015.68 z" /><path
         id="path18"
         style="fill:#a91c5f;fill-opacity:1;fill-rule:nonzero;stroke:none"
         d="m 969.262,616.48 c -408.739,2.29 -548.813,257.18 -521.258,452.37 27.551,195.19 314.594,668.22 440.887,620 42.043,-16.05 -8.036,-36.75 12.632,-59.71 20.665,-22.95 92.055,0.93 119.407,45.93 27.35,45 134.33,59.7 198.63,-151.56 64.29,-211.26 126.29,-248 149.26,-385.77 C 1391.78,999.949 1378,614.18 969.262,616.48 Z M 834.93,2042.47 c 51.668,31.01 158.445,-265.21 172.22,-323.77 13.78,-58.56 -81.978,-82.67 -86.111,-37.9 31.004,117.12 -121.797,340.27 -86.109,361.67 z m 461.56,-175.66 c 0,0 -269.31,-43.69 -377.49,177.93 0,0 281.04,107.96 377.49,-177.93 z m 168.93,654.9 H 376.578 C 168.598,2521.71 0,2353.11 0,2145.13 V 361.52 C 0,161.859 161.855,0 361.512,0 H 921 1480.48 C 1680.14,0 1842,161.859 1842,361.52 v 1783.61 c 0,207.98 -168.6,376.58 -376.58,376.58" /></g></g></svg>