<?xml version="1.0" encoding="utf-8"?>
<!-- Generator: Adobe Illustrator 21.0.2, SVG Export Plug-In . SVG Version: 6.00 Build 0)  -->
<svg version="1.1" id="Capa_1" xmlns="http://www.w3.org/2000/svg" xmlns:xlink="http://www.w3.org/1999/xlink" x="0px" y="0px"
	 viewBox="0 0 512 512" style="enable-background:new 0 0 512 512;" xml:space="preserve">
<style type="text/css">
	.st0{fill:#BCBCBC;}
</style>
<g>
	<g>
		<polygon class="st0" points="134.5,274.9 154.8,274.9 154.8,384.7 174,384.7 174,274.9 194.7,274.9 194.7,256.9 134.5,256.9 		"/>
		<path class="st0" d="M296.9,288.3c-6.3,0-12.3,3.5-17.8,10.3v-41.8h-17.3v127.9H279v-9.2c5.8,7.1,11.7,10.5,17.8,10.5
			c6.9,0,11.5-3.6,13.8-10.7c1.2-4,1.7-10.4,1.7-19.2v-37.9c0-9-0.6-15.3-1.7-19.1C308.3,291.9,303.7,288.3,296.9,288.3z
			 M295.1,357.5c0,8.6-2.5,12.9-7.5,12.9c-2.8,0-5.7-1.4-8.6-4.2v-58.1c2.9-2.9,5.8-4.2,8.6-4.2c5,0,7.5,4.4,7.5,13V357.5z"/>
		<path class="st0" d="M229.5,362.3c-3.8,5.4-7.4,8.1-10.9,8.1c-2.3,0-3.6-1.4-4-4c-0.2-0.6-0.2-2.7-0.2-6.7v-70.1h-17.3v75.3
			c0,6.7,0.6,11.3,1.5,14.2c1.7,4.8,5.6,7.1,11.1,7.1c6.4,0,12.9-3.8,19.7-11.7v10.4h17.3v-95.3h-17.3V362.3z"/>
		<path class="st0" d="M244.4,201.5c5.6,0,8.3-4.5,8.3-13.4v-40.5c0-8.9-2.7-13.3-8.3-13.3c-5.6,0-8.3,4.4-8.3,13.3v40.5
			C236,197,238.7,201.5,244.4,201.5z"/>
		<path class="st0" d="M256,0C114.6,0,0,114.6,0,256s114.6,256,256,256s256-114.6,256-256S397.4,0,256,0z M284.5,119.7h17.4v70.9
			c0,4.1,0,6.2,0.2,6.8c0.4,2.7,1.8,4.1,4.1,4.1c3.5,0,7.1-2.7,11-8.2v-73.6h17.4V216h-17.4v-10.5c-6.9,8-13.6,11.8-19.9,11.8
			c-5.6,0-9.5-2.3-11.2-7.1c-1-2.9-1.5-7.5-1.5-14.3V119.7L284.5,119.7z M218.6,151.1c0-10.3,1.7-17.8,5.5-22.7
			c4.8-6.6,11.6-9.9,20.3-9.9c8.7,0,15.5,3.3,20.3,9.9c3.7,4.9,5.4,12.4,5.4,22.7v33.7c0,10.2-1.7,17.8-5.4,22.6
			c-4.8,6.6-11.6,9.9-20.3,9.9c-8.7,0-15.5-3.3-20.3-9.9c-3.7-4.8-5.5-12.4-5.5-22.6V151.1z M171.9,86.8l13.7,50.7l13.2-50.7h19.6
			l-23.3,76.9V216h-19.3v-52.3c-1.8-9.3-5.6-22.9-11.8-40.9c-4.1-12-8.3-24-12.4-36C151.6,86.8,171.9,86.8,171.9,86.8z M393.8,393.2
			c-3.5,15.2-15.9,26.4-30.9,28.1c-35.4,4-71.3,4-107,4c-35.7,0-71.5,0-107-4c-15-1.7-27.4-12.9-30.9-28.1c-5-21.6-5-45.2-5-67.5
			s0.1-45.9,5-67.5c3.5-15.2,15.9-26.4,30.9-28.1c35.4-4,71.3-4,107-4c35.7,0,71.5,0,107,4c15,1.7,27.4,12.9,30.9,28.1
			c5,21.6,4.9,45.2,4.9,67.5S398.8,371.5,393.8,393.2z"/>
		<path class="st0" d="M351.8,288.3c-8.8,0-15.7,3.2-20.7,9.8c-3.7,4.8-5.3,12.3-5.3,22.4v33.4c0,10.1,1.9,17.6,5.5,22.4
			c5,6.5,11.9,9.8,20.9,9.8c9,0,16.1-3.4,20.9-10.3c2.1-3.1,3.5-6.5,4-10.3c0.2-1.7,0.4-5.6,0.4-11.1v-2.5h-17.6
			c0,6.9-0.2,10.8-0.4,11.7c-1,4.6-3.5,6.9-7.7,6.9c-5.9,0-8.8-4.4-8.8-13.2v-16.9h34.5v-19.7c0-10.2-1.7-17.6-5.3-22.4
			C367.4,291.6,360.5,288.3,351.8,288.3z M360.3,325.9H343v-8.8c0-8.8,2.9-13.2,8.7-13.2c5.7,0,8.6,4.4,8.6,13.2V325.9z"/>
	</g>
</g>
</svg>
