<?xml version="1.0" encoding="utf-8"?>
<!-- Generator: Adobe Illustrator 21.0.2, SVG Export Plug-In . SVG Version: 6.00 Build 0)  -->
<svg version="1.1" id="Слой_1" xmlns="http://www.w3.org/2000/svg" xmlns:xlink="http://www.w3.org/1999/xlink" x="0px" y="0px"
	 viewBox="0 0 1366 768" style="enable-background:new 0 0 1366 768;" xml:space="preserve">
<style type="text/css">
	.st0{font-family:'BookAntiqua-Bold';}
	.st1{font-size:198.8493px;}
</style>
<path d="M1228.3,233.4c-12.7-0.6-27.6-1.1-43.1-1.7c-2.8,0-5.5,0-8.8,0c-5,0-10.5,0-15.5,0h-7.7c2.2-2.2,4.4-4.4,6.6-6.6
	c1.1-1.7,2.8-2.8,3.9-3.9c7.2-7.2,13.8-14.4,19.9-21c11.6-12.2,18.8-21,18.8-21c1.1-1.7,1.1-3.3,0-5c-1.1-1.1-3.3-1.7-5,0
	c0,0-8.8,7.2-21,18.8c-6.6,6.1-13.8,12.7-21,19.9c-1.1,1.1-2.8,2.8-3.9,3.9c-2.2,2.2-4.4,4.4-7.2,6.6v-7.7c0-5.5,0-11,0-16
	c0-2.8,0-5.5,0-8.3c-0.6-15.5-0.6-30.4-1.7-43.1c-1.1-24.9-2.8-42-2.8-42.5c0-1.7-1.7-3.3-3.9-3.3c-1.7,0-3.3,1.7-3.9,3.3
	c0,0-1.7,17.1-2.8,42.5c-0.6,13.3-1.1,28.2-1.7,43.1c0,2.8,0,5.5,0,8.8c0,5,0,10.5,0,16v7.7c-2.2-2.2-4.4-4.4-6.6-6.6
	c-1.7-1.1-2.8-2.8-3.9-3.9c-7.2-7.2-14.4-13.8-21-19.9c-12.2-11.6-21-18.8-21.5-18.8c-1.7-1.1-3.3-1.1-5,0c-1.1,1.1-1.7,3.3,0,5
	c0,0,7.2,8.8,18.8,21c6.1,6.6,12.7,13.8,19.9,21c1.1,1.1,2.8,2.8,3.9,3.9c2.2,2.2,4.4,4.4,6.6,7.2h-7.7c-5.5,0-11,0-16,0
	c-2.8,0-5.5,0-8.3,0c-14.9,0.6-29.8,0.6-43.1,1.7c-24.9,1.1-42,2.8-42.5,2.8c-1.7,0-3.3,1.7-3.3,3.9c0,1.7,1.7,3.3,3.3,3.9
	c0,0,17.1,1.7,42.5,2.8c12.7,0.6,28.2,1.1,43.1,1.7c2.8,0,5.5,0,8.8,0c5,0,10.5,0,16,0h7.7c-2.2,2.2-4.4,4.4-6.6,6.6
	c-1.7,1.7-2.8,2.8-4.4,4.4c-7.2,7.2-13.8,14.9-19.9,21c-11.6,12.2-18.8,21-18.8,21.5c-1.1,1.7-1.1,3.3,0,5c1.1,1.1,3.3,1.7,5,0
	c0,0,8.8-7.2,21-18.8c6.6-6.1,13.8-12.7,21-19.9c1.1-1.1,2.8-2.8,3.9-3.9c2.2-2.2,4.4-4.4,7.2-6.6v7.7c0,5.5,0,11,0,16
	c0,2.8,0,5.5,0,8.3c0.6,14.9,0.6,29.8,1.7,43.1c1.1,24.9,2.8,42,2.8,42.5c0,1.7,1.7,3.3,3.9,3.3c1.7,0,3.3-1.7,3.9-3.3
	c0,0,1.7-17.1,2.8-42.5c0.6-13.3,1.1-28.2,1.7-43.1c0-2.8,0-5.5,0-8.3c0-5,0-10.5,0-16v-7.7c2.2,2.2,4.4,4.4,6.6,6.6
	c1.1,1.1,2.8,2.8,3.9,3.9c7.2,7.2,14.9,13.8,21,19.9c12.2,11.6,21,18.8,21,18.8c1.7,1.1,3.3,1.1,5,0c1.1-1.1,1.7-3.3,0-5
	c0,0-7.2-8.8-18.8-21c-6.1-6.6-12.7-13.8-19.9-21c-1.1-1.1-2.8-2.8-3.9-3.9c-2.2-2.2-4.4-4.4-6.6-6.6h7.7c5.5,0,11,0,16,0
	c2.8,0,5.5,0,8.3,0c15.5-0.6,30.4-0.6,43.1-1.7c24.9-1.1,42-2.8,42.5-2.8c1.1,0,1.7-0.6,2.2-1.1c0.6-0.6,1.1-1.7,1.1-2.8
	c0-1.7-1.7-3.3-3.3-3.9C1270.3,236.2,1253.2,234.6,1228.3,233.4z"/>
<text transform="matrix(1 0 0 1 67 275.9814)"><tspan x="0" y="0" class="st0 st1">Северная</tspan><tspan x="0" y="265.1" class="st0 st1">Сыроварня</tspan></text>
</svg>
