<?xml version="1.0" encoding="utf-8"?>
<!-- Generator: Adobe Illustrator 21.0.2, SVG Export Plug-In . SVG Version: 6.00 Build 0)  -->
<svg version="1.1" id="Capa_1" xmlns="http://www.w3.org/2000/svg" xmlns:xlink="http://www.w3.org/1999/xlink" x="0px" y="0px"
	 viewBox="0 0 512 512" style="enable-background:new 0 0 512 512;" xml:space="preserve">
<style type="text/css">
	.st0{fill:#FFFFFF;}
</style>
<g>
	<path class="st0" d="M112.4,208c61.8,0,111.9,50.1,111.9,111.9s-50.1,111.9-111.9,111.9S0.5,381.7,0.5,319.9L0,304
		C0,180.4,100.2,80.2,223.8,80.2v63.9c-42.7,0-82.8,16.6-113,46.8c-5.8,5.8-11.1,12-15.9,18.5C100.6,208.5,106.4,208,112.4,208z
		 M400.1,208c61.8,0,111.9,50.1,111.9,111.9s-50.1,111.9-111.9,111.9s-111.9-50.1-111.9-111.9l-0.5-16
		c0-123.6,100.2-223.8,223.8-223.8v63.9c-42.7,0-82.8,16.6-113,46.8c-5.8,5.8-11.1,12-15.9,18.5C388.3,208.5,394.1,208,400.1,208z"
		/>
</g>
</svg>
