<?xml version="1.0" encoding="utf-8"?>
<!-- Generator: Adobe Illustrator 19.2.0, SVG Export Plug-In . SVG Version: 6.00 Build 0)  -->
<svg version="1.1" id="Layer_1" xmlns="http://www.w3.org/2000/svg" xmlns:xlink="http://www.w3.org/1999/xlink" x="0px" y="0px"
	 viewBox="0 0 74.4 69" style="enable-background:new 0 0 74.4 69;" xml:space="preserve">
<style type="text/css">
	.st0{fill:#525252;}
	.st1{fill:#444545;}
	.st2{fill:#63BD6E;}
	.st3{fill:#117F4A;}
	.st4{fill:#616161;}
	.st5{fill:#717171;}
	.st6{fill:#727172;}
	.st7{fill:#575656;}
	.st8{fill:#D6CB78;}
	.st9{fill:#ECE17E;}
</style>
<g>
	<g>
		<g>
			<path class="st0" d="M74.4,59.9c0,4.3-1,4.2-5.5,4.2H8.2c-4.5,0-8.2-3.5-8.2-7.8V19.8C0,15.5,3.7,12,8.2,12h60.3
				c4.5,0,5.9,1.5,5.9,5.8V59.9z"/>
			<path class="st1" d="M72.8,58.6c0,4.3-1.2,4.2-5.5,4.2H9.4c-4.3,0-7.8-3.5-7.8-7.8V21.8c0-4.3,3.5-7.8,7.8-7.8h58.4
				c4.3,0,5,2,5,6.3V58.6z"/>
			<g>
				<g>
					<g>
						
							<rect x="31.7" y="-0.1" transform="matrix(0.1322 -0.9912 0.9912 0.1322 11.6874 64.8028)" class="st2" width="22.4" height="51.7"/>
						<path class="st3" d="M66.3,39.1l-49.5-6.6l2.7-20.1L68.9,19L66.3,39.1z M68.4,19.4l-48.6-6.5L17.3,32l48.6,6.5L68.4,19.4z"/>
						
							<ellipse transform="matrix(0.1322 -0.9912 0.9912 0.1322 11.6862 64.8007)" class="st3" cx="42.9" cy="25.7" rx="8.8" ry="8.8"/>
					</g>
				</g>
				<g>
					<path class="st2" d="M41.7,33l0.2-1.4c-0.6-0.2-1.1-0.4-1.4-0.7c-0.3-0.3-0.6-0.7-0.8-1.2c-0.2-0.5-0.3-1.2-0.2-2l1.2-0.1
						c0,0.8,0.1,1.4,0.3,1.8c0.3,0.6,0.6,0.9,1.1,1l0.6-4.6c-0.5-0.2-0.9-0.5-1.4-0.9c-0.3-0.3-0.6-0.7-0.7-1.2
						c-0.1-0.5-0.2-1-0.1-1.6c0.1-1,0.5-1.8,1.2-2.4c0.5-0.4,1.1-0.6,1.9-0.5l0.1-0.7l0.7,0.1l-0.1,0.7c0.7,0.2,1.2,0.5,1.6,1
						c0.5,0.6,0.7,1.4,0.7,2.3l-1.3,0c0-0.6-0.1-1-0.3-1.4c-0.2-0.3-0.5-0.6-0.8-0.7l-0.6,4.1c0.6,0.3,1,0.4,1.1,0.6
						c0.3,0.2,0.6,0.5,0.8,0.8c0.2,0.3,0.3,0.7,0.4,1.1c0.1,0.4,0.1,0.8,0,1.3c-0.1,1-0.5,1.8-1.1,2.4c-0.6,0.6-1.3,0.9-2.2,0.8
						l-0.2,1.5L41.7,33z M43.3,20.4c-0.5,0-0.9,0.2-1.2,0.5c-0.3,0.3-0.5,0.7-0.6,1.2c-0.1,0.5,0,0.9,0.2,1.3
						c0.2,0.4,0.5,0.7,1.1,0.9L43.3,20.4z M42.7,30.5c0.5,0,0.9-0.2,1.2-0.6c0.4-0.4,0.6-0.9,0.7-1.5c0.1-0.5,0-1-0.2-1.3
						c-0.2-0.3-0.6-0.7-1.2-1L42.7,30.5z"/>
				</g>
			</g>
			<g>
				<g>
					<g>
						
							<rect x="11.3" y="9.7" transform="matrix(0.9105 -0.4134 0.4134 0.9105 -5.2992 17.2368)" class="st2" width="51.7" height="22.4"/>
						<path class="st3" d="M64.1,19.8L18.6,40.4l-8.4-18.5L55.7,1.3L64.1,19.8z M55.5,2L10.9,22.2l8,17.5l44.7-20.3L55.5,2z"/>
						
							<ellipse transform="matrix(0.9105 -0.4134 0.4134 0.9105 -5.2993 17.237)" class="st3" cx="37.2" cy="20.9" rx="8.8" ry="8.8"/>
					</g>
				</g>
				<g>
					<path class="st2" d="M40,27.7l-0.6-1.3c-0.6,0.2-1.1,0.2-1.5,0.2c-0.4-0.1-0.9-0.3-1.4-0.6c-0.5-0.4-0.9-0.9-1.2-1.5l1-0.7
						c0.4,0.7,0.8,1.1,1.2,1.4c0.5,0.3,1,0.4,1.5,0.3L37,21c-0.5,0.1-1.1,0.1-1.7,0c-0.5-0.1-0.9-0.3-1.2-0.6
						c-0.4-0.3-0.7-0.8-0.9-1.3c-0.4-0.9-0.5-1.8-0.2-2.7c0.2-0.6,0.6-1,1.3-1.5L34,14.4l0.6-0.3l0.3,0.6c0.7-0.2,1.3-0.2,1.8,0
						c0.7,0.3,1.3,0.8,1.8,1.6l-1,0.7c-0.3-0.5-0.6-0.8-0.9-1c-0.3-0.2-0.7-0.2-1.1-0.2l1.7,3.8c0.6-0.1,1-0.1,1.3-0.1
						c0.4,0,0.8,0.1,1.1,0.3c0.3,0.2,0.6,0.4,0.9,0.7c0.3,0.3,0.5,0.7,0.7,1.1c0.4,0.9,0.5,1.8,0.3,2.6c-0.2,0.8-0.7,1.4-1.4,1.8
						l0.6,1.3L40,27.7z M34.8,16.1c-0.4,0.3-0.6,0.6-0.7,1.1c-0.1,0.4,0,0.9,0.2,1.3c0.2,0.5,0.5,0.8,0.8,1c0.3,0.2,0.8,0.3,1.4,0.2
						L34.8,16.1z M39.6,24.9c0.4-0.3,0.6-0.6,0.8-1.1c0.1-0.5,0-1-0.2-1.6c-0.2-0.5-0.5-0.8-0.8-1c-0.3-0.2-0.8-0.3-1.5-0.2
						L39.6,24.9z"/>
				</g>
			</g>
			<g>
				<path class="st4" d="M71,63.5c0,4.3-1.7,5.5-6,5.5H4.4C0.1,69,0,68.6,0,64.3v-44c0,0,0-1.1,0.1-1.7c0.1-1.5,1.2-2.9,1.2-2.9
					s0.6,2.7,2.5,3.5c2.9,1.2,5.1,1.1,5.1,1.1H65c4.3,0,6,0.6,6,4.9V63.5z"/>
				<g>
					<g>
						<path class="st5" d="M5.1,23.1L5.1,23.1l-4,0c-0.6,0-1-0.4-1-1c0-0.6,0.4-1,1-1l0,0l4,0c0.6,0,1,0.4,1,1S5.7,23.1,5.1,23.1z"
							/>
					</g>
					<g>
						<path class="st5" d="M63.5,67.8h-2c-0.6,0-1-0.4-1-1c0-0.6,0.4-1,1-1h2c3.3,0,3.9-0.3,4.2-1.4c0.1-0.5,0.7-0.9,1.2-0.7
							c0.5,0.1,0.9,0.7,0.7,1.2C68.9,67.8,66.3,67.8,63.5,67.8z M53.5,67.8h-8.1c-0.6,0-1-0.4-1-1c0-0.6,0.4-1,1-1h8.1
							c0.6,0,1,0.4,1,1C54.5,67.3,54.1,67.8,53.5,67.8z M37.4,67.8h-8.1c-0.6,0-1-0.4-1-1c0-0.6,0.4-1,1-1h8.1c0.6,0,1,0.4,1,1
							C38.4,67.3,38,67.8,37.4,67.8z M21.3,67.8h-8.1c-0.6,0-1-0.4-1-1c0-0.6,0.4-1,1-1h8.1c0.6,0,1,0.4,1,1
							C22.3,67.3,21.8,67.8,21.3,67.8z M68.9,57.6c-0.6,0-1-0.4-1-1v-8.1c0-0.6,0.4-1,1-1c0.6,0,1,0.4,1,1v8.1
							C69.9,57.2,69.4,57.6,68.9,57.6z M68.9,41.5c-0.6,0-1-0.4-1-1v-8.1c0-0.6,0.4-1,1-1c0.6,0,1,0.4,1,1v8.1
							C69.9,41.1,69.4,41.5,68.9,41.5z M68.6,25.4c-0.4,0-0.8-0.3-1-0.7c-0.3-0.9-0.8-1.6-3.9-1.6l-2.2,0c-0.6,0-1-0.4-1-1
							c0-0.6,0.4-1,1-1l0,0l2.2,0c2.5,0,4.9,0.4,5.8,3c0.2,0.5-0.1,1.1-0.7,1.3C68.8,25.4,68.7,25.4,68.6,25.4z M53.5,23.1
							L53.5,23.1l-8.1,0c-0.6,0-1-0.4-1-1c0-0.6,0.4-1,1-1h0l8.1,0c0.6,0,1,0.4,1,1C54.5,22.6,54,23.1,53.5,23.1z M37.4,23.1
							L37.4,23.1l-8.1,0c-0.6,0-1-0.4-1-1c0-0.6,0.4-1,1-1l0,0l8.1,0c0.6,0,1,0.4,1,1C38.4,22.6,37.9,23.1,37.4,23.1z M21.2,23.1
							L21.2,23.1l-8.1,0c-0.6,0-1-0.4-1-1c0-0.6,0.4-1,1-1l0,0l8.1,0c0.6,0,1,0.4,1,1C22.2,22.6,21.8,23.1,21.2,23.1z"/>
					</g>
					<g>
						<path class="st5" d="M5.1,67.8h-4c-0.6,0-1-0.4-1-1c0-0.6,0.4-1,1-1h4c0.6,0,1,0.4,1,1C6.1,67.3,5.7,67.8,5.1,67.8z"/>
					</g>
				</g>
				<path class="st4" d="M67.2,61.6c0,3.6-1.3,3.9-5,3.9h-62V23.3l62.2,0c3.7,0,4.8,1,4.8,4.7V61.6z"/>
			</g>
			<g>
				<path class="st6" d="M74.5,46.2H55.1c-1.3,0-3.6-2.3-3.6-6.8c0-4.5,2.3-6.7,3.6-6.7h19.5C75.2,32.7,75.1,46.2,74.5,46.2z"/>
				<path class="st7" d="M74.5,47.3H55.1c-1.3,0-3.6-2.3-3.6-6.8s2.3-6.7,3.6-6.7h19.5C75.2,33.8,75.1,47.3,74.5,47.3z"/>
				<ellipse class="st8" cx="57.6" cy="40.6" rx="2.5" ry="3"/>
				<ellipse class="st9" cx="57.6" cy="40.6" rx="2" ry="2.4"/>
			</g>
		</g>
	</g>
</g>
</svg>
