<?xml version="1.0" encoding="utf-8"?>
<!-- Generator: Adobe Illustrator 19.2.0, SVG Export Plug-In . SVG Version: 6.00 Build 0)  -->
<svg version="1.1" id="Isolation_Mode" xmlns="http://www.w3.org/2000/svg" xmlns:xlink="http://www.w3.org/1999/xlink" x="0px"
	 y="0px" viewBox="0 0 50.4 42.6" style="enable-background:new 0 0 50.4 42.6;" xml:space="preserve">
<style type="text/css">
	.st0{fill:#37919B;}
	.st1{fill:#2C8484;}
	.st2{fill:#308A8E;}
	.st3{fill:#30898E;}
	.st4{fill:#6A7872;}
	.st5{fill:#9DC3C5;}
	.st6{fill:#8FB5B6;}
	.st7{opacity:0.5;fill:#AED1D5;}
	.st8{fill:#AED1D5;}
</style>
<g>
	<g>
		<g>
			<path class="st0" d="M7,35.8v4c0,0.3,0.4,0.6,0.7,0.6h24.2c0.5,0,0.8-0.3,0.8-0.6v-4H7z"/>
			<path class="st0" d="M30.7,15.6h-0.2H9.1H8.9c-1.1,0-2,0.9-2,1.9v15.2c0,1.1,0.9,1.9,2,1.9h0.3h21.1h0.3c1.1,0,2-0.9,2-1.9V17.5
				C32.7,16.5,31.8,15.6,30.7,15.6z"/>
			<path class="st1" d="M32.8,32.4l-23.9,0c-1.1,0-2,0.2-2,0.4v4l23.5-0.1l2.2-0.1L32.8,32.4z"/>
			<path class="st2" d="M0.9,31.3l6.4,1.5l2-3.1c0,0,2.1-2.1,1-4.4C9.3,23,7,22.9,7,22.9l-5.8,4L0.9,31.3z"/>
			<polygon class="st3" points="32.8,32.4 32.8,29.7 9.3,29.7 7.3,32.8 			"/>
			<path class="st0" d="M7.4,29.6c0-2-1.6-3.6-3.7-3.6c-2,0-3.7,1.6-3.7,3.6c0,1.6,1,2.9,2.4,3.4v8.9c0,1.4,5,1.4,5,0v-12
				c0,0,0-0.1,0-0.1C7.4,29.7,7.4,29.6,7.4,29.6z"/>
			<path class="st2" d="M38.8,31.3l-6.4,1.5l-2-3.1c0,0-2.1-2.1-1-4.4c1.1-2.3,3.3-2.4,3.3-2.4l5.8,4L38.8,31.3z"/>
			<path class="st0" d="M32.3,29.6c0-2,1.6-3.6,3.7-3.6c2,0,3.7,1.6,3.7,3.6c0,1.6-1,2.9-2.4,3.4v8.9c0,1.4-5,1.4-5,0v-12
				c0,0,0-0.1,0-0.1C32.3,29.7,32.3,29.6,32.3,29.6z"/>
		</g>
		<g>
			<path class="st4" d="M50.7,41.9l-5.2-2.8c-0.1-0.1-0.2-0.1-0.3-0.1c-0.1,0-0.2,0-0.3,0.1L39.5,42c-0.1,0.1-0.1,0.3,0,0.4
				c0.1,0.1,0.2,0.2,0.3,0.2h10.6c0,0,0,0,0,0c0.2,0,0.4-0.2,0.4-0.4C50.8,42.1,50.7,42,50.7,41.9z"/>
			<g>
				<g>
					<path class="st4" d="M45.3,41.2c-0.4,0-0.7-0.3-0.7-0.7V10.2c0-0.1,0.3-3.6-2-6c-1.4-1.5-3.6-2.3-6.4-2.3
						c-0.4,0-0.7-0.3-0.7-0.7s0.3-0.7,0.7-0.7c3.2,0,5.7,0.9,7.4,2.8c2.6,2.8,2.3,6.8,2.3,7l0,30.3C46,40.9,45.7,41.2,45.3,41.2z"/>
				</g>
				<g>
					<path class="st4" d="M45.3,29c-0.7,0-1.2,0.5-1.2,1.2v9.7c0,0.2,2.5,0.2,2.4-0.1l0-9.6C46.5,29.6,45.9,29,45.3,29z"/>
				</g>
			</g>
		</g>
		<g>
			<ellipse class="st5" cx="45.2" cy="41" rx="0.7" ry="0.7"/>
			<ellipse class="st6" cx="45.3" cy="41" rx="0.4" ry="0.4"/>
		</g>
		<ellipse class="st7" cx="30.9" cy="6.2" rx="1.6" ry="1.6"/>
		<g>
			<path class="st8" d="M35.2,9.6l1-8.3c0-0.1,0-0.2-0.1-0.3c-0.1-0.1-0.2-0.1-0.3-0.1l-8.6,1c-0.1,0-0.3,0.1-0.3,0.3
				c0,0.1,0,0.3,0.1,0.4l7.6,7.4c0,0,0,0,0,0c0.2,0.1,0.4,0.1,0.5,0C35.2,9.8,35.2,9.7,35.2,9.6z"/>
			<ellipse class="st8" cx="36" cy="1.2" rx="1.2" ry="1.2"/>
		</g>
	</g>
</g>
</svg>
