<?xml version="1.0"?>
<svg xmlns="http://www.w3.org/2000/svg" height="512px" viewBox="0 0 496 496" width="512px"><path d="m488 128h-8v-104c0-13.230469-10.769531-24-24-24-6.167969 0-11.742188 2.40625-16 6.238281-4.257812-3.832031-9.832031-6.238281-16-6.238281s-11.742188 2.40625-16 6.238281c-4.257812-3.832031-9.832031-6.238281-16-6.238281s-11.742188 2.40625-16 6.238281c-4.257812-3.832031-9.832031-6.238281-16-6.238281s-11.742188 2.40625-16 6.238281c-4.257812-3.832031-9.832031-6.238281-16-6.238281s-11.742188 2.40625-16 6.238281c-4.257812-3.832031-9.832031-6.238281-16-6.238281-13.230469 0-24 10.769531-24 24v104h-8c-4.414062 0-8 3.585938-8 8v96c0 2.121094.839844 4.160156 2.34375 5.65625l61.65625 61.65625v140.6875c0 30.878906 25.121094 56 56 56s56-25.121094 56-56v-140.6875l61.65625-61.65625c1.503906-1.496094 2.34375-3.535156 2.34375-5.65625v-96c0-4.414062-3.585938-8-8-8zm-200-104c0-4.40625 3.59375-8 8-8s8 3.59375 8 8h16c0-4.40625 3.59375-8 8-8s8 3.59375 8 8h16c0-4.40625 3.59375-8 8-8s8 3.59375 8 8h16c0-4.40625 3.59375-8 8-8s8 3.59375 8 8h16c0-4.40625 3.59375-8 8-8s8 3.59375 8 8h16c0-4.40625 3.59375-8 8-8s8 3.59375 8 8v104h-16v-32h-16v32h-48v-64h-16v64h-16v-48h-16v48h-16v-88h-16v88h-16zm192 204.6875-61.65625 61.65625c-1.503906 1.496094-2.34375 3.535156-2.34375 5.65625v144c0 22.054688-17.945312 40-40 40s-40-17.945312-40-40v-144c0-2.121094-.839844-4.160156-2.34375-5.65625l-61.65625-61.65625v-84.6875h208zm0 0" fill="#01448a"/><path d="m40 320c-4.414062 0-8 3.585938-8 8v96c0 4.414062 3.585938 8 8 8h160c4.414062 0 8-3.585938 8-8v-96c0-4.414062-3.585938-8-8-8zm152 96h-144v-80h144zm0 0" fill="#01448a"/><path d="m32 448h176v16h-176zm0 0" fill="#01448a"/><path d="m456 160h-160c-4.414062 0-8 3.585938-8 8v48c0 4.414062 3.585938 8 8 8h160c4.414062 0 8-3.585938 8-8v-48c0-4.414062-3.585938-8-8-8zm-8 48h-144v-32h144zm0 0" fill="#01448a"/><path d="m376 416c-13.230469 0-24 10.769531-24 24s10.769531 24 24 24 24-10.769531 24-24-10.769531-24-24-24zm0 32c-4.40625 0-8-3.59375-8-8s3.59375-8 8-8 8 3.59375 8 8-3.59375 8-8 8zm0 0" fill="#01448a"/><path d="m216 112h-192c-13.230469 0-24 10.769531-24 24v32c0 4.414062 3.585938 8 8 8h8v16h-8c-4.414062 0-8 3.585938-8 8v288c0 4.414062 3.585938 8 8 8h224c4.414062 0 8-3.585938 8-8v-288c0-4.414062-3.585938-8-8-8h-8v-16h8c4.414062 0 8-3.585938 8-8v-32c0-13.230469-10.769531-24-24-24zm8 368h-208v-272h32v8c0 13.230469 10.769531 24 24 24 4.40625 0 8 3.59375 8 8v16c0 13.230469 10.769531 24 24 24s24-10.769531 24-24c0-4.40625 3.59375-8 8-8s8 3.59375 8 8v16c0 13.230469 10.769531 24 24 24s24-10.769531 24-24v-72h32zm-88-240c-13.230469 0-24 10.769531-24 24 0 4.40625-3.59375 8-8 8s-8-3.59375-8-8v-16c0-13.230469-10.769531-24-24-24-4.40625 0-8-3.59375-8-8v-8h112v72c0 4.40625-3.59375 8-8 8s-8-3.59375-8-8v-16c0-13.230469-10.769531-24-24-24zm72-48h-176v-16h176zm16-32h-208v-24c0-4.40625 3.59375-8 8-8h192c4.40625 0 8 3.59375 8 8zm0 0" fill="#01448a"/></svg>
