<svg xmlns="http://www.w3.org/2000/svg" viewBox="-622 3994 96 96">
  <defs>
    <style>
      .cls-1 {
        fill: #a9c3de;
      }

      .cls-2 {
        fill: #efb852;
      }

      .cls-2, .cls-3, .cls-5, .cls-6 {
        stroke: #fff;
        stroke-miterlimit: 10;
      }

      .cls-3, .cls-5 {
        fill: none;
      }

      .cls-4 {
        fill: #fff;
      }

      .cls-5, .cls-6 {
        stroke-width: 2px;
      }

      .cls-6 {
        fill: #000307;
      }
    </style>
  </defs>
  <g id="money" transform="translate(-622 3994)">
    <g id="Group_125" data-name="Group 125">
      <circle id="Ellipse_87" data-name="Ellipse 87" class="cls-1" cx="48" cy="48" r="48"/>
      <rect id="Rectangle_312" data-name="Rectangle 312" class="cls-2" width="40.8" height="23.5" transform="translate(25 36.5)"/>
      <rect id="Rectangle_313" data-name="Rectangle 313" class="cls-3" width="32.5" height="3.1" transform="translate(29.3 33.4)"/>
      <rect id="Rectangle_314" data-name="Rectangle 314" class="cls-3" width="27.3" height="2.9" transform="translate(32.4 30.6)"/>
      <circle id="Ellipse_88" data-name="Ellipse 88" cx="1.3" cy="1.3" r="1.3" transform="translate(31.1 47.5)"/>
      <circle id="Ellipse_89" data-name="Ellipse 89" class="cls-4" cx="9" cy="9" r="9" transform="translate(36.5 39.5)"/>
      <path id="Path_120" data-name="Path 120" class="cls-5" d="M56.8,54.2a8.6,8.6,0,1,1,17.2,0"/>
      <rect id="Rectangle_315" data-name="Rectangle 315" class="cls-6" width="22.2" height="16.9" transform="translate(54.3 54.4)"/>
      <path id="Path_121" data-name="Path 121" class="cls-4" d="M67.9,61.3a2.5,2.5,0,1,0-3.6,2.2v4.4h2.2V63.5A2.35,2.35,0,0,0,67.9,61.3Z"/>
      <g id="Group_15_2_" transform="translate(30.25 36.41)">
        <path id="Path_23_2_" d="M14.4,15.9a5.187,5.187,0,0,1-2.2-.7l.6-1.2a5.025,5.025,0,0,0,2.4.6c.9,0,1.4-.3,1.4-.8s-.5-.8-1.6-1.1c-1.2-.3-2.6-.8-2.6-2.4,0-1.3.9-1.8,2-2V6.7h1.4V8.3A5.678,5.678,0,0,1,18,9l-.6,1.2a4.282,4.282,0,0,0-2.2-.6c-.6,0-1.2.2-1.2.6,0,.6.9.7,1.4.9,1.9.5,2.8,1.2,2.8,2.6A2.063,2.063,0,0,1,16,15.8v1.6H14.6V15.9Z"/>
      </g>
    </g>
  </g>
</svg>
