<svg xmlns="http://www.w3.org/2000/svg" viewBox="-516 3994 96 96">
  <defs>
    <style>
      .cls-1 {
        fill: #a9c3de;
      }

      .cls-2 {
        fill: none;
        stroke-width: 1.1px;
      }

      .cls-2, .cls-3, .cls-4 {
        stroke: #fff;
      }

      .cls-2, .cls-3, .cls-4, .cls-5 {
        stroke-miterlimit: 10;
      }

      .cls-4 {
        fill: #efb852;
      }

      .cls-5 {
        fill: #000307;
        stroke: #000;
        stroke-linecap: square;
        stroke-linejoin: round;
      }
    </style>
  </defs>
  <g id="client" transform="translate(-516 3994)">
    <g id="Group_126" data-name="Group 126">
      <circle id="Ellipse_90" data-name="Ellipse 90" class="cls-1" cx="48" cy="48" r="48"/>
      <path id="Path_122" data-name="Path 122" class="cls-2" d="M45.2,68.3l-9.3,2.1-.8-3.7,9.2-2.1Z"/>
      <path id="Path_123" data-name="Path 123" class="cls-2" d="M34.5,60.8,26.2,56s-2.1-1.2-2.4-2.8L20.5,38.8a3.265,3.265,0,0,1,3.9,2.6l1.8,7.7a.215.215,0,0,0,.2.2h0a1.95,1.95,0,0,0,.8,2.3l6.6,4.1h0v-.1l-6.6-4.1a1.9,1.9,0,0,1-.7-2.3h0c0-.1,0-.1.1-.2a2.1,2.1,0,0,1,1.1-.8,2.3,2.3,0,0,1,1.4.2s12.3,5.8,12.6,7L43,61l-8,1.8L34.6,61C34.6,60.9,34.6,60.8,34.5,60.8Z"/>
      <path id="Path_124" data-name="Path 124" class="cls-2" d="M60.9,60.9l-.4,1.8-8-1.8,1.3-5.6c.3-1.2,12.6-7,12.6-7a1.7,1.7,0,0,1,1.4-.2,1.548,1.548,0,0,1,1.1.8c0,.1.1.1.1.2h0a1.791,1.791,0,0,1-.7,2.3l-6.6,4.1v.1h0l6.6-4.1a1.95,1.95,0,0,0,.8-2.3h0a.215.215,0,0,0,.2-.2l1.8-7.7A3.351,3.351,0,0,1,75,38.7L71.7,53.1a5.758,5.758,0,0,1-2.4,2.8L61,60.8Z"/>
      <path id="Path_125" data-name="Path 125" class="cls-3" d="M45.1,64.5,34.2,67a1.844,1.844,0,1,1-.8-3.6l1.4-.3,8.1-1.8,1.3-.3a1.842,1.842,0,0,1,2.2,1.4C46.8,63.2,46.1,64.2,45.1,64.5Z"/>
      <path id="Path_126" data-name="Path 126" class="cls-2" d="M50.8,68.3l.9-3.7,9.2,2.1-.8,3.7Z"/>
      <path id="Path_127" data-name="Path 127" class="cls-3" d="M49.5,62.2a1.842,1.842,0,0,1,2.2-1.4l1.3.3,8.1,1.8,1.4.3a1.844,1.844,0,1,1-.8,3.6L50.8,64.3A1.64,1.64,0,0,1,49.5,62.2Z"/>
      <path id="Path_128" data-name="Path 128" class="cls-4" d="M51,39.3v.1l-2.9,2.7-3-2.8c-7.4-.8-7.5,7.9-7.5,7.9A16.224,16.224,0,0,0,48,50.8c6.8,0,10.4-3.6,10.4-3.6S58.3,38.5,51,39.3Z"/>
      <path id="Path_129" data-name="Path 129" class="cls-5" d="M53,31.7c0-3.5-2.2-5.8-4.9-5.8s-4.9,2.2-4.9,5.7a1.272,1.272,0,0,0-1,1.1,1.155,1.155,0,0,0,1.2,1.2h.1a6.385,6.385,0,0,0,1.7,3h0v2.6l3,2.8,2.9-2.7V37h0a7.271,7.271,0,0,0,1.8-3.1A1.278,1.278,0,0,0,54,32.7,1.949,1.949,0,0,0,53,31.7Z"/>
    </g>
  </g>
</svg>
