<svg xmlns="http://www.w3.org/2000/svg" viewBox="601.01 5258.5 25.493 33">
  <defs>
    <style>
      .cls-1 {
        fill: none;
        stroke: #b2b2b2;
      }
    </style>
  </defs>
  <path id="Path_105" data-name="Path 105" class="cls-1" d="M12.51,3.782V30.231A2.782,2.782,0,0,0,15.282,33H34.221A2.782,2.782,0,0,0,37,30.218V3.769A2.782,2.782,0,0,0,34.221,1H15.282A2.782,2.782,0,0,0,12.51,3.782Zm12.242,27.2a1.388,1.388,0,1,1,1.388-1.388A1.388,1.388,0,0,1,24.752,30.982Zm-8.761-26.5H33.512v21.61H15.991ZM20.8,7.109V8.337a.705.705,0,0,1-.705.705H18.874a.705.705,0,0,1-.705-.705V7.109a.705.705,0,0,1,.705-.7H20.1A.705.705,0,0,1,20.8,7.109Zm5.273,0V8.337a.705.705,0,0,1-.705.705H24.138a.705.705,0,0,1-.692-.705V7.109a.705.705,0,0,1,.705-.705h1.228a.705.705,0,0,1,.679.705Zm5.273,0V8.337a.705.705,0,0,1-.715.705H29.411a.705.705,0,0,1-.705-.705V7.109a.705.705,0,0,1,.705-.705h1.218a.705.705,0,0,1,.715.705ZM20.8,11.776V13a.705.705,0,0,1-.705.705H18.874A.705.705,0,0,1,18.169,13V11.776a.705.705,0,0,1,.705-.7H20.1A.705.705,0,0,1,20.8,11.776Zm5.26,0V13a.705.705,0,0,1-.705.705H24.138a.705.705,0,0,1-.692-.7V11.776a.705.705,0,0,1,.705-.705h1.228a.705.705,0,0,1,.679.705Zm5.273,0V13a.705.705,0,0,1-.7.715H29.411a.705.705,0,0,1-.705-.705V11.776a.705.705,0,0,1,.705-.705h1.218a.705.705,0,0,1,.715.705ZM20.8,16.458v1.228a.705.705,0,0,1-.705.705H18.874a.705.705,0,0,1-.705-.705V16.458a.705.705,0,0,1,.705-.7H20.1A.705.705,0,0,1,20.8,16.458Zm5.273,0v1.228a.705.705,0,0,1-.705.705H24.138a.705.705,0,0,1-.692-.705V16.458a.705.705,0,0,1,.705-.705h1.228a.705.705,0,0,1,.679.705Zm5.273,0v1.228a.705.705,0,0,1-.715.705H29.411a.705.705,0,0,1-.705-.705V16.458a.705.705,0,0,1,.705-.705h1.218a.705.705,0,0,1,.715.705ZM20.8,21.134v1.228a.705.705,0,0,1-.705.705H18.874a.705.705,0,0,1-.705-.705V21.134a.705.705,0,0,1,.705-.705H20.1A.705.705,0,0,1,20.8,21.134Zm5.273,0v1.228a.705.705,0,0,1-.705.705H24.138a.705.705,0,0,1-.692-.705V21.134a.705.705,0,0,1,.705-.705h1.228a.705.705,0,0,1,.679.705Z" transform="translate(589 5258)"/>
</svg>
