<svg xmlns="http://www.w3.org/2000/svg" viewBox="744 5258 31.904 31.9">
  <defs>
	<style>
      .cls-2 {
        fill: #b2b2b2;
      }
    </style>
  </defs>
  <g id="_05-02" data-name="05-02" transform="translate(744 5258)">
    <path id="Path_108" data-name="Path 108" class="cls-2" d="M28.3,0H3.7A3.467,3.467,0,0,0,1.1,1.1,3.631,3.631,0,0,0,0,3.7V28.2a3.757,3.757,0,0,0,3.7,3.7H28.2a3.691,3.691,0,0,0,3.7-3.7V3.7h0A3.607,3.607,0,0,0,28.3,0Zm0,1.9a1.793,1.793,0,0,1,1.8,1.8h0V13L25.2,8.1l1.6-1.6L25.4,5.1,23.8,6.7,19,1.9ZM1.9,3.7a1.9,1.9,0,0,1,.5-1.3,1.9,1.9,0,0,1,1.3-.5h9.2L8.1,6.8,6.5,5.2,5.2,6.5,6.8,8.1,1.9,13ZM3.7,30.1h0a1.793,1.793,0,0,1-1.8-1.8V19.1L6.8,24,5.2,25.6,6.6,27l1.6-1.6,4.9,4.9H3.7ZM17,27.2H15v2.3L2.6,17H4.9V15H2.6L15,2.6V4.9h1.9V2.6L29.4,15H27.1v1.9h2.3L17,29.4Zm13.1,1.1a1.793,1.793,0,0,1-1.8,1.8H19l4.9-4.9,1.6,1.6,1.4-1.4-1.6-1.6,4.9-4.9Z"/>
  </g>
</svg>
