<svg xmlns="http://www.w3.org/2000/svg" viewBox="602 5362.903 27.2 34.072">
  <defs>
    <style>
      .cls-1 {
        fill: none;
        stroke: #b2b2b2;
        stroke-miterlimit: 10;
        stroke-width: 2px;
      }
      .cls-2 {
        fill: #b2b2b2;
      }
    </style>
  </defs>
  <g id="_05-03" data-name="05-03" transform="translate(602 5362.975)">
    <g id="Group_109" data-name="Group 109">
      <path id="Path_109" data-name="Path 109" class="cls-1" d="M14.6,1.4a1.658,1.658,0,0,0-2.1,0C9.6,4.3,1,13.1,1,20.5,1,29.5,7.5,33,13.6,33s12.6-3.5,12.6-12.5C26.2,13.1,17.6,4.3,14.6,1.4Z"/>
      <path id="Path_110" data-name="Path 110" class="cls-2" d="M13.8,29.2c-4.4,0-8.9-3.2-8.9-9.4a1.6,1.6,0,1,1,3.2,0c0,4.2,3,6.2,5.7,6.2a1.6,1.6,0,1,1,0,3.2Z"/>
    </g>
  </g>
</svg>
