<svg xmlns="http://www.w3.org/2000/svg" viewBox="4.999 3337 1366 59">
  <defs>
    <style>
      .cls-1 {
        fill: #fff;
      }
    </style>
  </defs>
  <path id="Subtraction_2" data-name="Subtraction 2" class="cls-1" d="M678,732c-29.249-27.843-133.586-33.549-281.247-33.549-24.949,0-50.689.146-75.581.288l-.577,0h-.128c-24.706.139-50.252.283-74.81.283-100.643,0-200.666-2.277-250.657-18.8V673H1361v7.617c-47.758,16.511-139.272,18.787-231.052,18.788-30.65,0-62.855-.3-94-.6l-.333,0-.189,0c-31.335-.3-63.736-.6-94.74-.6C822.6,698.2,709.047,702.293,678,732Z" transform="translate(10 2664)"/>
</svg>
