<?xml version="1.0" encoding="utf-8"?>
<!-- Generator: Adobe Illustrator 22.0.1, SVG Export Plug-In . SVG Version: 6.00 Build 0)  -->
<svg version="1.1" id="Слой_1" xmlns="http://www.w3.org/2000/svg" xmlns:xlink="http://www.w3.org/1999/xlink" x="0px" y="0px"
	 viewBox="0 0 312.8 289" style="enable-background:new 0 0 312.8 289;" xml:space="preserve">
<style type="text/css">
	.st0{fill:#FFFFFF;stroke:#6DABC6;stroke-miterlimit:10;stroke-dasharray:2,6;}
	.st1{opacity:0.25;}
	.st2{enable-background:new    ;}
	.st3{fill:#5292B6;}
	.st4{fill:#2F97C8;}
	.st5{fill:#102064;}
	.st6{fill:#FFFFFF;}
	.st7{fill:none;stroke:#5292B6;stroke-width:2;}
</style>
<circle id="Ellipse_70" class="st0" cx="144.5" cy="144.5" r="144"/>
<g id="Group_51" class="st1">
	<g class="st2">
		<path class="st3" d="M32,111.2c0-24.9,37-24.9,37,0C69,136.2,32,136.2,32,111.2z M59.6,111.2c0-13-18.1-13-18.1,0
			C41.5,124.3,59.6,124.3,59.6,111.2z"/>
		<path class="st3" d="M72.4,101.4c0-2.8,0-5.5,0-8.2h26.8c0,2.7,0,5.5,0,8.2h-8.8v27.8c-3,0-6.1,0-9.1,0v-27.8H72.4z"/>
	</g>
</g>
<circle id="Ellipse_71" class="st4" cx="58.2" cy="224.7" r="48.5"/>
<rect id="Rectangle_237" x="188.5" y="161.1" class="st5" width="124.3" height="30.5"/>
<g id="Group_52">
	<g class="st2">
		<path class="st6" d="M145.8,120.7c37.7-2.3,74.2,5.3,74.5,53.4c0.2,27.7-19.4,56.4-56.9,56.4c-30.8,0-53.2-19.9-54.6-52.7h35.6
			c0.2,10.6,7.2,16.2,18,16.2c11.3,0,18.3-6.7,18.5-19.9c-0.5-9.7-5.5-14.8-14.6-17.3c-16.4-4.9-42.8-1.4-54.8-1.2V65.5h100.8v35.1
			h-66.6V120.7z"/>
	</g>
	<g class="st2">
		<path class="st7" d="M145.8,120.7c37.7-2.3,74.2,5.3,74.5,53.4c0.2,27.7-19.4,56.4-56.9,56.4c-30.8,0-53.2-19.9-54.6-52.7h35.6
			c0.2,10.6,7.2,16.2,18,16.2c11.3,0,18.3-6.7,18.5-19.9c-0.5-9.7-5.5-14.8-14.6-17.3c-16.4-4.9-42.8-1.4-54.8-1.2V65.5h100.8v35.1
			h-66.6V120.7z"/>
	</g>
</g>
<g id="Group_53">
	<g class="st2">
		<path class="st6" d="M242.9,171.3h8v8.3h0.9v4.7H249v-2.8h-5.9v2.8h-2.8v-4.7h0.8c1.2-1.8,1.8-4.1,1.8-6.8V171.3z M247.9,173.2
			h-2.1v0.5c0,0.9-0.1,1.9-0.4,3s-0.6,2.1-1,2.8h3.5V173.2z"/>
		<path class="st6" d="M264.2,181.5h-3.1v-4.2H257v4.2h-3.1v-10.2h3.1v3.9h4.1v-3.9h3.1V181.5z"/>
		<path class="st6" d="M276.2,177.2h-6.6v0.9c0,0.6,0.2,1,0.6,1.2c0.4,0.3,1.2,0.4,2.3,0.4c1,0,2.1-0.1,3.4-0.4v2
			c-1.3,0.3-2.6,0.4-4,0.4c-3.6,0-5.4-1.1-5.4-3.3v-3.7c0-1.3,0.4-2.2,1.3-2.8c0.8-0.6,2.1-0.8,3.8-0.8c1.6,0,2.7,0.3,3.5,0.8
			c0.8,0.5,1.2,1.5,1.2,2.8V177.2z M273.3,175.5V174c0-0.3-0.1-0.6-0.4-0.7c-0.3-0.2-0.7-0.3-1.4-0.3c-0.7,0-1.2,0.1-1.5,0.3
			c-0.3,0.2-0.4,0.4-0.4,0.7v1.5H273.3z"/>
		<path class="st6" d="M282.1,181.5h-3.5v-10.2h2.8v7.2l4.5-7.2h3.5v10.2h-2.8v-7.3L282.1,181.5z M286.9,167.2
			c-0.1,0.8-0.3,1.4-0.9,1.9c-0.5,0.5-1.2,0.7-2,0.7c-0.9,0-1.6-0.2-2.1-0.7s-0.8-1.1-0.8-1.9h1.7c0.1,0.4,0.2,0.7,0.4,0.9
			c0.2,0.2,0.4,0.3,0.8,0.3c0.7,0,1.1-0.4,1.2-1.2H286.9z"/>
	</g>
</g>
<path id="Path_60" class="st6" d="M79.8,211.1h-8.1L57,204.3c0-0.1-0.4-0.1-0.5-0.1h-6.8c-0.5,0-0.9,0.3-1.1,0.7l-11.3,6.4
	c-0.4,0.2-0.6,0.6-0.6,1l0,0v11.3c0,0.7,0.5,1.2,1.2,1.2H45c0.7,0,1.2-0.5,1.2-1.2v-10h2.2v33.7c0,0.7,0.5,1.2,1.2,1.2h6.8
	c0.7,0,1.2-0.5,1.2-1.2v-33.7h12.5v13.5h-3.3c-2,0-3.7,1.7-3.7,3.7v8.9c0,2,1.7,3.7,3.7,3.7h8.9c2,0,3.7-1.7,3.7-3.7v-8.9
	c0-2-1.7-3.7-3.7-3.7h-3.1v-13.4h7.1c0.7,0,1.2-0.5,1.2-1.2C80.9,211.9,80.4,211.1,79.8,211.1z M43.8,222.3h-4.7v-8.7h4.7
	L43.8,222.3z M48.5,211.1h-5.9l5.9-3.3L48.5,211.1z M51,213.6h3.1l-3.1,4.2L51,213.6z M51,224.7l3.9,4.2l-3.9,5.4L51,224.7z
	 M55.3,246H51v-4.9l4.3,4.7V246z M55.3,242.1l-3.9-4.2l3.9-5.4V242.1z M55.3,225.7l-3.9-4.2l3.9-5.4V225.7z M55.3,211.1H51v-4.5h4.3
	V211.1z M57.8,211.1v-3.8l8.1,3.8H57.8z M75.8,229.5c0.7,0,1.2,0.5,1.2,1.2v8.9c0,0.7-0.5,1.2-1.2,1.2h-8.9c-0.7,0-1.2-0.5-1.2-1.2
	v-8.9c0-0.7,0.5-1.2,1.2-1.2H75.8z"/>
</svg>
