<?xml version="1.0" encoding="utf-8"?>
<!-- Generator: Adobe Illustrator 22.0.1, SVG Export Plug-In . SVG Version: 6.00 Build 0)  -->
<svg version="1.1" id="Слой_1" xmlns="http://www.w3.org/2000/svg" xmlns:xlink="http://www.w3.org/1999/xlink" x="0px" y="0px"
	 viewBox="0 0 329.9 308.4" style="enable-background:new 0 0 329.9 308.4;" xml:space="preserve">
<style type="text/css">
	.st0{fill:#FFFFFF;stroke:#6DABC6;stroke-miterlimit:10;stroke-dasharray:2,6;}
	.st1{opacity:7.000000e-02;}
	.st2{fill:#5292B6;}
	.st3{enable-background:new    ;}
	.st4{fill:#2F97C8;}
	.st5{fill:#FFFFFF;stroke:#5292B6;stroke-width:2;stroke-miterlimit:10;stroke-dasharray:4,2;}
	.st6{fill:#FFFFFF;}
	.st7{fill:none;stroke:#5292B6;stroke-width:2;stroke-miterlimit:10;stroke-dasharray:4,2;}
	.st8{fill:#B5D7E5;}
	.st9{fill:#FFFFFF;stroke:#935A79;stroke-width:2;stroke-linecap:round;stroke-miterlimit:10;}
	.st10{fill:#935A79;}
	.st11{fill:none;stroke:#935A79;stroke-width:2;stroke-linecap:round;stroke-miterlimit:10;}
	.st12{fill:none;stroke:#FFC543;stroke-width:2;stroke-miterlimit:10;}
	.st13{fill:#FFFFFF;stroke:#FFC543;stroke-width:2;stroke-miterlimit:10;}
</style>
<circle class="st0" cx="164" cy="146.5" r="144"/>
<g class="st1">
	<g>
		<path class="st2" d="M196.3,101.6c0,3.3,0,6.4,0,9.5c-2,0-3.8,0-5.8,0c0-3.2,0-6.4,0-10c-3.7,3.5-7.2,6.8-10.7,10.1
			c-1.3-1.4-2.5-2.8-3.9-4.2c3.5-3.3,6.9-6.6,10.3-9.8c1.4-1.3,3.4-2.4,4.1-4.1c0.7-1.6,0.2-3.8,0.2-5.8c0-4.2,0-8.4,0-12.9
			c-0.6,0.3-1.1,0.6-1.5,0.8c-4.6,2.7-9.1,5.4-13.7,8c-1,0.6-1.5,1.4-1.8,2.5c-1.1,5.2-2.3,10.4-3.5,15.7c-0.1,0.5-0.3,1.1-0.5,1.8
			c-1.8-0.4-3.6-0.8-5.5-1.3c1-4.6,2-9,3.1-13.8c-2.9,1.7-5.5,3.2-8.2,4.8c-1-1.7-1.9-3.4-2.9-5.1c2.7-1.6,5.4-3.2,8.5-5
			c-4.8-1.5-9.2-2.9-13.8-4.3c0.6-1.9,1.1-3.6,1.7-5.5c4.4,1.4,8.6,2.7,12.8,4c2,0.6,4.1,1.9,6.1,1.7c1.9-0.2,3.6-1.9,5.4-2.9
			c3.3-1.9,6.7-3.9,10.2-6c-0.5-0.4-0.8-0.6-1.2-0.8c-4.6-2.7-9.1-5.3-13.7-8.1c-1-0.6-1.9-0.4-2.9-0.1c-5.1,1.6-10.2,3.2-15.4,4.8
			c-0.4,0.1-0.8,0.2-1.4,0.4c-0.6-1.8-1.1-3.5-1.7-5.5c4.4-1.4,8.7-2.7,13.3-4.2c-2.9-1.7-5.5-3.3-8.2-4.9c1-1.7,1.9-3.3,2.9-5.1
			c2.8,1.6,5.5,3.2,8.5,5c-1.1-5-2.1-9.5-3.2-14.3c1.7-0.4,3.3-0.8,5-1.1c0.2,0,0.7,0.7,0.8,1.2c1.3,5.6,2.5,11.2,3.9,16.8
			c0.2,0.8,0.8,1.7,1.5,2.1c4.7,2.9,9.4,5.6,14.2,8.4c0.3,0.1,0.5,0.3,0.9,0.5c0-0.5,0.1-0.9,0.1-1.3c0-5.4,0-10.7,0-16.1
			c0-0.6-0.3-1.2-0.7-1.6c-4.4-4.2-8.8-8.4-13.2-12.6c-0.2-0.2-0.3-0.4-0.6-0.7c1.3-1.4,2.6-2.8,3.8-4.2c3.5,3.3,6.9,6.6,10.6,10
			c0-3.8,0-7.3,0-11c2,0,3.9,0,5.8,0c0,3.4,0,6.8,0,10.6c3.6-3.4,6.9-6.5,10.2-9.7c1.3,1.4,2.5,2.8,3.9,4.3
			c-2.5,2.3-4.8,4.6-7.2,6.8c-2,1.9-4.1,3.8-6.1,5.8c-0.4,0.4-0.7,0.9-0.7,1.4c0,5.8,0,11.5,0,17.5c0.5-0.2,0.8-0.4,1.2-0.5
			c4.3-2.5,8.6-5,12.9-7.6c0.6-0.4,1.2-1.1,1.3-1.8c1.3-5.6,2.6-11.2,3.8-16.9c0.3-1.2,0.7-1.6,1.8-1.2c1.3,0.4,2.6,0.7,4.1,1
			c-1.1,4.7-2.1,9.3-3.2,14.3c3.3-1.9,6.2-3.7,9.4-5.5c1,1.7,1.9,3.3,2.9,5.1c-3,1.8-5.9,3.5-9.1,5.4c4.6,1.5,8.9,2.8,13.3,4.2
			c-0.6,1.9-1.1,3.6-1.6,5.5c-2.1-0.6-4.1-1.2-6.1-1.8c-3.7-1.1-7.3-2.3-11-3.5c-0.6-0.2-1.5-0.3-2,0c-5,2.8-9.9,5.8-15.1,8.8
			c0.5,0.4,0.8,0.6,1.2,0.8c4.4,2.6,8.7,5.2,13.2,7.7c0.6,0.3,1.6,0.4,2.2,0.2c5.5-1.6,10.9-3.3,16.4-5.1c1.1-0.3,1.5-0.1,1.7,0.9
			c0.3,1.4,0.8,2.7,1.2,4.2c-4.6,1.4-9,2.8-13.7,4.3c3.3,1.9,6.2,3.7,9.4,5.5c-0.9,1.5-1.7,3.1-2.6,4.5c-0.1,0.2-1,0.2-1.4,0
			c-2.1-1.2-4.1-2.4-6.2-3.6c-0.5-0.3-1-0.5-1.8-1c0.5,2.2,0.9,4.1,1.3,6c0.5,2.2,1,4.3,1.5,6.5c0.2,1,0,1.4-1,1.6
			c-1.4,0.3-2.8,0.6-4.3,0.9c-0.3-1.2-0.6-2.3-0.8-3.4c-1.1-4.7-2.1-9.4-3.2-14.2c-0.2-1.1-0.7-1.8-1.7-2.4
			c-4.2-2.4-8.4-4.9-12.6-7.4c-0.3-0.2-0.7-0.4-1.2-0.6c0,0.7-0.1,1.1-0.1,1.6c0,5.2,0,10.3,0,15.5c0,1,0.3,1.7,1,2.4
			c4.3,4,8.6,8.1,13.1,12.3c-1.3,1.4-2.6,2.8-3.9,4.3C203.1,108,199.9,104.9,196.3,101.6z"/>
	</g>
</g>
<g>
	<g class="st3">
		<path class="st4" d="M102.9,84.8c-2.3,0-4.6,0-6.9,0V74.3h-8.1v10.5c-2.3,0-4.6,0-6.9,0V58.5c2.3,0,4.6,0,6.9,0V68H96v-9.5
			c2.3,0,4.6,0,6.9,0V84.8z"/>
		<path class="st4" d="M124.8,81.5h-10.4l-1.5,3.3h-6.6v-1l11.8-25.6h2.9l11.9,25.6v1h-6.6L124.8,81.5z M119.6,68.9l-3,6.9h6
			L119.6,68.9z"/>
	</g>
</g>
<rect x="210.6" y="135.3" class="st5" width="21.3" height="15"/>
<g>
	<g class="st3">
		<path class="st6" d="M188.6,76.3l-23.8,40.4c23.8-1.8,39.5,12.7,39.5,36c0,26.3-18.9,38.7-42.9,38.7c-24.2,0-43.2-12.4-43.2-38.7
			c0-7.7,1.6-15.4,5.9-22l32.4-54.4H188.6z M175.4,152.7c0-7.5-4.5-14.1-14-14.1c-9.6,0-14.4,6.6-14.4,14.1
			c0,8.2,5.8,14.3,14.4,14.3C170.4,167,175.4,160.9,175.4,152.7z"/>
	</g>
	<g class="st3">
		<path class="st7" d="M188.6,76.3l-23.8,40.4c23.8-1.8,39.5,12.7,39.5,36c0,26.3-18.9,38.7-42.9,38.7c-24.2,0-43.2-12.4-43.2-38.7
			c0-7.7,1.6-15.4,5.9-22l32.4-54.4H188.6z M175.4,152.7c0-7.5-4.5-14.1-14-14.1c-9.6,0-14.4,6.6-14.4,14.1
			c0,8.2,5.8,14.3,14.4,14.3C170.4,167,175.4,160.9,175.4,152.7z"/>
	</g>
</g>
<g>
	<g class="st3">
		<path class="st6" d="M280.5,191.5c-45.7,0-55.2-46.7-28.4-66c-16.4-17.8-6.6-50.2,28.4-50.2c35,0,44.6,32.7,28.4,50.4
			C335.4,145.2,325.9,191.5,280.5,191.5z M280.5,139.4c-19.3,0-19.3,27.9,0,27.9C299.9,167.3,299.9,139.4,280.5,139.4z M280.5,98
			c-14,0-14,18,0,18C294.3,116,294.3,98,280.5,98z"/>
	</g>
	<g class="st3">
		<path class="st7" d="M280.5,191.5c-45.7,0-55.2-46.7-28.4-66c-16.4-17.8-6.6-50.2,28.4-50.2c35,0,44.6,32.7,28.4,50.4
			C335.4,145.2,325.9,191.5,280.5,191.5z M280.5,139.4c-19.3,0-19.3,27.9,0,27.9C299.9,167.3,299.9,139.4,280.5,139.4z M280.5,98
			c-14,0-14,18,0,18C294.3,116,294.3,98,280.5,98z"/>
	</g>
</g>
<g>
	<g class="st3">
		<path class="st8" d="M18.8,142.6h1.7v18.6c-1.6,0-3.2,0-4.9,0v-8.3l-4,4.1h-0.5l-3.9-4.1v8.3c-1.6,0-3.2,0-4.9,0v-18.6h1.8
			l7.3,8.1L18.8,142.6z"/>
		<path class="st8" d="M36.8,146.9c-2.8,0-4.1,0-6.9,0v2.6h6.3c0,1.4,0,2.8,0,4.2h-6.3c0,1.1,0,2.2,0,3.3c2.7,0,4.3,0,7.1,0
			c0,1.4,0,2.8,0,4.2c-4.4,0-7.5,0-11.8,0c0-6.2,0-12.4,0-18.6c4.3,0,7.2,0,11.6,0C36.8,144,36.8,145.4,36.8,146.9z"/>
		<path class="st8" d="M49.5,142.4c3.8,0,8,2.1,8.7,7.1c-1.6,0-3.1,0-4.7,0c-0.7-1.9-2.1-2.7-4.1-2.7c-2.8,0-4.6,2.1-4.6,5.2
			c0,2.7,1.8,5.1,4.6,5.2c2,0,3.6-1,4.1-3c1.6,0,3.1,0,4.7,0c-0.7,5.3-4.9,7.3-8.8,7.3c-4.7,0-9.5-3.2-9.5-9.5
			C40,145.6,44.8,142.4,49.5,142.4z"/>
		<path class="st8" d="M63.8,154.6c-4.7-3.2-3.4-12,3.9-12c2.7,0,5.5,0,8.2,0c0,6.2,0,12.4,0,18.6c-1.5,0-3.2,0-4.8,0v-5.5h-2.5
			l-3.2,5.5h-5.3v-0.7L63.8,154.6z M71.1,151.4c0-1.5,0-3.1,0-4.6c-1.1,0-2.3,0-3.4,0c-2.7,0-2.6,4.6,0,4.6H71.1z"/>
		<path class="st8" d="M80.6,142.6h4.9v14.2h5.4v-14.2h4.9v14.5h1.9v6.2h-3.9v-2.1H80.6V142.6z"/>
		<path class="st8" d="M112.1,146.9c-2.8,0-4.1,0-6.9,0v2.6h6.3c0,1.4,0,2.8,0,4.2h-6.3c0,1.1,0,2.2,0,3.3c2.7,0,4.3,0,7.1,0
			c0,1.4,0,2.8,0,4.2c-4.4,0-7.5,0-11.8,0c0-6.2,0-12.4,0-18.6c4.3,0,7.2,0,11.6,0C112.1,144,112.1,145.4,112.1,146.9z"/>
		<path class="st8" d="M128.7,151.5c1.5,0.8,2.2,2.2,2.2,3.8c0,3.2-2,5.9-5.8,5.9h-8.7v-18.6h7.9c3.2,0,5.8,2.5,5.8,5.7
			C130.1,149.4,129.6,150.8,128.7,151.5z M121,146.9v3h3c1.9,0,1.9-3,0-3H121z M121,153.8v3.2h3.8c1.9,0,1.9-3.2,0-3.2H121z"/>
	</g>
	<g class="st3">
		<path class="st8" d="M4,195.2H0.1V189H2l6.4-14.7h2L17,189h1.9v6.2H15v-2H4V195.2z M6.7,188.9H12l-2.7-6.7L6.7,188.9z"/>
		<path class="st8" d="M20.1,183.8c0-12.9,19.1-12.9,19.1,0S20.1,196.7,20.1,183.8z M34.3,183.8c0-6.7-9.3-6.7-9.3,0
			C25,190.6,34.3,190.6,34.3,183.8z"/>
		<path class="st8" d="M45.1,193.1h-4.6v-0.7l8.4-18.1h2l8.4,18.1v0.7h-4.6l-4.8-10.9L45.1,193.1z"/>
		<path class="st8" d="M66.4,180.1h3.4c8.9,0,8.9,13,0,13c-2.7,0-5.5,0-8.2,0c0-6.2,0-12.4,0-18.6c1.6,0,3.2,0,4.8,0V180.1z
			 M66.4,184.3c0,1.5,0,3,0,4.5c1.1,0,2.3,0,3.4,0c2.8,0,2.6-4.5,0-4.5H66.4z"/>
		<path class="st8" d="M80.1,174.5H85v14.2h4.5v-14.2h4.9v14.2h4.5v-14.2h4.9v18.6H80.1V174.5z"/>
		<path class="st8" d="M120,178.8c-2.8,0-4.1,0-6.9,0v2.6h6.3c0,1.4,0,2.8,0,4.2h-6.3c0,1.1,0,2.2,0,3.3c2.7,0,4.3,0,7.1,0
			c0,1.4,0,2.8,0,4.2c-4.4,0-7.5,0-11.8,0c0-6.2,0-12.4,0-18.6c4.3,0,7.2,0,11.6,0C120,175.9,120,177.3,120,178.8z"/>
	</g>
	<g class="st3">
		<path class="st8" d="M8.8,219l-3.4,5.8H0.3v-0.7l6-9.1L1,207v-0.7h4.9l2.9,4.8H9l3-4.8h4.9v0.7l-5.4,8l6,9.1v0.7h-5.1L9,219H8.8z"
			/>
		<path class="st8" d="M20.2,224.9c0-6.2,0-12.4,0-18.6c2.7,0,5.4,0,8.2,0c8.9,0,8.9,13.8,0,13.8H25v4.8
			C23.4,224.9,21.8,224.9,20.2,224.9z M28.4,210.6c-1.1,0-2.3,0-3.4,0c0,1.5,0,3.8,0,5.3h3.4C31,215.9,31.1,210.6,28.4,210.6z"/>
		<path class="st8" d="M48.3,222.6H41l-1.1,2.3h-4.6v-0.7l8.4-18.1h2l8.4,18.1v0.7h-4.6L48.3,222.6z M44.6,213.6l-2.1,4.9h4.2
			L44.6,213.6z"/>
		<path class="st8" d="M71.9,224.9c-1.6,0-3.2,0-4.9,0v-7.5h-5.7v7.5c-1.6,0-3.3,0-4.9,0v-18.6c1.6,0,3.2,0,4.9,0v6.7H67v-6.7
			c1.6,0,3.2,0,4.9,0V224.9z"/>
		<path class="st8" d="M78.4,224.9h-1.7v-18.6c1.6,0,3.2,0,4.9,0v9.1l9.4-9.2h1.7v18.7c-1.6,0-3.3,0-4.9,0v-9.1L78.4,224.9z"/>
		<path class="st8" d="M95.6,210.6c0-1.4,0-2.8,0-4.2h13.8c0,1.4,0,2.8,0,4.2h-4.5v14.3c-1.6,0-3.1,0-4.7,0v-14.3H95.6z"/>
		<path class="st8" d="M117.1,211.9h3.4c8.9,0,8.9,13,0,13c-2.7,0-5.5,0-8.2,0c0-6.2,0-12.4,0-18.6c1.6,0,3.2,0,4.8,0
			C117.1,206.3,117.1,211.9,117.1,211.9z M117.1,216.1c0,1.5,0,3,0,4.5c1.1,0,2.3,0,3.4,0c2.8,0,2.6-4.5,0-4.5H117.1z"/>
		<path class="st8" d="M139.2,206.1c3.9,0,8,2.1,8.7,7.1c-1.6,0-3.1,0-4.7,0c-0.7-1.9-2.1-2.7-4.1-2.7c-2.8,0-4.6,2.1-4.6,5.2
			c0,2.7,1.8,5.1,4.6,5.2c2,0,3.6-1,4.1-3c1.6,0,3.1,0,4.7,0c-0.7,5.3-4.9,7.3-8.8,7.3c-4.7,0-9.5-3.2-9.5-9.5
			C129.7,209.3,134.5,206.1,139.2,206.1z"/>
		<path class="st8" d="M153.4,218.3c-4.7-3.2-3.4-12,3.9-12c2.7,0,5.5,0,8.2,0c0,6.2,0,12.4,0,18.6c-1.5,0-3.2,0-4.8,0v-5.5h-2.5
			l-3.2,5.5h-5.3v-0.7L153.4,218.3z M160.8,215.1c0-1.5,0-3.1,0-4.6c-1.1,0-2.3,0-3.4,0c-2.7,0-2.6,4.6,0,4.6H160.8z"/>
	</g>
</g>
<g id="Слой_2_1_">
	<path class="st9" d="M225.5,289.6c18.4-10.8,31.7-29.7,36.9-50.3c2.3-8.9,1.6-19.4-5.3-26.2c-3.1-3-7.4-4.7-11.1-6.8
		c-9.5-5.3-19.7-7.1-29.7-2c-8,4.1-11.2,11.2-17.4,17.2c-11.9,11.6-18.4,29.8-14.4,46.3c2.1,8.7,11.1,12.4,17,18.5
		C208.6,293.5,216.3,294.9,225.5,289.6z"/>
	<path class="st9" d="M183,285.4c-2.3-10.8-9.3-20.5-18.6-26.5c-4-2.6-9.3-4-13.7-1.7c-2,1-3.5,2.8-5.2,4.3
		c-4.2,3.8-6.8,8.5-5.9,14.2c0.7,4.6,3.6,7.4,5.6,11.4c3.7,7.8,11.6,14,20.4,14.8c4.6,0.4,7.9-3.4,11.9-5.3
		C182.2,294.3,184.1,290.8,183,285.4z"/>
	<path class="st9" d="M106.4,284.7c9.4-3.9,17-11.9,20.9-21.3c1.7-4.1,2-9.1-0.8-12.7c-1.3-1.6-3.2-2.7-4.8-3.9
		c-4.1-3.2-8.8-4.7-13.9-2.9c-4.1,1.4-6,4.5-9.4,7c-6.4,4.7-10.7,12.9-9.9,21c0.4,4.2,4.4,6.6,6.8,9.9
		C98.2,285.4,101.7,286.6,106.4,284.7z"/>
</g>
<g id="Слой_3_1_">
	<circle class="st9" cx="205.3" cy="237.3" r="1.5"/>
	<circle class="st9" cx="113.3" cy="251.9" r="1.5"/>
	<circle class="st10" cx="150.5" cy="271.4" r="1.5"/>
	<circle class="st10" cx="154.9" cy="293" r="1.1"/>
	<circle class="st10" cx="169.8" cy="272" r="1.1"/>
	<circle class="st10" cx="95.2" cy="261.5" r="1.1"/>
	<circle class="st10" cx="98.8" cy="272" r="1.1"/>
	<circle class="st10" cx="108.5" cy="264.3" r="1.1"/>
	<circle class="st9" cx="218.3" cy="275.5" r="3.5"/>
	<circle class="st9" cx="249.5" cy="227.8" r="1.8"/>
	<circle class="st9" cx="230.8" cy="260.5" r="1.5"/>
	<circle class="st9" cx="223" cy="211.4" r="1.2"/>
	<circle class="st10" cx="232.3" cy="245.9" r="1.2"/>
	<circle class="st9" cx="190.8" cy="238.1" r="2.3"/>
	<line class="st11" x1="207.5" y1="245.9" x2="214.5" y2="251.9"/>
	<path class="st9" d="M200,255c0.8,0.3,5.3,4,5.3,4"/>
	<line class="st11" x1="241.4" y1="257" x2="251.3" y2="263.2"/>
	<line class="st11" x1="231.8" y1="229.4" x2="236.4" y2="232.4"/>
	<line class="st11" x1="208.7" y1="224.5" x2="213.2" y2="227.5"/>
	<line class="st11" x1="241.4" y1="211.1" x2="246" y2="214.1"/>
	<line class="st11" x1="200.8" y1="274" x2="205.3" y2="277"/>
	<line class="st11" x1="141.8" y1="279" x2="144.4" y2="277"/>
	<line class="st11" x1="174" y1="281.4" x2="169.8" y2="284.5"/>
	<path class="st9" d="M164,265.3c-0.9,0-4.4,2.9-4.4,2.9"/>
	<line class="st11" x1="157.4" y1="282.9" x2="152.9" y2="285.6"/>
	<line class="st11" x1="162.5" y1="293.8" x2="165.9" y2="291.5"/>
	<line class="st11" x1="152.3" y1="261.5" x2="149.6" y2="263.2"/>
	<line class="st11" x1="173.4" y1="292" x2="175.9" y2="290"/>
	<line class="st11" x1="103.1" y1="248.4" x2="105.4" y2="250.4"/>
	<path class="st9" d="M103.1,270.9c0.4,0.6,3,3.1,3,3.1"/>
	<line class="st11" x1="115" y1="261.5" x2="117.3" y2="263.2"/>
	<line class="st11" x1="100.6" y1="257.5" x2="103.1" y2="260.5"/>
	<path class="st9" d="M121.3,257c0.2-0.4,2.7,2,2.7,2"/>
	<path class="st9" d="M92.1,267.4c0,0.4,2,2.6,2,2.6"/>
	<path class="st9" d="M118,271.7c-0.4-0.1-3.2-1.5-3.2-1.5"/>
	<path class="st9" d="M107,282.7c-0.4-0.2-3.8-2.7-3.8-2.7"/>
	<path class="st12" d="M97.7,128.6c-23.9,2.3-47.2-10.7-56.3-33.4c-11.2-27.8,3.1-59.8,31.9-71.4"/>
	<path class="st13" d="M79.8,24.9c-5.5,3.2-12.3,2-12.3,2s2.2-6.6,7.7-9.8s12.3-2,12.3-2S85.3,21.7,79.8,24.9z"/>
	<path class="st13" d="M40.3,134c-3.2,3.7-8.4,4.4-8.4,4.4s0-5.3,3.2-9s8.4-4.4,8.4-4.4S43.5,130.3,40.3,134z"/>
	<path class="st13" d="M35.8,120.7c-4.8-0.9-8.1-5.1-8.1-5.1s4.5-2.7,9.4-1.8c4.8,0.9,8.1,5.1,8.1,5.1S40.6,121.6,35.8,120.7z"/>
	<path class="st13" d="M54.2,135.2c-4.9,0.4-9.1-2.7-9.1-2.7s3.7-3.8,8.5-4.2c4.9-0.4,9.1,2.7,9.1,2.7S59.1,134.7,54.2,135.2z"/>
	<path class="st13" d="M64.3,29.1c-3.6,5.3-10.3,7-10.3,7s-0.9-6.8,2.7-12.1c3.6-5.3,10.3-7,10.3-7S67.9,23.8,64.3,29.1z"/>
	<path class="st13" d="M50.5,38.8c-1.3,6.3-6.8,10.4-6.8,10.4s-3.4-6-2.1-12.3c1.3-6.3,6.8-10.4,6.8-10.4S51.8,32.5,50.5,38.8z"/>
	<path class="st13" d="M55.3,49c-5.3,4.4-12.4,4.4-12.4,4.4s1.3-7,6.6-11.4s12.4-4.4,12.4-4.4S60.6,44.6,55.3,49z"/>
	<path class="st13" d="M52.9,59.3c-5.2,3.7-12.1,3-12.1,3s1.6-6.7,6.8-10.4c5.2-3.7,12.1-3,12.1-3S58.2,55.6,52.9,59.3z"/>
	<path class="st13" d="M49,68.6c-4.5,4.5-11.4,5-11.4,5s0.4-6.9,4.9-11.4s11.4-5,11.4-5S53.5,64.1,49,68.6z"/>
	<path class="st13" d="M48.9,78.2c-4.6,4.4-11.5,4.7-11.5,4.7S38,76,42.7,71.6c4.6-4.4,11.5-4.7,11.5-4.7S53.6,73.8,48.9,78.2z"/>
	<path class="st13" d="M51,88.4c-3.3,5.5-9.9,7.6-9.9,7.6s-1.2-6.8,2.1-12.3s9.9-7.6,9.9-7.6S54.3,82.9,51,88.4z"/>
	<path class="st13" d="M35.5,84.9C40.2,89.2,41,96,41,96s-6.9-0.1-11.6-4.4s-5.5-11.1-5.5-11.1S30.7,80.6,35.5,84.9z"/>
	<path class="st13" d="M66.7,37.4c-5.9,2.4-12.2,0.7-12.2,0.7s3.3-5.6,9.2-8s12.2-0.7,12.2-0.7S72.6,35,66.7,37.4z"/>
	<path class="st13" d="M42.1,49.2c0.8,6.3-3,12.1-3,12.1s-5.2-4.6-6-10.9s3-12.1,3-12.1S41.3,42.8,42.1,49.2z"/>
	<path class="st13" d="M37.8,60.4c2.2,6-0.2,12.4-0.2,12.4s-6.1-3.3-8.3-9.3s0.2-12.4,0.2-12.4S35.6,54.4,37.8,60.4z"/>
	<path class="st13" d="M36.2,73.9c3.5,5.4,2.5,12.2,2.5,12.2s-6.7-1.8-10.2-7.2S26,66.7,26,66.7S32.7,68.5,36.2,73.9z"/>
</g>
</svg>
