<svg xmlns="http://www.w3.org/2000/svg" xmlns:xlink="http://www.w3.org/1999/xlink" viewBox="784 3078 148 148">
  <defs>
    <style>
      .cls-1, .cls-6 {
        fill: #fff;
      }

      .cls-2 {
        fill: none;
        stroke: #1d586d;
        stroke-miterlimit: 10;
      }

      .cls-3 {
        fill: #32b2cb;
      }

      .cls-4 {
        fill: #ffc225;
      }

      .cls-5 {
        fill: #ff983d;
      }

      .cls-6 {
        font-size: 18px;
        font-family: AccordAlt-ExtraBold, AccordAlt;
        font-weight: 800;
      }

      .cls-7 {
        filter: url(#Ellipse_7);
      }
    </style>
    <filter id="Ellipse_7" x="784" y="3078" width="148" height="148" filterUnits="userSpaceOnUse">
      <feOffset dx="4" dy="4" input="SourceAlpha"/>
      <feGaussianBlur stdDeviation="10" result="blur"/>
      <feFlood flood-opacity="0.161"/>
      <feComposite operator="in" in2="blur"/>
      <feComposite in="SourceGraphic"/>
    </filter>
  </defs>
  <g id="Group_125" data-name="Group 125" transform="translate(5 -330)">
    <g class="cls-7" transform="matrix(1, 0, 0, 1, -5, 330)">
      <circle id="Ellipse_7-2" data-name="Ellipse 7" class="cls-1" cx="44" cy="44" r="44" transform="translate(810 3104)"/>
    </g>
    <g id="icon-06" transform="translate(805 3434)">
      <g id="Group_16" data-name="Group 16">
        <circle id="Ellipse_38" data-name="Ellipse 38" class="cls-1" cx="44" cy="44" r="44"/>
        <path id="Path_22" data-name="Path 22" class="cls-2" d="M56.72,27.2H20.2V56.79H62.66V36" transform="translate(2.02 2.72)"/>
        <line id="Line_8" data-name="Line 8" class="cls-2" x2="10.01" transform="translate(40.92 36.85)"/>
        <line id="Line_9" data-name="Line 9" class="cls-2" x2="10.01" transform="translate(40.92 40.92)"/>
        <line id="Line_10" data-name="Line 10" class="cls-2" x2="10.01" transform="translate(40.92 45.65)"/>
        <line id="Line_11" data-name="Line 11" class="cls-2" x2="22.33" transform="translate(28.6 53.02)"/>
        <rect id="Rectangle_107" data-name="Rectangle 107" class="cls-3" width="10.56" height="13.31" transform="translate(28.6 36.41)"/>
        <g id="Group_15" data-name="Group 15" transform="translate(30.25 36.41)">
          <path id="Path_23" data-name="Path 23" class="cls-1" d="M30.25,44.43a6.24,6.24,0,0,1-2.75-.88l.77-1.54a5.67,5.67,0,0,0,2.97.77c1.1,0,1.76-.33,1.76-.99s-.66-.99-1.98-1.32c-1.43-.33-3.19-.99-3.19-2.97,0-1.65,1.1-2.2,2.42-2.42V33.1h1.76v1.98a6.127,6.127,0,0,1,2.64.88l-.77,1.54a5.127,5.127,0,0,0-2.75-.77c-.77,0-1.54.22-1.54.77,0,.77,1.1.88,1.76,1.1,2.31.66,3.41,1.43,3.41,3.19,0,1.87-1.43,2.53-2.75,2.64v1.98H30.25Z" transform="translate(-27.5 -33.1)"/>
        </g>
        <path id="Path_24" data-name="Path 24" class="cls-2" d="M47.7,46.83l.44,4.4,4.07-2.53L64.42,19.66,60.13,17.9Z" transform="translate(4.77 1.79)"/>
        <line id="Line_12" data-name="Line 12" class="cls-2" x2="4.29" y2="1.76" transform="translate(63.25 23.65)"/>
        <path id="Path_25" data-name="Path 25" class="cls-4" d="M58.61,21l1.98-.66,1.54-.44-1.1,2.31L58.5,21" transform="translate(5.85 1.99)"/>
        <line id="Line_13" data-name="Line 13" class="cls-2" x2="4.51" y2="2.09" transform="translate(52.47 48.4)"/>
      </g>
    </g>
    <circle id="Ellipse_20" data-name="Ellipse 20" class="cls-5" cx="16" cy="16" r="16" transform="translate(789 3482)"/>
    <text id="_5" data-name="5" class="cls-6" transform="translate(805 3504)"><tspan x="-4.797" y="0">5</tspan></text>
  </g>
</svg>
