<svg xmlns="http://www.w3.org/2000/svg" xmlns:xlink="http://www.w3.org/1999/xlink" viewBox="121 3077 148 148">
  <defs>
    <style>
      .cls-1, .cls-5 {
        fill: #fff;
      }

      .cls-2 {
        fill: none;
        stroke: #1d586d;
        stroke-miterlimit: 10;
      }

      .cls-3 {
        fill: #ffc225;
      }

      .cls-4 {
        fill: #ff983d;
      }

      .cls-5 {
        font-size: 18px;
        font-family: AccordAlt-ExtraBold, AccordAlt;
        font-weight: 800;
      }

      .cls-6 {
        filter: url(#Ellipse_3);
      }
    </style>
    <filter id="Ellipse_3" x="121" y="3077" width="148" height="148" filterUnits="userSpaceOnUse">
      <feOffset dx="4" dy="4" input="SourceAlpha"/>
      <feGaussianBlur stdDeviation="10" result="blur"/>
      <feFlood flood-opacity="0.161"/>
      <feComposite operator="in" in2="blur"/>
      <feComposite in="SourceGraphic"/>
    </filter>
  </defs>
  <g id="Group_121" data-name="Group 121" transform="translate(5 -330)">
    <g id="Group_20" data-name="Group 20" transform="translate(-4 3208)">
      <g class="cls-6" transform="matrix(1, 0, 0, 1, -1, -2878)">
        <circle id="Ellipse_3-2" data-name="Ellipse 3" class="cls-1" cx="44" cy="44" r="44" transform="translate(147 3103)"/>
      </g>
      <g id="icon-03" transform="translate(146 225)">
        <g id="Group_12" data-name="Group 12">
          <circle id="Ellipse_32" data-name="Ellipse 32" class="cls-1" cx="44" cy="44" r="44"/>
          <path id="Path_7" data-name="Path 7" class="cls-2" d="M22.01,35.63V30.9H18.6V45.86h3.41V41.13" transform="translate(1.86 3.09)"/>
          <path id="Path_8" data-name="Path 8" class="cls-2" d="M21.7,32.4l6.27.88v9.68l-6.27.77" transform="translate(2.17 3.24)"/>
          <path id="Path_9" data-name="Path 9" class="cls-2" d="M27.4,33.97,60.51,25.5V39.25" transform="translate(2.74 2.55)"/>
          <path id="Path_10" data-name="Path 10" class="cls-2" d="M27.4,42l33.11,8.69V45.41" transform="translate(2.74 4.2)"/>
          <path id="Path_11" data-name="Path 11" class="cls-3" d="M29.9,37.3V35.54L57.51,28.5v8.8Z" transform="translate(2.99 2.85)"/>
          <path id="Path_12" data-name="Path 12" class="cls-2" d="M33.7,43.7v8.8H45.47V46.67" transform="translate(3.37 4.37)"/>
        </g>
      </g>
    </g>
    <circle id="Ellipse_10" data-name="Ellipse 10" class="cls-4" cx="16" cy="16" r="16" transform="translate(126 3482)"/>
    <text id="_1" data-name="1" class="cls-5" transform="translate(141 3504)"><tspan x="-3.06" y="0">1</tspan></text>
  </g>
</svg>
