<svg xmlns="http://www.w3.org/2000/svg" xmlns:xlink="http://www.w3.org/1999/xlink" viewBox="1115 3078 148 148">
  <defs>
    <style>
      .cls-1, .cls-6 {
        fill: #fff;
      }

      .cls-2, .cls-3 {
        fill: none;
        stroke-miterlimit: 10;
      }

      .cls-2 {
        stroke: #1d586d;
      }

      .cls-3 {
        stroke: #32b2cb;
      }

      .cls-4 {
        fill: #ffc225;
      }

      .cls-5 {
        fill: #ff983d;
      }

      .cls-6 {
        font-size: 18px;
        font-family: AccordAlt-ExtraBold, AccordAlt;
        font-weight: 800;
      }

      .cls-7 {
        filter: url(#Ellipse_9);
      }
    </style>
    <filter id="Ellipse_9" x="1115" y="3078" width="148" height="148" filterUnits="userSpaceOnUse">
      <feOffset dx="4" dy="4" input="SourceAlpha"/>
      <feGaussianBlur stdDeviation="10" result="blur"/>
      <feFlood flood-opacity="0.161"/>
      <feComposite operator="in" in2="blur"/>
      <feComposite in="SourceGraphic"/>
    </filter>
  </defs>
  <g id="Group_127" data-name="Group 127" transform="translate(5 -330)">
    <g class="cls-7" transform="matrix(1, 0, 0, 1, -5, 330)">
      <circle id="Ellipse_9-2" data-name="Ellipse 9" class="cls-1" cx="44" cy="44" r="44" transform="translate(1141 3104)"/>
    </g>
    <g id="icon-04" transform="translate(1136 3434)">
      <g id="Group_13" data-name="Group 13">
        <circle id="Ellipse_33" data-name="Ellipse 33" class="cls-1" cx="44" cy="44" r="44"/>
        <rect id="Rectangle_105" data-name="Rectangle 105" class="cls-2" width="31.68" height="41.69" transform="translate(27.83 24.53)"/>
        <path id="Path_13" data-name="Path 13" class="cls-2" d="M33.8,26.2H28.3V59.97H46.78V55.9h6.49V26.2h-5.5" transform="translate(2.83 2.62)"/>
        <path id="Path_14" data-name="Path 14" class="cls-3" d="M31.7,41.1l1.32,1.65,3.74-3.85" transform="translate(3.17 3.89)"/>
        <line id="Line_3" data-name="Line 3" class="cls-2" x2="10.56" transform="translate(41.8 45.76)"/>
        <path id="Path_15" data-name="Path 15" class="cls-3" d="M31.7,34l1.32,1.65,3.74-3.85" transform="translate(3.17 3.18)"/>
        <line id="Line_4" data-name="Line 4" class="cls-2" x2="10.56" transform="translate(41.8 38.28)"/>
        <path id="Path_16" data-name="Path 16" class="cls-3" d="M31.7,47.6l1.32,1.65,3.74-3.85" transform="translate(3.17 4.54)"/>
        <line id="Line_5" data-name="Line 5" class="cls-2" x2="10.56" transform="translate(41.8 53.24)"/>
        <rect id="Rectangle_106" data-name="Rectangle 106" class="cls-2" width="5.61" height="6.49" transform="translate(41.03 20.02)"/>
        <path id="Path_17" data-name="Path 17" class="cls-4" d="M34.9,21.3V29h2.09V25.92h6.27V29h2.09V21.3Z" transform="translate(3.49 2.13)"/>
      </g>
    </g>
    <circle id="Ellipse_22" data-name="Ellipse 22" class="cls-5" cx="16" cy="16" r="16" transform="translate(1120 3482)"/>
    <text id="_7" data-name="7" class="cls-6" transform="translate(1135 3504)"><tspan x="-4.527" y="0">7</tspan></text>
  </g>
</svg>
